<svg width="79" height="142" viewBox="0 0 79 142" fill="none" xmlns="http://www.w3.org/2000/svg">
<path d="M30.6895 2.30459C55.5467 -1.37491 77.5195 4.36423 78.0633 34.0019C78.4822 56.8328 54.3516 79.0084 31.1556 69.9087C25.5979 67.7285 23.8184 59.5765 24.9057 54.2656C26.6257 45.8642 33.0369 42.0002 41.3763 41.6888C56.5255 41.123 75.2987 52.2707 75.6288 68.876C76.1455 94.8619 55.6479 114.218 33.1713 123.845C28.6942 125.763 -6.76585 134.328 10.5847 123.458C13.7336 121.486 23.3891 115.952 20.3704 118.119C15.3654 121.712 12.4036 123.522 6.37103 125.394C5.17339 125.766 -1.35731 126.832 1.64164 128.815C7.78207 132.875 13.5805 137.389 19.8235 141.314" stroke="white" stroke-opacity="0.6" stroke-width="0.74967" stroke-linecap="round"/>
</svg>
