<svg width="363" height="363" viewBox="0 0 363 363" fill="none" xmlns="http://www.w3.org/2000/svg">
<circle cx="181.5" cy="181.5" r="181.5" fill="#10020A"/>
<path d="M89.0835 209V149.002H65.4225V135.059H129.857V149.002H106.196V209H89.0835ZM131.67 209V135.059H167.795C177.09 135.059 184.062 136.82 188.709 140.341C193.428 143.862 195.787 148.51 195.787 154.284C195.787 158.157 194.836 161.537 192.935 164.424C191.033 167.241 188.428 169.424 185.118 170.973C181.808 172.523 178.006 173.297 173.71 173.297L175.717 168.966C180.365 168.966 184.484 169.741 188.076 171.29C191.667 172.769 194.449 174.987 196.42 177.945C198.463 180.903 199.484 184.529 199.484 188.825C199.484 195.163 196.984 200.127 191.984 203.719C186.984 207.24 179.625 209 169.907 209H131.67ZM148.676 196.113H168.64C173.076 196.113 176.421 195.409 178.675 194.001C180.999 192.522 182.16 190.198 182.16 187.029C182.16 183.931 180.999 181.642 178.675 180.163C176.421 178.614 173.076 177.839 168.64 177.839H147.408V165.375H165.682C169.837 165.375 173.006 164.671 175.189 163.262C177.442 161.784 178.569 159.565 178.569 156.608C178.569 153.721 177.442 151.573 175.189 150.164C173.006 148.686 169.837 147.946 165.682 147.946H148.676V196.113ZM205.045 209V135.059H219.199L250.677 187.24H243.177L274.127 135.059H288.175L288.387 209H272.331L272.225 159.671H275.183L250.466 201.183H242.755L217.509 159.671H221.101V209H205.045Z" fill="white"/>
<path d="M76.693 244.487C76.7689 244.912 76.8796 245.532 77.025 246.346C77.2375 246.308 77.5739 246.248 78.0342 246.166C78.2821 246.122 78.6944 245.975 79.2711 245.726C79.8124 245.483 80.3296 245.208 80.8229 244.901C82.1862 244.146 83.0772 243.712 83.4958 243.601C83.9435 243.448 84.326 243.544 84.6435 243.889C84.7813 244.048 84.8869 244.23 84.9603 244.436C85.0147 244.536 85.0482 244.621 85.0608 244.692C85.0798 244.798 85.081 244.908 85.0646 245.02C85.0532 245.57 84.3368 246.265 82.9153 247.103C81.5292 247.935 80.0052 248.609 78.3435 249.125C78.0311 249.218 77.5594 249.338 76.9283 249.488C76.879 249.825 76.7809 250.3 76.6342 250.91C76.265 252.73 75.6693 254.408 74.8473 255.943C73.9898 257.485 73.0565 258.602 72.0473 259.293C71.3732 259.816 70.5998 260.191 69.7272 260.42C69.4856 260.5 69.2409 260.562 68.9931 260.606C68.4619 260.701 67.9535 260.719 67.4678 260.659C66.3423 260.495 65.3495 260.051 64.4895 259.328C63.6649 258.598 62.8656 257.498 62.0916 256.029C61.5415 254.994 61.1956 254.49 61.054 254.515C60.8769 254.546 60.3135 255.177 59.3637 256.406C58.6821 257.295 58.051 257.956 57.4705 258.389C56.8609 258.863 56.2728 259.151 55.7063 259.252C55.1397 259.353 54.6123 259.264 54.1241 258.986C53.636 258.708 53.2433 258.248 52.9461 257.607C52.7829 257.307 52.6634 256.945 52.5875 256.52C52.4547 255.776 52.4528 254.845 52.5818 253.726C52.7513 252.015 53.2047 250.052 53.942 247.837C54.3087 246.822 54.6439 246.141 54.9474 245.794C55.2509 245.448 55.6518 245.34 56.1501 245.47C56.7255 245.623 57.0398 245.95 57.0929 246.452C57.1397 246.919 56.981 247.77 56.6168 249.004C56.035 250.862 55.6487 252.484 55.4577 253.87C55.2731 255.291 55.3496 256.027 55.6873 256.076C55.7581 256.063 55.9921 255.839 56.3892 255.403C56.7863 254.966 57.2239 254.45 57.7019 253.853C58.4999 252.797 59.1797 251.999 59.7412 251.461C60.2736 250.964 60.7346 250.68 61.1241 250.611C61.5491 250.535 62.0037 250.728 62.4881 251.189C63.0079 251.645 63.4739 252.31 63.8862 253.187C64.5767 254.598 65.0965 255.565 65.4456 256.087C65.8301 256.603 66.2487 257.004 66.7014 257.288C67.9282 258.019 69.1802 257.869 70.4575 256.837C71.7349 255.805 72.7245 254.185 73.4264 251.977C73.6995 251.051 73.8399 250.405 73.8475 250.038C73.8614 249.706 73.7267 249.566 73.4434 249.617C73.1247 249.674 72.3596 249.481 71.148 249.04C69.9428 248.634 69.1283 248.268 68.7046 247.942C67.9762 247.341 67.4102 246.729 67.0068 246.107C66.6451 245.514 66.3884 244.793 66.2366 243.943C65.9773 242.491 66.2132 241.151 66.9442 239.925C67.6461 238.74 68.6521 238.03 69.9623 237.796C71.485 237.524 72.8894 238.023 74.1756 239.291C75.4682 240.595 76.3073 242.327 76.693 244.487ZM69.4634 241.448C69.2307 241.782 69.0802 242.065 69.0119 242.296C68.9854 242.557 69.0132 242.917 69.0954 243.377C69.2345 244.156 69.5286 244.78 69.9775 245.248C70.4265 245.716 71.0962 246.089 71.9865 246.369C72.9894 246.665 73.5844 246.723 73.7716 246.543C73.9651 246.399 73.943 245.764 73.7052 244.637C73.5281 243.645 73.2524 242.818 72.8781 242.154C72.4683 241.496 71.9839 241.034 71.425 240.769C71.2643 240.688 71.1069 240.625 70.9526 240.579C70.7692 240.575 70.6067 240.586 70.4651 240.611C70.288 240.643 70.1204 240.728 69.9623 240.866C69.8043 241.004 69.638 241.198 69.4634 241.448ZM86.9408 259.21C86.5488 259.061 86.3148 258.774 86.2389 258.349C86.22 258.242 86.2187 258.133 86.2351 258.02C86.2275 257.364 86.4419 256.211 86.8782 254.562C87.0932 253.72 87.3993 252.569 87.7964 251.11C88.1517 249.621 88.4907 248.245 88.8131 246.982C89.3215 244.918 89.8767 242.809 90.4787 240.655C91.0807 238.501 91.6745 236.404 92.26 234.363C93.3754 230.582 94.4251 227.252 95.409 224.373C96.3993 221.528 97.098 219.814 97.5052 219.23C97.6861 219.015 97.9327 218.861 98.245 218.769C98.2805 218.763 98.319 218.774 98.3608 218.803C98.7149 218.74 99.0235 218.831 99.2865 219.076C99.4952 219.222 99.628 219.454 99.6849 219.772C99.7165 219.95 99.7304 220.13 99.7266 220.313C99.6798 220.87 99.4585 221.676 99.0627 222.734C98.6997 223.566 98.3153 224.585 97.9093 225.79C97.5033 226.995 97.0841 228.331 96.6516 229.796C95.784 232.509 94.8817 235.539 93.9446 238.885C93.0075 242.231 92.1203 245.551 91.2831 248.843C90.3611 252.479 89.7162 255.005 89.3481 256.423C88.9447 257.847 88.6848 258.643 88.5685 258.81C88.394 259.06 88.1682 259.228 87.8912 259.314C87.8558 259.321 87.8204 259.327 87.785 259.333C87.4954 259.348 87.214 259.307 86.9408 259.21ZM145.787 252.648C145.478 252.557 145.269 252.411 145.161 252.211C145.046 251.976 144.885 251.384 144.679 250.434C144.473 249.484 144.334 248.504 144.263 247.494C144.186 246.448 144.185 245.315 144.259 244.096C144.405 241.841 144.806 239.175 145.462 236.098C146.119 233.021 147.068 229.234 148.311 224.737C149.567 220.31 150.408 217.036 150.833 214.914C151.257 212.792 151.311 211.759 150.992 211.816C150.921 211.829 150.742 211.952 150.455 212.186C150.203 212.414 149.905 212.686 149.56 213.004C149.185 213.363 148.68 213.91 148.044 214.645C147.437 215.338 146.746 216.174 145.97 217.152C144.507 218.985 142.847 221.145 140.989 223.633C139.173 226.149 137.342 228.687 135.497 231.246C133.984 233.416 132.551 235.517 131.197 237.549C129.842 239.582 128.683 241.378 127.719 242.939C127.121 243.886 126.552 244.792 126.012 245.655C125.437 246.526 125.044 247.089 124.834 247.346C124.298 248.026 123.755 248.361 123.204 248.349C122.625 248.38 122.148 248.063 121.774 247.399C121.502 246.899 121.742 245.175 122.495 242.227C123.247 239.28 124.401 235.511 125.957 230.921C126.707 228.778 127.331 226.748 127.829 224.832C128.357 222.874 128.646 221.525 128.696 220.785C128.687 220.531 128.659 220.372 128.611 220.307C128.592 220.201 128.512 220.161 128.37 220.186C128.016 220.249 127.162 221.096 125.809 222.726C124.42 224.363 122.807 226.478 120.968 229.072C119.74 230.789 118.753 232.116 118.006 233.053C117.296 233.984 116.852 234.466 116.675 234.497C116.356 234.554 116.009 234.452 115.633 234.19C115.293 233.922 115.091 233.611 115.028 233.256C114.961 233.086 115.23 232.544 115.834 231.633C116.403 230.727 117.375 229.311 118.748 227.385C121.343 223.706 123.38 221.095 124.858 219.552C126.301 218.016 127.572 217.149 128.67 216.953C129.378 216.827 129.968 216.959 130.44 217.35C130.947 217.734 131.273 218.334 131.418 219.148C131.614 220.246 131.439 221.922 130.891 224.175C130.385 226.458 129.483 229.488 128.184 233.264C127.606 234.938 127.132 236.375 126.761 237.574C126.362 238.815 126.174 239.506 126.2 239.648C126.206 239.683 126.5 239.283 127.082 238.449C127.693 237.572 128.402 236.532 129.21 235.328C130.257 233.826 131.73 231.736 133.627 229.058C135.524 226.381 137.386 223.819 139.215 221.373C140.188 220.067 141.088 218.865 141.915 217.767C142.742 216.669 143.423 215.78 143.96 215.1C146.198 212.288 148.001 210.414 149.368 209.475C149.99 209.072 150.567 208.823 151.098 208.728C151.736 208.614 152.322 208.728 152.859 209.071C153.199 209.339 153.423 209.573 153.532 209.773C153.641 209.973 153.746 210.356 153.847 210.923C153.98 211.666 154.004 212.521 153.921 213.485C153.837 214.45 153.579 215.867 153.145 217.735C152.885 218.731 152.585 219.918 152.246 221.294C151.865 222.641 151.419 224.237 150.908 226.082C149.171 232.312 148.029 237.174 147.484 240.67C146.981 244.195 146.948 247.179 147.384 249.622C147.529 250.436 147.592 250.992 147.572 251.288C147.545 251.548 147.43 251.824 147.226 252.117C146.971 252.528 146.772 252.746 146.631 252.771C146.595 252.777 146.578 252.781 146.578 252.781C146.401 252.812 146.137 252.768 145.787 252.648ZM156.704 243.189C155.64 242.758 154.954 241.675 154.644 239.94C154.593 239.656 154.551 239.317 154.517 238.921C154.324 236.617 154.632 233.328 155.441 229.054C155.637 228.106 155.795 227.456 155.915 227.106C156.07 226.749 156.248 226.517 156.448 226.408C156.806 226.161 157.198 226.11 157.626 226.252C158.018 226.402 158.284 226.665 158.425 227.042C158.492 227.212 158.49 227.615 158.421 228.248C158.351 228.882 158.251 229.649 158.119 230.549C157.762 232.44 157.539 234.051 157.448 235.383C157.315 236.685 157.298 237.821 157.398 238.79C157.47 239.398 157.54 239.788 157.607 239.958C157.68 240.165 157.788 240.255 157.929 240.23C158.148 240.227 158.589 239.728 159.252 238.733C159.95 237.731 160.664 236.617 161.395 235.39C161.784 234.7 162.16 234.048 162.526 233.435C162.885 232.786 163.201 232.2 163.473 231.676C163.877 230.873 164.262 230.165 164.628 229.551C164.993 228.938 165.208 228.607 165.273 228.559C165.843 228.275 166.367 228.345 166.845 228.772C167.108 229.017 167.265 229.281 167.316 229.565C167.36 229.813 167.351 230.07 167.289 230.337C167.163 230.652 166.941 231.148 166.624 231.826C166.335 232.462 165.971 233.185 165.531 233.994C164.941 235.196 164.299 236.407 163.603 237.627C162.908 238.847 162.35 239.714 161.93 240.228C160.916 241.505 159.977 242.385 159.113 242.869C158.749 243.08 158.39 243.217 158.036 243.28C157.575 243.362 157.131 243.332 156.704 243.189ZM157.18 223.756C156.798 223.459 156.608 223.109 156.609 222.707C156.646 222.298 156.872 221.929 157.288 221.599C157.482 221.455 157.667 221.367 157.844 221.335C158.092 221.291 158.335 221.321 158.572 221.425C159.048 221.632 159.333 222.001 159.428 222.532C159.523 223.064 159.288 223.489 158.724 223.809C158.16 224.129 157.645 224.111 157.18 223.756ZM166.396 238.225C165.772 238.007 165.332 237.483 165.074 236.652C164.994 236.41 164.929 236.148 164.878 235.865C164.752 235.156 164.706 234.288 164.742 233.258C164.753 232.708 164.792 232.007 164.859 231.154C164.968 230.331 165.085 229.451 165.21 228.516C165.407 227.165 165.617 225.885 165.84 224.676C166.033 223.509 166.188 222.842 166.305 222.675C166.537 222.341 166.831 222.142 167.185 222.079C167.362 222.047 167.545 222.051 167.735 222.09C168.34 222.202 168.696 222.558 168.803 223.16C168.822 223.266 168.797 223.636 168.727 224.27C168.658 224.904 168.559 225.579 168.431 226.296C168.149 227.991 167.935 229.655 167.788 231.289C167.6 232.894 167.56 233.796 167.669 233.996C167.717 234.061 167.88 233.849 168.158 233.361C168.472 232.866 168.816 232.238 169.192 231.477C170.934 228.133 172.31 225.713 173.322 224.217C174.305 222.762 175.216 221.832 176.057 221.426C176.834 221.068 177.547 221.069 178.195 221.428C178.809 221.794 179.201 222.455 179.371 223.411C179.409 223.623 179.442 224.111 179.468 224.873C179.495 225.636 179.492 226.44 179.461 227.286C179.433 228.972 179.461 230.155 179.546 230.834C179.624 231.477 179.77 231.78 179.982 231.742C180.301 231.685 180.913 231.12 181.817 230.045C182.715 228.934 183.527 227.857 184.254 226.814C184.423 226.528 184.583 226.299 184.734 226.125C184.88 225.917 185.011 225.729 185.127 225.562C185.711 224.946 186.258 224.94 186.768 225.543C187.037 225.824 187.201 226.123 187.257 226.442C187.308 226.725 187.267 227.007 187.134 227.286C185.52 229.913 184.199 231.72 183.169 232.708C182.14 233.696 181.405 234.284 180.963 234.472C180.451 234.673 180.068 234.778 179.814 234.787C179.601 234.825 179.317 234.766 178.96 234.611C178.028 234.302 177.396 233.629 177.065 232.592C176.698 231.562 176.537 229.946 176.583 227.745C176.598 227.012 176.594 226.373 176.57 225.829C176.552 225.321 176.501 225.038 176.418 224.979C176.293 224.892 175.902 225.364 175.245 226.395C174.595 227.461 173.785 228.958 172.813 230.885C171.217 234.02 169.964 236.107 169.054 237.147C168.476 237.798 167.903 238.175 167.337 238.276C167.018 238.333 166.704 238.316 166.396 238.225ZM195.881 218.873C196.463 219.061 196.766 219.427 196.79 219.971C196.843 220.473 196.728 221.773 196.445 223.87C196.159 225.748 195.948 227.43 195.811 228.916C195.716 230.431 195.719 231.472 195.821 232.038C195.96 232.817 196.488 232.504 197.407 231.097C198.325 229.691 199.574 227.275 201.155 223.851C201.553 223.012 201.829 222.506 201.98 222.333C202.132 222.16 202.424 222.053 202.855 222.012C203.286 221.972 203.672 222.086 204.012 222.354C204.227 222.535 204.357 222.749 204.401 222.997C204.42 223.103 204.421 223.213 204.405 223.325C204.401 223.509 204.177 224.097 203.733 225.089C203.289 226.082 202.781 227.123 202.208 228.212C201.832 228.973 201.465 229.678 201.106 230.327C200.753 231.011 200.449 231.559 200.193 231.97C199.171 233.614 198.203 234.737 197.287 235.339C196.9 235.627 196.53 235.803 196.175 235.866C195.68 235.955 195.191 235.878 194.709 235.635C194.542 235.519 194.348 235.352 194.127 235.136C193.899 234.884 193.731 234.659 193.622 234.459C193.35 233.959 193.142 233.101 192.998 231.885C192.895 230.697 192.882 229.494 192.956 228.275C193.016 227.789 193.049 227.363 193.057 226.996C193.064 226.629 193.065 226.428 193.059 226.393C193.023 226.399 192.883 226.534 192.637 226.797C192.392 227.06 192.121 227.382 191.824 227.764C190.809 229.042 189.836 230.038 188.904 230.752C188.014 231.496 187.232 231.928 186.559 232.048C186.382 232.079 186.157 232.046 185.884 231.949C185.611 231.852 185.328 231.701 185.036 231.498C184.577 231.178 184.293 230.918 184.184 230.718C184.13 230.618 184.087 230.48 184.055 230.303C184.024 230.125 184 229.892 183.985 229.602C183.917 228.811 184.081 227.886 184.476 226.829C184.837 225.778 185.352 224.773 186.021 223.813C186.974 222.4 187.983 221.398 189.046 220.806C190.068 220.185 191.142 219.957 192.267 220.121C192.795 220.21 193.126 220.224 193.262 220.163C193.403 220.138 193.608 219.955 193.876 219.615C194.086 219.358 194.291 219.175 194.491 219.066C194.684 218.922 194.87 218.834 195.047 218.803C195.188 218.777 195.333 218.77 195.481 218.78C195.594 218.796 195.727 218.827 195.881 218.873ZM190.926 223.046C190.42 223.283 189.977 223.563 189.596 223.887C189.258 224.24 188.855 224.75 188.39 225.418C187.902 226.163 187.536 226.776 187.293 227.258C187.086 227.733 187.005 228.095 187.049 228.343C187.087 228.555 187.354 228.416 187.851 227.926C188.348 227.435 189.075 226.593 190.031 225.399C190.777 224.462 191.242 223.794 191.427 223.395C191.612 222.997 191.548 222.844 191.236 222.936C191.2 222.943 191.147 222.952 191.076 222.965C191.041 222.971 190.991 222.998 190.926 223.046ZM225.636 236.635C224.279 236.402 223.14 235.856 222.22 234.997C221.305 234.174 220.738 233.143 220.516 231.903C220.301 230.699 220.476 229.225 221.042 227.48C221.601 225.699 222.444 223.977 223.572 222.314C224.241 221.354 224.737 220.754 225.06 220.514C225.417 220.267 225.816 220.251 226.257 220.464C226.809 220.694 227.056 221.052 226.996 221.538C226.908 222.065 226.451 222.987 225.627 224.304C223.741 227.454 223.013 229.923 223.441 231.71C223.87 233.497 225.359 234.163 227.909 233.707C228.936 233.524 229.838 233.253 230.614 232.896C231.355 232.544 232.309 231.953 233.477 231.124C235.776 229.471 237.737 227.458 239.359 225.085C240.988 222.748 242.072 220.326 242.611 217.818C242.78 217.13 242.887 216.398 242.931 215.623C242.94 214.854 242.88 214.006 242.751 213.079C242.584 211.94 242.248 210.977 241.742 210.19C241.236 209.403 240.566 208.719 239.731 208.137C238.02 206.945 235.624 206.624 232.543 207.174C229.462 207.724 226.444 209.03 223.487 211.093C223.129 211.34 222.592 211.71 221.876 212.203C221.778 212.878 221.63 213.891 221.432 215.242C221.324 216.065 221.129 217.434 220.85 219.347C220.606 221.254 220.359 223.144 220.108 225.015C219.887 226.845 219.669 228.492 219.456 229.955C219.242 231.418 219.116 232.245 219.076 232.435C218.927 232.827 218.706 233.122 218.412 233.321C218.113 233.484 217.788 233.505 217.437 233.385C216.897 233.226 216.583 232.898 216.494 232.402C216.412 231.942 216.503 230.811 216.766 229.01C216.891 228.075 217.079 226.671 217.329 224.799C217.58 222.927 217.807 221.133 218.012 219.415C218.625 214.665 219.18 210.711 219.676 207.553C220.171 204.395 220.503 202.673 220.672 202.388C220.898 202.018 221.248 201.828 221.721 201.817C222.223 201.763 222.597 201.916 222.844 202.274C223.001 202.538 223.093 202.85 223.121 203.211C223.107 203.542 223.018 204.271 222.853 205.396C222.755 206.072 222.679 206.67 222.626 207.191C222.572 207.712 222.567 207.987 222.609 208.016C222.734 208.103 223.148 207.865 223.851 207.301C224.548 206.701 225.232 206.031 225.904 205.29C227.253 203.843 228.358 202.257 229.22 200.532C230.11 198.765 230.557 197.279 230.561 196.072C230.537 195.529 230.355 195.123 230.014 194.854C229.668 194.551 229.247 194.443 228.751 194.532C227.83 194.696 226.719 195.224 225.416 196.114C224.084 197.046 222.805 198.17 221.578 199.485C220.632 200.531 219.531 201.934 218.274 203.693C217.052 205.446 216.059 207.048 215.295 208.5C214.745 209.512 214.365 210.146 214.155 210.403C213.916 210.701 213.637 210.879 213.319 210.936C212.504 211.081 212.026 210.856 211.883 210.26C211.876 210.225 211.87 210.189 211.864 210.154C211.756 209.552 211.971 208.71 212.509 207.627C212.729 207.222 213.025 206.731 213.397 206.153C213.733 205.582 214.098 204.968 214.493 204.313C215.272 203.151 216.086 201.982 216.936 200.807C217.822 199.626 218.553 198.71 219.131 198.059C221.572 195.357 223.872 193.503 226.031 192.496C226.772 192.145 227.479 191.909 228.152 191.789C229.426 191.561 230.537 191.746 231.485 192.345C232.67 193.047 233.28 194.216 233.317 195.854C233.389 197.486 232.883 199.458 231.798 201.771C231.578 202.176 231.361 202.598 231.147 203.038C230.927 203.443 230.756 203.711 230.633 203.843C230.517 204.009 230.415 204.156 230.327 204.281C230.282 204.435 230.262 204.53 230.269 204.565C230.281 204.636 230.503 204.651 230.935 204.611C231.366 204.57 231.9 204.493 232.538 204.379C233.706 204.171 234.823 204.081 235.888 204.11C236.911 204.11 237.847 204.235 238.695 204.486C239.319 204.703 240.042 205.067 240.864 205.578C241.727 206.118 242.387 206.64 242.842 207.143C244.112 208.524 244.956 210.383 245.373 212.721C245.392 212.827 245.414 212.951 245.439 213.092C245.847 215.577 245.659 218.004 244.876 220.373C243.986 223.163 242.444 225.887 240.251 228.544C238.1 231.23 235.679 233.325 232.987 234.829C232.03 235.402 230.764 235.883 229.189 236.274C228.735 236.392 228.314 236.485 227.924 236.555C226.968 236.726 226.205 236.752 225.636 236.635ZM258.081 207.765C258.663 207.954 258.966 208.32 258.99 208.864C259.043 209.366 258.928 210.665 258.644 212.762C258.359 214.64 258.147 216.322 258.011 217.808C257.916 219.323 257.919 220.364 258.02 220.931C258.16 221.71 258.688 221.396 259.606 219.99C260.524 218.584 261.774 216.168 263.355 212.743C263.753 211.905 264.028 211.399 264.18 211.226C264.332 211.052 264.623 210.946 265.055 210.905C265.486 210.865 265.872 210.978 266.212 211.246C266.427 211.427 266.556 211.642 266.601 211.89C266.62 211.996 266.621 212.105 266.604 212.218C266.601 212.401 266.377 212.989 265.933 213.982C265.489 214.975 264.981 216.016 264.408 217.105C264.032 217.866 263.665 218.571 263.306 219.22C262.953 219.904 262.649 220.452 262.393 220.863C261.371 222.507 260.402 223.63 259.487 224.232C259.1 224.52 258.729 224.696 258.375 224.759C257.879 224.848 257.391 224.77 256.909 224.528C256.742 224.411 256.548 224.245 256.326 224.029C256.099 223.777 255.931 223.551 255.822 223.351C255.55 222.852 255.342 221.994 255.198 220.777C255.095 219.59 255.081 218.386 255.156 217.167C255.215 216.682 255.249 216.255 255.256 215.889C255.264 215.522 255.265 215.321 255.258 215.285C255.223 215.292 255.083 215.426 254.837 215.689C254.592 215.952 254.321 216.275 254.023 216.657C253.009 217.934 252.036 218.93 251.104 219.645C250.213 220.388 249.432 220.82 248.759 220.94C248.582 220.972 248.357 220.939 248.084 220.842C247.811 220.744 247.528 220.594 247.236 220.39C246.777 220.07 246.493 219.81 246.384 219.611C246.33 219.511 246.287 219.372 246.255 219.195C246.223 219.018 246.2 218.785 246.185 218.495C246.117 217.703 246.28 216.779 246.676 215.722C247.037 214.671 247.551 213.665 248.22 212.705C249.174 211.293 250.182 210.29 251.246 209.699C252.268 209.078 253.342 208.849 254.467 209.014C254.995 209.102 255.326 209.116 255.461 209.055C255.603 209.03 255.808 208.847 256.076 208.507C256.286 208.25 256.491 208.068 256.691 207.959C256.884 207.815 257.069 207.727 257.246 207.695C257.388 207.67 257.533 207.662 257.681 207.673C257.793 207.689 257.927 207.72 258.081 207.765ZM253.126 211.939C252.62 212.175 252.177 212.456 251.796 212.779C251.457 213.132 251.055 213.643 250.59 214.31C250.102 215.055 249.736 215.669 249.493 216.15C249.286 216.626 249.204 216.988 249.249 217.235C249.286 217.448 249.554 217.309 250.051 216.818C250.548 216.327 251.275 215.485 252.231 214.291C252.977 213.354 253.442 212.686 253.627 212.288C253.811 211.89 253.748 211.737 253.435 211.829C253.4 211.835 253.347 211.845 253.276 211.857C253.24 211.864 253.191 211.891 253.126 211.939ZM264.611 224.687C263.885 224.305 263.405 223.459 263.171 222.149C263.07 221.582 263.023 220.914 263.032 220.145C263.027 217.662 263.543 213.696 264.58 208.249C264.898 206.548 265.196 205.454 265.474 204.965C265.752 204.477 266.158 204.295 266.692 204.419C267.344 204.595 267.703 204.969 267.769 205.542C267.829 206.08 267.644 207.501 267.215 209.807C266.797 211.964 266.47 213.923 266.236 215.682C266.002 217.441 265.945 218.346 266.064 218.398C266.106 218.427 266.209 218.19 266.375 217.685C266.541 217.18 266.744 216.578 266.984 215.877C267.859 212.798 268.801 210.09 269.808 207.754C270.781 205.424 271.785 203.473 272.819 201.9C273.905 200.208 274.894 198.99 275.784 198.246C276.394 197.772 276.943 197.473 277.433 197.349C277.716 197.298 277.991 197.304 278.258 197.366C279.058 197.552 279.599 198.022 279.88 198.775C279.947 198.946 279.999 199.138 280.037 199.35C280.157 200.023 280.137 200.83 279.977 201.773C279.81 202.679 279.627 203.297 279.43 203.624C279.204 203.993 278.896 204.213 278.506 204.282C277.904 204.39 277.453 204.215 277.152 203.757C276.857 203.335 276.791 202.762 276.955 202.038C277.192 201.119 277.008 201.006 276.401 201.699C275.787 202.356 275.029 203.533 274.126 205.229C273.408 206.527 272.71 208.04 272.032 209.769C271.36 211.533 270.62 213.73 269.81 216.359C269.001 218.988 268.358 220.912 267.881 222.13C267.404 223.348 266.958 224.122 266.542 224.452C266.197 224.769 265.9 224.95 265.652 224.994C265.652 224.994 265.634 224.997 265.599 225.004C265.345 225.013 265.015 224.907 264.611 224.687ZM290.376 201.998C290.958 202.187 291.261 202.553 291.285 203.097C291.338 203.599 291.223 204.898 290.939 206.995C290.654 208.873 290.442 210.555 290.306 212.041C290.211 213.556 290.214 214.597 290.315 215.164C290.454 215.943 290.983 215.629 291.901 214.223C292.819 212.816 294.069 210.401 295.65 206.976C296.048 206.138 296.323 205.632 296.475 205.459C296.627 205.285 296.918 205.178 297.35 205.138C297.781 205.097 298.167 205.211 298.507 205.479C298.722 205.66 298.851 205.875 298.896 206.122C298.915 206.229 298.916 206.338 298.899 206.451C298.896 206.634 298.672 207.222 298.228 208.215C297.784 209.208 297.276 210.249 296.703 211.337C296.327 212.099 295.96 212.804 295.6 213.453C295.248 214.137 294.943 214.684 294.688 215.095C293.666 216.74 292.697 217.863 291.782 218.465C291.395 218.753 291.024 218.929 290.67 218.992C290.174 219.08 289.686 219.003 289.204 218.761C289.037 218.644 288.843 218.478 288.621 218.262C288.394 218.01 288.225 217.784 288.117 217.584C287.845 217.085 287.637 216.227 287.493 215.01C287.39 213.823 287.376 212.619 287.451 211.4C287.51 210.914 287.544 210.488 287.551 210.121C287.559 209.755 287.56 209.554 287.553 209.518C287.518 209.525 287.377 209.659 287.132 209.922C286.887 210.185 286.616 210.508 286.318 210.89C285.304 212.167 284.331 213.163 283.399 213.878C282.508 214.621 281.727 215.053 281.054 215.173C280.877 215.205 280.652 215.172 280.379 215.075C280.106 214.977 279.823 214.827 279.531 214.623C279.072 214.303 278.788 214.043 278.679 213.843C278.625 213.744 278.582 213.605 278.55 213.428C278.518 213.251 278.495 213.018 278.48 212.728C278.412 211.936 278.575 211.012 278.971 209.955C279.332 208.904 279.846 207.898 280.515 206.938C281.469 205.526 282.477 204.523 283.541 203.931C284.563 203.311 285.637 203.082 286.762 203.247C287.29 203.335 287.621 203.349 287.756 203.288C287.898 203.263 288.103 203.08 288.371 202.74C288.581 202.483 288.786 202.301 288.986 202.192C289.179 202.048 289.364 201.96 289.541 201.928C289.683 201.903 289.828 201.895 289.976 201.905C290.088 201.922 290.222 201.953 290.376 201.998ZM285.421 206.172C284.915 206.408 284.472 206.688 284.091 207.012C283.752 207.365 283.35 207.875 282.885 208.543C282.397 209.288 282.031 209.901 281.788 210.383C281.581 210.859 281.499 211.221 281.544 211.468C281.581 211.681 281.849 211.542 282.346 211.051C282.843 210.56 283.57 209.718 284.526 208.524C285.272 207.587 285.737 206.919 285.922 206.521C286.106 206.123 286.043 205.97 285.73 206.062C285.695 206.068 285.642 206.078 285.571 206.09C285.535 206.097 285.486 206.124 285.421 206.172ZM297.594 214.796C296.971 214.578 296.53 214.054 296.272 213.223C296.192 212.982 296.127 212.719 296.077 212.436C295.95 211.728 295.905 210.859 295.94 209.829C295.951 209.279 295.991 208.578 296.058 207.725C296.166 206.902 296.283 206.023 296.409 205.087C296.606 203.736 296.816 202.456 297.038 201.247C297.232 200.08 297.387 199.413 297.503 199.246C297.736 198.912 298.029 198.713 298.383 198.65C298.56 198.618 298.744 198.622 298.934 198.661C299.538 198.773 299.894 199.129 300.002 199.731C300.021 199.838 299.995 200.208 299.926 200.841C299.856 201.475 299.757 202.15 299.63 202.867C299.348 204.562 299.133 206.226 298.987 207.86C298.798 209.465 298.758 210.367 298.867 210.567C298.915 210.632 299.078 210.42 299.357 209.932C299.67 209.437 300.015 208.809 300.39 208.048C302.132 204.704 303.509 202.284 304.52 200.788C305.503 199.334 306.415 198.403 307.256 197.997C308.032 197.64 308.745 197.64 309.394 197.999C310.007 198.365 310.399 199.026 310.57 199.982C310.608 200.194 310.64 200.682 310.667 201.444C310.693 202.207 310.691 203.011 310.659 203.857C310.631 205.543 310.66 206.726 310.744 207.405C310.823 208.049 310.968 208.351 311.181 208.313C311.499 208.257 312.111 207.691 313.015 206.616C313.913 205.505 314.726 204.428 315.453 203.385C315.621 203.099 315.781 202.87 315.933 202.696C316.078 202.488 316.209 202.3 316.325 202.133C316.91 201.517 317.457 201.511 317.966 202.114C318.236 202.395 318.399 202.694 318.456 203.013C318.506 203.296 318.465 203.578 318.333 203.857C316.719 206.484 315.397 208.291 314.368 209.279C313.338 210.267 312.603 210.855 312.162 211.043C311.649 211.244 311.266 211.349 311.012 211.358C310.799 211.396 310.515 211.337 310.158 211.182C309.226 210.873 308.594 210.2 308.263 209.163C307.896 208.133 307.736 206.517 307.781 204.316C307.796 203.583 307.792 202.944 307.768 202.4C307.75 201.892 307.7 201.609 307.616 201.551C307.491 201.463 307.1 201.935 306.444 202.966C305.794 204.032 304.983 205.529 304.012 207.456C302.416 210.591 301.163 212.679 300.252 213.718C299.674 214.369 299.102 214.746 298.535 214.847C298.216 214.904 297.903 214.887 297.594 214.796ZM324.665 194.505C325.063 194.69 325.372 194.781 325.591 194.778C325.851 194.805 326.155 194.769 326.503 194.67C326.844 194.536 327.11 194.489 327.3 194.528C327.483 194.532 327.724 194.653 328.023 194.892C328.315 195.096 328.525 195.35 328.652 195.656C328.78 195.962 328.957 196.644 329.182 197.7C329.245 198.054 329.314 198.443 329.39 198.868C329.466 199.293 329.552 199.771 329.646 200.302C329.788 201.3 329.918 202.337 330.037 203.411C330.25 205.42 330.404 207.512 330.5 209.687C330.596 211.862 330.606 213.76 330.53 215.382C330.298 220.831 329.45 225.294 327.989 228.771C326.485 232.219 324.392 234.62 321.711 235.976C321.106 236.267 320.204 236.537 319.006 236.788C318.794 236.826 318.599 236.861 318.422 236.892C317.501 237.057 316.816 237.106 316.365 237.04C315.394 236.921 314.477 236.592 313.613 236.052C312.749 235.512 312.103 234.86 311.674 234.096C311.3 233.432 311.049 232.746 310.923 232.038C310.752 231.082 310.776 230.091 310.995 229.065C311.387 227.168 312.362 225.057 313.92 222.733C315.258 220.813 316.955 218.957 319.01 217.165C321.03 215.379 323.203 213.84 325.53 212.548C325.994 212.282 326.423 212.023 326.816 211.77C327.209 211.517 327.435 211.349 327.493 211.265C327.552 211.182 327.596 210.918 327.626 210.474C327.65 209.995 327.65 209.483 327.626 208.939C327.608 208.431 327.557 207.837 327.472 207.158C327.429 206.508 327.38 205.823 327.324 205.102C327.168 203.814 327.027 202.615 326.901 201.505C326.747 200.436 326.643 199.852 326.588 199.752C326.547 199.723 326.385 199.843 326.105 200.113C325.824 200.382 325.503 200.732 325.141 201.162C323.368 203.305 321.732 204.785 320.233 205.601C318.741 206.452 317.5 206.564 316.511 205.936C316.136 205.675 315.876 205.447 315.732 205.254C315.623 205.054 315.521 204.688 315.426 204.157C315.275 203.307 315.347 202.381 315.643 201.378C315.968 200.333 316.508 199.268 317.264 198.183C317.992 197.14 318.775 196.306 319.613 195.681C320.451 195.056 321.342 194.623 322.286 194.382C322.428 194.356 322.569 194.331 322.711 194.306C322.782 194.293 322.852 194.28 322.923 194.268C322.959 194.262 322.994 194.255 323.03 194.249C323.348 194.192 323.62 194.18 323.845 194.213C324.07 194.246 324.344 194.343 324.665 194.505ZM318.479 201.913C318.348 202.411 318.27 202.791 318.243 203.051C318.217 203.312 318.274 203.429 318.416 203.404C318.451 203.398 318.584 203.319 318.812 203.169C319.035 202.983 319.311 202.787 319.64 202.583C320.249 202.108 320.925 201.494 321.668 200.741C322.439 199.945 323.078 199.228 323.585 198.589C323.818 198.255 323.957 198.011 324.003 197.857C324.048 197.703 324.002 197.547 323.864 197.388C323.762 197.224 323.637 197.137 323.489 197.127C323.299 197.087 323.116 197.084 322.938 197.115C322.195 197.248 321.365 197.817 320.448 198.821C319.489 199.796 318.833 200.827 318.479 201.913ZM324.741 216.416C321.33 218.596 318.571 221.153 316.464 224.087C314.351 226.986 313.478 229.462 313.844 231.516C313.945 232.083 314.054 232.484 314.169 232.719C314.284 232.954 314.487 233.173 314.78 233.377C315.335 233.826 315.891 234.074 316.447 234.121C316.974 234.209 317.731 234.147 318.716 233.935C319.347 233.785 319.883 233.617 320.325 233.428C320.731 233.246 321.177 232.984 321.664 232.641C322.789 231.782 323.799 230.579 324.691 229.031C325.543 227.454 326.205 225.636 326.678 223.579C326.733 223.277 326.809 222.879 326.903 222.387C326.963 221.902 327.037 221.395 327.125 220.868C327.267 219.82 327.391 218.774 327.497 217.732C327.597 216.655 327.662 215.894 327.693 215.45C327.69 215.231 327.679 215.069 327.66 214.963C327.641 214.856 327.579 214.813 327.472 214.832C327.325 214.821 327.036 214.946 326.607 215.205C326.214 215.458 325.592 215.862 324.741 216.416ZM339.706 199.547C339.647 200.033 339.63 200.346 339.655 200.488C339.716 200.623 339.82 200.696 339.968 200.706C340.264 200.727 340.905 200.429 341.892 199.815C342.878 199.2 343.739 198.498 344.475 197.709C345.205 196.884 345.826 196.372 346.338 196.17C346.809 195.94 347.206 196.016 347.53 196.396C347.709 196.583 347.812 196.748 347.837 196.889C347.869 197.066 347.853 197.288 347.791 197.555C347.73 197.822 347.564 198.126 347.296 198.466C347.035 198.841 346.705 199.247 346.308 199.684C345.566 200.438 344.661 201.202 343.593 201.977C342.555 202.711 341.553 203.237 340.587 203.556C340.168 203.667 339.543 203.852 338.712 204.11C338.58 204.389 338.342 204.797 337.999 205.333C337.339 206.547 336.669 207.398 335.988 207.885C335.595 208.138 335.203 208.299 334.814 208.368C334.46 208.432 334.093 208.424 333.714 208.346C332.717 208.085 331.997 207.227 331.555 205.771C331.504 205.488 331.454 205.205 331.403 204.922C331.163 203.576 331.162 201.932 331.399 199.989C331.475 199.391 331.561 198.846 331.655 198.354C331.792 197.891 331.922 197.594 332.044 197.462C332.138 197.373 332.298 197.143 332.524 196.774C332.751 196.404 332.956 196.021 333.141 195.622C333.354 195.182 333.595 194.792 333.863 194.452C334.132 194.112 334.366 193.887 334.565 193.778C334.694 193.682 334.827 193.604 334.962 193.543C335.097 193.482 335.236 193.439 335.377 193.414C335.513 193.353 335.633 193.314 335.74 193.295C336.873 193.092 337.848 193.539 338.665 194.636C339.578 195.861 339.925 197.498 339.706 199.547ZM335.567 199.081C335.873 199.976 336.153 200.419 336.407 200.41C336.662 200.402 336.801 199.956 336.827 199.075C336.877 198.335 336.817 197.688 336.645 197.134C336.466 196.545 336.256 196.29 336.015 196.37C335.773 196.449 335.6 196.809 335.495 197.449C335.384 198.054 335.408 198.597 335.567 199.081ZM334.228 204.472C334.287 205.009 334.409 205.28 334.592 205.284C334.734 205.259 334.958 204.981 335.265 204.451C335.492 204.082 335.596 203.844 335.577 203.738C335.558 203.632 335.417 203.456 335.153 203.21C334.938 203.03 334.751 202.899 334.59 202.818C334.423 202.701 334.307 202.667 334.243 202.715C334.143 202.77 334.101 202.942 334.116 203.231C334.096 203.527 334.133 203.941 334.228 204.472Z" fill="#F042AD"/>
</svg>
