<svg width="301" height="301" viewBox="0 0 301 301" fill="none" xmlns="http://www.w3.org/2000/svg">
<path fill-rule="evenodd" clip-rule="evenodd" d="M294.775 260.548C291.875 267.948 285.175 278.348 275.575 285.748C270.075 289.948 263.475 294.048 254.475 296.748C244.875 299.648 232.975 300.548 218.175 300.548H83.175C68.375 300.548 56.575 299.548 46.875 296.748C37.875 294.048 31.275 290.048 25.775 285.748C16.275 278.448 9.47505 267.948 6.57505 260.548C0.775049 245.648 0.675049 228.748 0.675049 218.048V83.0479C0.675049 72.3479 0.775049 55.4479 6.57505 40.5479C9.47505 33.1479 16.175 22.7479 25.775 15.3479C31.275 11.1479 37.875 7.04788 46.875 4.34788C56.575 1.54788 68.375 0.547882 83.175 0.547882H218.175C232.975 0.547882 244.775 1.54788 254.475 4.34788C263.475 7.04788 270.075 11.0479 275.575 15.3479C285.075 22.6479 291.875 33.1479 294.775 40.5479C300.675 55.4479 300.675 72.4479 300.675 83.0479V218.048C300.675 228.748 300.575 245.648 294.775 260.548Z" fill="url(#paint0_linear_1_33)"/>
<path d="M176.375 181.648C175.975 178.048 174.775 175.448 172.375 173.048C167.875 168.348 159.975 165.248 150.675 165.248C141.375 165.248 133.475 168.248 128.975 173.048C126.675 175.548 125.375 178.048 124.975 181.648C124.175 188.648 124.675 194.648 125.475 204.348C126.275 213.548 127.775 225.848 129.675 238.248C131.075 247.148 132.175 251.948 133.175 255.348C134.875 260.948 140.975 265.748 150.675 265.748C160.375 265.748 166.575 260.848 168.175 255.348C169.175 251.948 170.275 247.148 171.675 238.248C173.575 225.748 175.075 213.548 175.875 204.348C176.775 194.648 177.175 188.648 176.375 181.648Z" fill="white"/>
<path d="M175.275 130.648C175.275 144.248 164.275 155.248 150.675 155.248C137.075 155.248 126.075 144.248 126.075 130.648C126.075 117.048 137.075 106.048 150.675 106.048C164.275 106.048 175.275 117.148 175.275 130.648Z" fill="white"/>
<path d="M150.375 33.7479C92.9751 33.9479 45.9751 80.5479 45.1751 137.948C44.5751 184.448 74.2751 224.248 115.775 238.848C116.775 239.248 117.775 238.348 117.675 237.348C117.175 233.748 116.575 230.148 116.175 226.548C115.975 225.248 115.175 224.248 114.075 223.648C81.2751 209.348 58.3751 176.448 58.7751 138.348C59.2751 88.3479 100.075 47.6479 149.975 47.2479C201.075 46.8479 242.775 88.2479 242.775 139.248C242.775 176.948 219.975 209.348 187.475 223.648C186.275 224.148 185.475 225.248 185.375 226.548C184.875 230.148 184.375 233.748 183.875 237.348C183.675 238.448 184.775 239.248 185.775 238.848C226.875 224.448 256.375 185.248 256.375 139.248C256.175 81.0479 208.675 33.6479 150.375 33.7479Z" fill="white"/>
<path d="M147.975 68.7479C110.575 70.1479 80.5751 101.048 80.0751 138.448C79.7751 163.048 92.0751 184.848 110.975 197.748C111.875 198.348 113.175 197.648 113.175 196.548C112.875 192.248 112.875 188.448 113.075 184.448C113.175 183.148 112.675 181.948 111.675 181.048C100.175 170.248 93.1751 154.848 93.5751 137.848C94.3751 107.848 118.475 83.4479 148.475 82.2479C181.075 80.9479 207.875 107.148 207.875 139.348C207.875 155.748 200.875 170.548 189.775 181.048C188.875 181.948 188.375 183.148 188.375 184.448C188.575 188.348 188.475 192.148 188.275 196.448C188.175 197.548 189.475 198.348 190.475 197.648C209.075 184.948 221.375 163.448 221.375 139.248C221.475 99.4479 188.175 67.1479 147.975 68.7479Z" fill="white"/>
<defs>
<linearGradient id="paint0_linear_1_33" x1="150.675" y1="0.547882" x2="150.675" y2="300.548" gradientUnits="userSpaceOnUse">
<stop stop-color="#F452FF"/>
<stop offset="1" stop-color="#832BC1"/>
</linearGradient>
</defs>
</svg>
