<svg width="254" height="62" viewBox="0 0 254 62" fill="none" xmlns="http://www.w3.org/2000/svg">
<g clip-path="url(#clip0_2218_3147)">
<path fill-rule="evenodd" clip-rule="evenodd" d="M50.2751 45.4208C49.9003 46.3726 49.0353 47.7128 47.8088 48.6567C47.1006 49.2019 46.2552 49.7231 45.0939 50.067C43.856 50.4338 42.3312 50.5577 40.4334 50.5577H23.0811C21.1834 50.5577 19.6587 50.4338 18.4206 50.067C17.2593 49.7231 16.414 49.2019 15.7057 48.6567C14.4793 47.7126 13.6142 46.3726 13.2394 45.4208C12.4843 43.5032 12.4767 41.3274 12.4767 39.9571V22.6104C12.4767 21.2401 12.4843 19.0643 13.2394 17.1466C13.6142 16.1948 14.4791 14.8547 15.7057 13.9107C16.4138 13.3655 17.2593 12.8444 18.4206 12.5004C19.6585 12.1337 21.1833 12.0098 23.0811 12.0098H40.4336C42.3312 12.0098 43.856 12.1337 45.094 12.5004C46.2553 12.8444 47.1006 13.3657 47.8089 13.9107C49.0353 14.8549 49.9004 16.1948 50.2753 17.1466C51.0303 19.0643 51.038 21.2401 51.038 22.6104V39.9571C51.0378 41.3272 51.0301 43.503 50.2751 45.4208Z" fill="url(#paint0_linear_2218_3147)"/>
<path d="M34.554 34.1675C33.9753 33.5571 32.959 33.1659 31.7592 33.1659C30.5593 33.1659 29.543 33.5571 28.9644 34.1675C28.6625 34.486 28.5028 34.8124 28.4525 35.2775C28.3551 36.1781 28.4098 36.9536 28.5154 38.1934C28.6159 39.3748 28.8068 40.9502 29.056 42.5548C29.2333 43.6967 29.3774 44.313 29.5085 44.7543C29.7212 45.4696 30.5161 46.0951 31.7592 46.0951C33.0022 46.0951 33.7971 45.4694 34.0098 44.7543C34.141 44.313 34.285 43.6967 34.4623 42.5548C34.7115 40.9502 34.9024 39.3748 35.003 38.1934C35.1086 36.9534 35.1633 36.178 35.0658 35.2775C35.0155 34.8126 34.8559 34.486 34.554 34.1675ZM28.6064 28.7333C28.6064 30.4755 30.0193 31.888 31.7621 31.888C33.5052 31.888 34.9181 30.4755 34.9181 28.7333C34.9181 26.9908 33.5052 25.5784 31.7621 25.5784C30.0193 25.5784 28.6064 26.9908 28.6064 28.7333ZM31.7231 16.2833C24.3423 16.3042 18.2945 22.29 18.2032 29.6677C18.129 35.6442 21.9454 40.7566 27.2745 42.6305C27.4039 42.676 27.5352 42.5686 27.5148 42.433C27.4449 41.969 27.379 41.5026 27.3185 41.0441C27.2971 40.8821 27.1938 40.7424 27.0441 40.6769C22.832 38.8374 19.8907 34.6145 19.9379 29.7229C19.9999 23.3035 25.2436 18.0701 31.6651 18.0182C38.23 17.9652 43.5876 23.2883 43.5876 29.8388C43.5876 34.6814 40.6592 38.8526 36.4799 40.6774C36.3302 40.7428 36.2275 40.883 36.2062 41.0449C36.1457 41.5033 36.0798 41.9694 36.0101 42.433C35.9896 42.5686 36.1209 42.676 36.2502 42.6306C41.5284 40.7747 45.3226 35.7418 45.3226 29.839C45.3223 22.3511 39.2181 16.2618 31.7231 16.2833ZM31.478 22.5021C35.6621 22.3402 39.1174 25.6957 39.1174 29.843C39.1174 31.9521 38.2236 33.8563 36.7949 35.1974C36.6736 35.3111 36.6085 35.4725 36.6179 35.6384C36.6464 36.1429 36.6359 36.6331 36.6024 37.1867C36.5933 37.3343 36.7588 37.4285 36.881 37.3453C39.2768 35.7086 40.8526 32.9565 40.8526 29.843C40.8526 24.7165 36.5811 20.5685 31.4092 20.7689C26.6029 20.9552 22.7468 24.9166 22.6852 29.7247C22.6447 32.8869 24.2302 35.6884 26.6568 37.3456C26.7786 37.4288 26.9437 37.3344 26.9346 37.1871C26.9009 36.6331 26.8907 36.1429 26.919 35.6384C26.9284 35.4727 26.8634 35.3112 26.7425 35.1977C25.2692 33.815 24.3644 31.8334 24.422 29.6458C24.5235 25.7961 27.6284 22.6512 31.478 22.5021Z" fill="white"/>
<path d="M71.792 43.2679H64.5383L62.7964 48.4096H59.724L66.5946 29.3848H69.7867L76.6572 48.4096H73.5324L71.792 43.2679ZM65.2895 40.8951H71.0393L68.2049 32.5488H68.1255L65.2895 40.8951Z" fill="black"/>
<path d="M91.4951 41.4751C91.4951 45.7852 89.1874 48.5543 85.7051 48.5543C83.7282 48.5543 82.1582 47.6702 81.3398 46.1277H81.2739V52.9975H78.426V34.5396H81.1825V36.8465H81.2349C82.0266 35.358 83.7147 34.3945 85.6527 34.3945C89.1739 34.3945 91.4951 37.1771 91.4951 41.4751ZM88.5678 41.4751C88.5678 38.6671 87.1162 36.821 84.9013 36.821C82.7254 36.821 81.2618 38.706 81.2618 41.4751C81.2618 44.2697 82.7254 46.1412 84.9013 46.1412C87.1163 46.1412 88.5678 44.3087 88.5678 41.4751Z" fill="black"/>
<path d="M106.766 41.4751C106.766 45.7852 104.458 48.5543 100.976 48.5543C98.9989 48.5543 97.429 47.6702 96.6104 46.1277H96.5445V52.9975H93.6966V34.5396H96.4532V36.8465H96.5056C97.2972 35.358 98.9854 34.3945 100.923 34.3945C104.445 34.3945 106.766 37.1771 106.766 41.4751ZM103.839 41.4751C103.839 38.6671 102.387 36.821 100.172 36.821C97.9962 36.821 96.5325 38.706 96.5325 41.4751C96.5325 44.2697 97.9962 46.1412 100.172 46.1412C102.387 46.1412 103.839 44.3087 103.839 41.4751Z" fill="black"/>
<path d="M109.072 29.3848H111.921V48.4096H109.072V29.3848Z" fill="black"/>
<path d="M126.749 44.3356C126.366 46.8534 123.913 48.5813 120.775 48.5813C116.739 48.5813 114.233 45.8781 114.233 41.541C114.233 37.1906 116.752 34.3691 120.655 34.3691C124.494 34.3691 126.907 37.0051 126.907 41.2104V42.1858H117.108V42.3578C117.108 44.7305 118.599 46.2865 120.841 46.2865C122.422 46.2865 123.663 45.5355 124.045 44.3357L126.749 44.3356ZM117.122 40.1961H124.058C123.992 38.0733 122.633 36.6759 120.655 36.6759C118.69 36.6759 117.267 38.1002 117.122 40.1961Z" fill="black"/>
<path d="M142.076 29.3848C145.768 29.3848 148.341 31.9295 148.341 35.6352C148.341 39.3529 145.716 41.9095 141.984 41.9095H137.895V48.4098H134.941V29.3848H142.076ZM137.895 39.4321H141.285C143.856 39.4321 145.319 38.0468 145.319 35.6487C145.319 33.2491 143.856 31.8764 141.298 31.8764H137.895V39.4321Z" fill="black"/>
<path d="M149.381 41.4753C149.381 37.1114 151.952 34.3691 155.961 34.3691C159.984 34.3691 162.543 37.1113 162.543 41.4753C162.543 45.8511 159.997 48.5815 155.961 48.5815C151.926 48.5815 149.381 45.8513 149.381 41.4753ZM159.641 41.4753C159.641 38.4818 158.269 36.715 155.961 36.715C153.653 36.715 152.281 38.4952 152.281 41.4753C152.281 44.4808 153.653 46.2341 155.961 46.2341C158.269 46.2341 159.641 44.4809 159.641 41.4753Z" fill="black"/>
<path d="M164.542 41.4757C164.542 37.191 166.902 34.3949 170.344 34.3949C172.336 34.3949 173.906 35.3179 174.696 36.8469H174.75V29.3848H177.611V48.4096H174.841V46.0505H174.789C173.972 47.6317 172.389 48.5549 170.371 48.5549C166.902 48.5549 164.542 45.7603 164.542 41.4757ZM167.456 41.4757C167.456 44.3226 168.908 46.1418 171.122 46.1418C173.312 46.1418 174.776 44.2956 174.776 41.4757C174.776 38.6796 173.312 36.8215 171.122 36.8215C168.908 36.8217 167.456 38.6542 167.456 41.4757Z" fill="black"/>
<path d="M189.73 39.3119C189.48 37.8488 188.333 36.7553 186.46 36.7553C184.271 36.7553 182.819 38.5879 182.819 41.4753C182.819 44.4284 184.284 46.2073 186.486 46.2073C188.253 46.2073 189.415 45.3246 189.73 43.7164H192.473C192.158 46.6292 189.823 48.5815 186.46 48.5815C182.504 48.5815 179.919 45.8782 179.919 41.4753C179.919 37.1637 182.503 34.3691 186.433 34.3691C189.994 34.3691 192.21 36.6102 192.448 39.3121L189.73 39.3119Z" fill="black"/>
<path d="M194.218 44.4675C194.218 42.0424 196.077 40.5777 199.374 40.3803L203.172 40.1693V39.1146C203.172 37.5723 202.158 36.7015 200.431 36.7015C198.847 36.7015 197.74 37.454 197.515 38.6538H194.852C194.931 36.148 197.264 34.3691 200.508 34.3691C203.819 34.3691 206.008 36.1748 206.008 38.9037V48.4094H203.279V46.1279H203.213C202.408 47.6703 200.654 48.6472 198.834 48.6472C196.118 48.6473 194.218 46.9598 194.218 44.4675ZM203.172 43.2153V42.1471L199.757 42.358C198.056 42.4642 197.093 43.2018 197.093 44.3881C197.093 45.6014 198.096 46.3928 199.626 46.3928C201.617 46.3928 203.172 45.021 203.172 43.2153Z" fill="black"/>
<path d="M213.958 34.3828C217.032 34.3828 219.233 36.0823 219.299 38.5343H216.621C216.503 37.3091 215.462 36.5582 213.878 36.5582C212.335 36.5582 211.307 37.2688 211.307 38.3504C211.307 39.1807 211.993 39.7342 213.431 40.0902L215.765 40.6317C218.561 41.3035 219.616 42.3312 219.616 44.3627C219.616 46.8671 217.243 48.5815 213.853 48.5815C210.581 48.5815 208.38 46.9059 208.169 44.3747H210.99C211.189 45.7061 212.256 46.4183 213.985 46.4183C215.686 46.4183 216.755 45.7195 216.755 44.6126C216.755 43.7553 216.226 43.2945 214.776 42.925L212.296 42.3191C209.79 41.7117 208.524 40.4327 208.524 38.5088C208.524 36.0568 210.727 34.3828 213.958 34.3828Z" fill="black"/>
<path d="M225.804 31.2578V34.5409H228.443V36.7954H225.804V44.4416C225.804 45.6295 226.333 46.1829 227.493 46.1829C227.783 46.1829 228.245 46.1425 228.429 46.1171V48.3581C228.113 48.4375 227.481 48.4897 226.847 48.4897C224.039 48.4897 222.943 47.435 222.943 44.7452V36.7953H220.926V34.5409H222.943V31.2578H225.804Z" fill="black"/>
<path d="M236.1 34.3828C239.174 34.3828 241.376 36.0823 241.442 38.5343H238.764C238.646 37.3091 237.605 36.5582 236.021 36.5582C234.478 36.5582 233.45 37.2688 233.45 38.3504C233.45 39.1807 234.136 39.7342 235.574 40.0902L237.908 40.6317C240.704 41.3035 241.759 42.3312 241.759 44.3627C241.759 46.8671 239.385 48.5815 235.996 48.5815C232.724 48.5815 230.523 46.9059 230.312 44.3747H233.133C233.332 45.7061 234.399 46.4183 236.127 46.4183C237.829 46.4183 238.897 45.7195 238.897 44.6126C238.897 43.7553 238.369 43.2945 236.919 42.925L234.439 42.3191C231.933 41.7117 230.666 40.4327 230.666 38.5088C230.666 36.0568 232.869 34.3828 236.1 34.3828Z" fill="black"/>
<path d="M66.788 23.1056H61.0847V13.9648H62.5042V21.8002H66.788V23.1056Z" fill="black"/>
<path d="M68.4382 14.1683C68.4382 13.6926 68.8122 13.332 69.3189 13.332C69.8263 13.332 70.1996 13.6926 70.1996 14.1683C70.1996 14.6366 69.8261 14.9979 69.3189 14.9979C68.8122 14.9979 68.4382 14.6365 68.4382 14.1683ZM68.6409 16.2081H69.9968V23.1062H68.6409V16.2081Z" fill="black"/>
<path d="M74.7153 16.0762C76.268 16.0762 77.2819 16.798 77.4143 18.0142H76.1092C75.982 17.5078 75.4881 17.1847 74.7152 17.1847C73.9541 17.1847 73.3779 17.5453 73.3779 18.0838C73.3779 18.4959 73.7266 18.7555 74.4741 18.9268L75.6211 19.1923C76.9329 19.4967 77.5471 20.0607 77.5471 21.0742C77.5471 22.3729 76.3371 23.2405 74.6896 23.2405C73.0479 23.2405 71.9771 22.4992 71.8567 21.2771H73.2193C73.3907 21.809 73.8973 22.138 74.7211 22.138C75.5704 22.138 76.1728 21.7581 76.1728 21.2068C76.1728 20.7953 75.8496 20.529 75.1582 20.3645L73.9543 20.0855C72.6425 19.7752 72.0343 19.1864 72.0343 18.1602C72.0343 16.9371 73.1559 16.0762 74.7153 16.0762Z" fill="black"/>
<path d="M81.1748 14.4902V16.2391H82.6698V17.3857H81.1748V20.9328C81.1748 21.6554 81.4725 21.9717 82.1505 21.9717C82.3592 21.9717 82.4796 21.959 82.6698 21.9403V23.0742C82.4484 23.1116 82.1946 23.1438 81.9283 23.1438C80.4137 23.1438 79.8121 22.6111 79.8121 21.2813V17.3856H78.7159V16.2389H79.8121V14.4902H81.1748Z" fill="black"/>
<path d="M90.2274 21.2449C89.9169 22.4806 88.8139 23.2405 87.2365 23.2405C85.2589 23.2405 84.0489 21.8851 84.0489 19.68C84.0489 17.4756 85.2843 16.0762 87.2298 16.0762C89.1498 16.0762 90.3097 17.3875 90.3097 19.5537V20.0287H85.4362V20.105C85.4811 21.3146 86.1845 22.0812 87.2739 22.0812C88.0978 22.0812 88.662 21.7835 88.9156 21.2449H90.2274ZM85.4364 19.0218H88.9218C88.8903 17.9387 88.2311 17.2348 87.224 17.2348C86.2161 17.2348 85.5127 17.9447 85.4364 19.0218Z" fill="black"/>
<path d="M92.1371 16.2093H93.4489V17.3051H93.5506C93.8859 16.5384 94.5705 16.0762 95.6099 16.0762C97.1499 16.0762 97.9992 17.0007 97.9992 18.6418V23.1074H96.6365V18.9836C96.6365 17.8751 96.1545 17.3238 95.1474 17.3238C94.1395 17.3238 93.4997 17.9955 93.4997 19.0719V23.1074H92.1371V16.2093Z" fill="black"/>
<path d="M103.506 19.6554C103.506 17.4315 104.748 16.0762 106.764 16.0762C108.772 16.0762 110.014 17.4316 110.014 19.6554C110.014 21.8912 108.779 23.2405 106.764 23.2405C104.742 23.2405 103.506 21.8912 103.506 19.6554ZM108.614 19.6554C108.614 18.1601 107.942 17.2856 106.764 17.2856C105.578 17.2856 104.913 18.1601 104.913 19.6554C104.913 21.1626 105.578 22.0303 106.764 22.0303C107.942 22.0303 108.614 21.1567 108.614 19.6554Z" fill="black"/>
<path d="M111.841 16.2093H113.153V17.3051H113.255C113.591 16.5384 114.274 16.0762 115.314 16.0762C116.854 16.0762 117.703 17.0007 117.703 18.6418V23.1074H116.34V18.9836C116.34 17.8751 115.859 17.3238 114.851 17.3238C113.844 17.3238 113.204 17.9955 113.204 19.0719V23.1074H111.841V16.2093Z" fill="black"/>
</g>
<defs>
<linearGradient id="paint0_linear_2218_3147" x1="31.7573" y1="12.0098" x2="31.7573" y2="50.5577" gradientUnits="userSpaceOnUse">
<stop stop-color="#F452FF"/>
<stop offset="1" stop-color="#832BC1"/>
</linearGradient>
<clipPath id="clip0_2218_3147">
<rect width="252.634" height="61.2772" fill="white" transform="translate(0.957886 0.646484)"/>
</clipPath>
</defs>
</svg>
