<svg width="1440" height="475" viewBox="0 0 1440 475" fill="none" xmlns="http://www.w3.org/2000/svg">
<path d="M1698 1C1628.15 48.6806 1555.13 92.3544 1476.87 124.432C1451.5 134.833 1425.43 144.045 1398.32 148.166C1343.05 156.57 1286.99 143.446 1231.11 141.685C1160.13 139.446 1088.76 156.278 1025.93 189.295C978.664 214.14 925.482 250.177 872.01 259.221C823.433 267.437 771.177 222.736 728.16 205.295C684.099 187.433 634.819 183.628 588.287 192.817C563.909 197.631 540.199 206.009 518.337 217.84C497.431 229.157 479.218 250.218 454.434 233.665C446.242 228.194 440.578 219.763 433.538 212.871C409.07 188.921 366.281 187.049 339.816 208.773" stroke="#D5D5D5" stroke-width="0.387624" stroke-miterlimit="10"/>
<path d="M1694.92 2.49512C1626.66 50.8154 1554.39 94.9471 1476.56 126.907C1450.65 137.567 1424.03 146.5 1396.45 151.099C1363.16 156.604 1329.53 154.564 1295.79 151.661C1272.76 149.682 1249.68 147.298 1226.63 146.631C1181.08 145.318 1135.37 151.001 1091.79 162.971C1066.3 169.971 1041.56 179.126 1017.97 190.345C1001.4 198.187 984.172 207.271 966.502 216.117C941.65 228.521 915.916 240.44 889.767 248.073C880.38 250.824 870.942 253.023 861.494 254.467C822.437 260.413 781.063 235.231 743.847 216.706C733.87 211.716 724.193 207.204 714.931 203.898C676.86 190.184 635.341 186.743 595.155 192.716C588.236 193.743 581.354 195.049 574.529 196.632C550.192 202.271 526.501 211.383 504.447 223.625C491.387 230.878 479.272 241.672 465.945 245.083C457.74 247.184 449.113 246.447 439.517 240.447C431.133 235.204 425.15 227.103 417.847 220.447C392.5 197.305 349.368 195.265 322.143 216.709" stroke="#D5D5D5" stroke-width="0.387624" stroke-miterlimit="10"/>
<path d="M1691.84 3.9873C1625.17 52.9507 1553.65 97.537 1476.25 129.379C1449.79 140.302 1422.62 148.955 1394.56 154.026C1360.85 160.039 1326.72 158.571 1292.45 156.073C1269.05 154.369 1245.58 152.184 1222.14 151.571C1175.83 150.352 1129.36 155.541 1085.05 166.433C1059.15 172.8 1034 181.134 1010 191.39C993.106 198.538 975.591 206.848 957.661 214.902C932.419 226.181 906.331 236.942 879.714 243.875C870.176 246.38 860.583 248.39 850.967 249.71C811.141 255.128 768.963 231.161 731.07 214.127C720.935 209.528 711.097 205.447 701.693 202.504C663.103 190.43 621.486 188.44 581.355 195.821C574.449 197.087 567.58 198.636 560.765 200.447C536.466 206.912 512.795 216.757 490.553 229.414C477.374 236.915 465.054 247.764 451.478 251.343C443.111 253.548 434.34 252.922 424.596 247.232C416.013 242.218 409.717 234.451 402.151 228.026C375.929 205.693 332.447 203.484 304.467 224.646" stroke="#D5D5D5" stroke-width="0.387624" stroke-miterlimit="10"/>
<path d="M1688.76 5.47754C1623.68 55.0807 1552.9 100.128 1475.94 131.849C1448.94 143.031 1421.22 151.405 1392.69 156.954C1358.55 163.479 1323.92 162.58 1289.11 160.486C1265.34 159.061 1241.49 157.075 1217.66 156.509C1170.59 155.388 1123.35 160.078 1078.33 169.89C1052 175.627 1026.47 183.203 1002.04 192.429C984.833 198.927 967.011 206.415 948.829 213.681C923.192 223.836 896.758 233.439 869.673 239.668C859.986 241.927 850.232 243.749 840.454 244.948C799.858 249.837 756.837 227.187 718.305 211.54C708.002 207.355 698.019 203.665 688.466 201.099C649.385 190.6 607.641 190.126 567.57 198.917C560.674 200.425 553.819 202.21 547.017 204.254C522.758 211.543 499.108 222.123 476.676 235.193C463.38 242.944 450.858 253.847 437.03 257.594C428.501 259.907 419.585 259.396 409.689 254.005C400.908 249.224 394.299 241.783 386.47 235.591C359.369 214.065 315.544 211.685 286.803 232.57" stroke="#D5D5D5" stroke-width="0.387624" stroke-miterlimit="10"/>
<path d="M1685.68 6.97363C1622.18 57.2165 1552.16 102.722 1475.63 134.328C1448.09 145.773 1419.83 153.921 1390.81 159.887C1356.26 166.988 1321.11 166.595 1285.77 164.908C1261.64 163.76 1237.4 161.975 1213.17 161.46C1165.35 160.436 1117.35 164.632 1071.6 173.362C1044.85 178.467 1018.92 185.241 994.075 193.484C976.543 199.302 958.435 205.999 939.994 212.481C913.966 221.511 887.178 229.955 859.626 235.481C849.787 237.494 839.875 239.127 829.935 240.201C788.571 244.562 744.739 223.157 705.534 208.969C695.069 205.181 684.937 201.898 675.237 199.709C635.671 190.787 593.795 191.827 553.778 202.026C546.892 203.773 540.051 205.797 533.263 208.073C509.044 216.188 485.41 227.501 462.791 240.982C449.376 248.983 436.652 259.935 422.571 263.855C413.881 266.276 404.817 265.878 394.777 260.791C385.793 256.242 378.874 249.131 370.783 243.171C342.803 222.454 298.631 219.905 269.136 240.508" stroke="#D5D5D5" stroke-width="0.387624" stroke-miterlimit="10"/>
<path d="M1682.6 8.46484C1620.7 59.3508 1551.43 105.314 1475.33 136.799C1447.23 148.503 1418.43 156.385 1388.93 162.813C1353.95 170.436 1318.3 170.601 1282.43 169.318C1257.93 168.449 1233.3 166.864 1208.69 166.396C1160.1 165.47 1111.35 169.167 1064.87 176.82C1037.7 181.295 1011.37 187.261 986.112 194.524C968.257 199.658 949.873 205.615 931.159 211.261C904.758 219.231 877.593 226.386 849.582 231.275C839.589 233.019 829.525 234.487 819.417 235.437C777.282 239.268 732.645 219.107 692.763 206.382C682.14 202.992 671.853 200.116 662.005 198.305C621.957 190.948 579.947 193.514 539.983 205.123C533.111 207.113 526.283 209.372 519.502 211.881C495.323 220.824 471.707 232.871 448.898 246.763C435.366 255.013 422.437 266.019 408.107 270.107C399.255 272.636 390.043 272.353 379.857 267.568C370.672 263.252 363.443 256.47 355.09 250.743C326.234 230.834 281.715 228.117 251.459 248.44" stroke="#D5D5D5" stroke-width="0.387624" stroke-miterlimit="10"/>
<path d="M1679.52 9.95996C1619.2 61.4857 1550.69 107.907 1475.01 139.274C1446.38 151.241 1417.03 158.85 1387.05 165.746C1351.65 173.891 1315.49 174.611 1279.09 173.736C1254.21 173.143 1229.2 171.759 1204.21 171.342C1154.86 170.514 1105.34 173.716 1058.15 180.285C1030.55 184.127 1003.81 189.288 978.148 195.571C959.966 200.022 941.296 205.197 922.326 210.049C895.531 216.905 868.016 222.881 839.537 227.076C829.396 228.571 819.17 229.858 808.901 230.679C765.998 233.982 720.556 215.063 679.994 203.8C669.212 200.807 658.778 198.335 648.775 196.908C608.249 191.116 566.1 195.207 526.191 208.224C519.329 210.453 512.514 212.952 505.746 215.689C481.608 225.457 458.012 238.238 435.012 252.545C421.362 261.043 408.23 272.104 393.648 276.36C384.638 278.996 375.267 278.831 364.94 274.346C355.55 270.265 348.014 263.807 339.401 258.312C309.667 239.211 264.801 236.322 233.791 256.37" stroke="#D5D5D5" stroke-width="0.387624" stroke-miterlimit="10"/>
<path d="M1676.44 11.4512C1617.71 63.6166 1549.94 110.496 1474.7 141.745C1445.52 153.971 1415.62 161.308 1385.17 168.671C1349.34 177.335 1312.68 178.618 1275.75 178.146C1250.5 177.833 1225.11 176.648 1199.72 176.278C1149.61 175.547 1099.33 178.251 1051.41 183.742C1023.4 186.954 996.253 191.308 970.178 196.611C951.666 200.379 932.71 204.773 913.484 208.833C886.295 214.571 858.433 219.372 829.487 222.874C819.197 224.12 808.81 225.221 798.375 225.918C754.702 228.692 708.462 211.012 667.219 201.214C656.28 198.614 645.694 196.55 635.539 195.503C594.539 191.271 552.245 196.894 512.393 211.322C505.541 213.79 498.74 216.53 491.985 219.497C467.888 230.089 444.308 243.605 421.119 258.322C407.352 267.07 394.015 278.184 379.183 282.608C370.011 285.349 360.486 285.309 350.021 281.117C340.422 277.272 332.583 271.14 323.708 265.878C293.098 247.581 247.886 244.527 216.114 264.292" stroke="#D5D5D5" stroke-width="0.387624" stroke-miterlimit="10"/>
<path d="M1673.36 12.9424C1616.22 65.7509 1549.21 113.088 1474.4 144.22C1444.67 156.708 1414.23 163.769 1383.29 171.604C1347.04 180.782 1309.88 182.631 1272.41 182.567C1246.8 182.53 1221.02 181.547 1195.24 181.227C1144.37 180.594 1093.33 182.799 1044.69 187.213C1016.25 189.792 988.694 193.335 962.215 197.665C943.374 200.745 924.134 204.362 904.653 207.628C877.07 212.251 848.861 215.877 819.443 218.682C809.002 219.678 798.46 220.594 787.86 221.166C743.419 223.412 696.382 206.968 654.452 198.638C643.354 196.432 632.62 194.776 622.313 194.109C580.838 191.429 538.404 198.59 498.609 214.429C491.77 217.139 484.982 220.116 478.235 223.315C454.177 234.732 430.615 248.981 407.238 264.113C393.352 273.11 379.813 284.275 364.729 288.871C355.395 291.719 345.712 291.803 335.112 287.904C325.304 284.298 317.163 278.487 308.025 273.46C276.536 255.971 230.977 252.749 198.451 272.234" stroke="#D5D5D5" stroke-width="0.387624" stroke-miterlimit="10"/>
<path d="M1670.28 14.4385C1614.73 67.8868 1548.47 115.682 1474.08 146.696C1443.81 159.443 1412.82 166.231 1381.41 174.534C1344.73 184.228 1307.06 186.642 1269.07 186.982C1243.08 187.225 1216.91 186.437 1190.75 186.167C1139.13 185.632 1087.32 187.342 1037.96 190.672C1009.1 192.622 981.135 195.353 954.249 198.709C935.077 201.103 915.552 203.942 895.814 206.413C867.838 209.918 839.282 212.373 809.393 214.481C798.803 215.228 788.1 215.959 777.335 216.407C732.123 218.124 684.287 202.912 641.674 196.056C630.421 194.245 619.532 192.992 609.074 192.709C567.131 191.578 524.548 200.282 484.807 217.528C477.979 220.477 471.205 223.693 464.47 227.124C440.453 239.366 416.911 254.353 393.342 269.895C379.342 279.141 365.594 290.36 350.261 295.124C340.766 298.081 330.924 298.29 320.186 294.683C310.166 291.316 301.725 285.828 292.324 281.03C259.96 264.35 214.051 260.956 180.768 280.161" stroke="#D5D5D5" stroke-width="0.387624" stroke-miterlimit="10"/>
<path d="M1667.21 15.9297C1613.24 70.0177 1547.73 118.274 1473.78 149.167C1442.96 162.177 1411.43 168.689 1379.53 177.463C1342.43 187.672 1304.26 190.652 1265.73 191.396C1239.37 191.914 1212.82 191.329 1186.27 191.11C1133.88 190.672 1081.31 191.884 1031.23 194.137C1001.94 195.453 973.573 197.369 946.283 199.756C926.781 201.46 906.97 203.524 886.976 205.204C858.602 207.588 829.703 208.874 799.346 210.288C788.608 210.787 777.743 211.332 766.817 211.655C720.837 212.844 672.207 198.861 628.903 193.48C617.492 192.063 606.455 191.214 595.842 191.315C553.431 191.726 510.7 201.979 471.013 220.635C464.195 223.827 457.434 227.278 450.713 230.942C426.736 244.009 403.211 259.73 379.456 275.683C365.338 285.178 351.389 296.451 335.803 301.383C326.146 304.447 316.146 304.784 305.274 301.468C295.042 298.343 286.291 293.191 276.637 288.609C243.361 272.807 197.142 269.174 163.098 288.1" stroke="#D5D5D5" stroke-width="0.387624" stroke-miterlimit="10"/>
<path d="M1664.12 17.4209C1611.75 72.152 1546.99 120.863 1473.47 151.638C1442.1 164.907 1410.02 171.143 1377.65 180.389C1340.13 191.109 1301.45 194.658 1262.39 195.806C1235.66 196.604 1208.72 196.217 1181.78 196.045C1128.64 195.705 1075.3 196.419 1024.5 197.594C994.796 198.281 966.011 199.379 938.32 200.796C918.489 201.81 898.391 203.096 878.145 203.985C849.377 205.248 820.131 205.369 789.302 206.083C778.413 206.335 767.393 206.692 756.299 206.891C709.547 207.551 660.123 194.793 616.132 190.89C604.567 189.864 593.378 189.419 582.61 189.911C539.731 191.857 496.848 203.665 457.218 223.729C450.414 227.16 443.666 230.854 436.956 234.746C413.019 248.638 389.511 265.093 365.568 281.46C351.332 291.204 337.177 302.528 321.342 307.632C311.527 310.804 301.362 311.272 290.358 308.238C279.91 305.36 270.863 300.524 260.947 296.171C226.795 281.177 180.226 277.376 145.428 296.023" stroke="#D5D5D5" stroke-width="0.387624" stroke-miterlimit="10"/>
<path d="M1661.04 18.917C1610.25 74.2879 1546.24 123.46 1473.15 154.117C1441.25 167.649 1408.62 173.605 1375.77 183.326C1337.82 194.558 1298.64 198.673 1259.04 200.228C1231.95 201.302 1204.62 201.117 1177.29 200.996C1123.39 200.754 1069.3 200.972 1017.77 201.067C987.64 201.121 958.448 201.403 930.35 201.851C910.188 202.175 889.804 202.683 869.302 202.781C840.137 202.922 810.547 201.878 779.251 201.892C768.214 201.895 757.032 202.067 745.776 202.144C698.257 202.276 648.037 190.74 603.36 188.323C591.64 187.686 580.299 187.646 569.38 188.525C526.033 192.003 483.002 205.37 443.426 226.845C436.632 230.518 429.897 234.448 423.197 238.572C399.301 253.293 375.813 270.478 351.678 287.259C337.324 297.253 322.967 308.63 306.88 313.903C296.903 317.179 286.573 317.782 275.438 315.034C264.778 312.404 255.431 307.883 245.253 303.761C210.225 289.579 163.309 285.603 127.75 303.97" stroke="#D5D5D5" stroke-width="0.387624" stroke-miterlimit="10"/>
<path d="M1657.97 20.4072C1608.77 76.4178 1545.45 125.903 1472.85 156.587C1440.37 170.314 1407.22 176.055 1373.9 186.25C1335.52 197.991 1295.84 202.678 1255.71 204.641C1228.24 205.995 1200.53 206.008 1172.81 205.934C1118.15 205.789 1063.3 205.51 1011.04 204.523C980.496 203.948 950.893 203.406 922.391 202.89C901.899 202.52 881.229 202.251 860.475 201.564C830.912 200.584 800.982 198.375 769.211 197.688C758.026 197.446 746.682 197.429 735.261 197.382C686.971 196.985 635.961 186.668 590.593 185.735C578.718 185.49 567.226 185.853 556.152 187.119C512.337 192.126 469.158 207.055 429.639 229.938C422.855 233.85 416.134 238.019 409.447 242.376C385.592 257.921 362.12 275.841 337.797 293.033C323.325 303.275 308.763 314.706 292.426 320.147C282.288 323.531 271.796 324.269 260.53 321.804C249.654 319.423 240.011 315.215 229.573 311.326C193.671 297.955 146.404 293.807 110.091 311.895" stroke="#D5D5D5" stroke-width="0.387624" stroke-miterlimit="10"/>
<path d="M1654.89 21.8994C1607.28 78.5531 1544.71 128.493 1472.53 159.059C1439.51 173.046 1405.81 178.507 1372.01 189.177C1333.21 201.426 1293.03 206.686 1252.36 209.053C1224.53 210.682 1196.43 210.898 1168.33 210.874C1112.9 210.824 1057.29 210.053 1004.31 207.985C973.337 206.777 943.323 205.413 914.421 203.935C893.596 202.867 872.643 201.827 851.632 200.349C821.672 198.244 791.4 194.877 759.157 193.487C747.82 192.999 736.322 192.797 724.736 192.621C675.678 191.696 623.873 182.598 577.815 183.15C565.781 183.295 554.142 184.062 542.912 185.716C498.626 192.244 455.302 208.743 415.837 233.036C409.066 237.188 402.359 241.595 395.682 246.184C371.867 262.555 348.412 281.211 323.9 298.814C309.311 309.303 294.547 320.788 277.957 326.4C267.658 329.892 257.001 330.767 245.607 328.582C234.512 326.454 224.58 322.552 213.876 318.895C177.098 306.333 129.485 302.016 92.4102 319.821" stroke="#D5D5D5" stroke-width="0.387624" stroke-miterlimit="10"/>
<path d="M1651.81 23.3945C1605.78 80.688 1543.97 131.089 1472.23 161.534C1438.66 175.78 1404.41 180.962 1370.14 192.11C1330.91 204.868 1290.22 210.699 1249.03 213.47C1220.82 215.379 1192.34 215.794 1163.85 215.817C1107.67 215.864 1051.29 214.595 997.586 211.45C966.192 209.612 935.768 207.423 906.461 204.982C885.306 203.221 864.067 201.403 842.801 199.137C812.447 195.905 781.827 191.383 749.116 189.288C737.631 188.554 725.971 188.164 714.224 187.864C664.395 186.409 611.799 178.524 565.051 180.568C552.862 181.1 541.071 182.271 529.687 184.319C484.932 192.366 441.457 210.437 402.049 236.141C395.288 240.535 388.594 245.181 381.931 249.999C358.156 267.195 334.722 286.585 310.018 304.602C295.311 315.34 280.344 326.879 263.502 332.66C253.041 336.259 242.219 337.276 230.694 335.367C219.384 333.492 209.155 329.899 198.189 326.475C160.535 314.72 112.572 310.232 74.7432 327.761" stroke="#D5D5D5" stroke-width="0.387624" stroke-miterlimit="10"/>
<path d="M1648.73 24.8857C1604.29 82.8189 1543.29 133.823 1471.91 164.005C1437.83 178.581 1403 183.412 1368.26 195.035C1328.6 208.302 1287.41 214.706 1245.68 217.881C1217.11 220.066 1188.24 220.679 1159.36 220.756C1102.42 220.901 1045.28 219.133 990.856 214.908C959.037 212.436 928.205 209.423 898.491 206.022C877.006 203.561 855.481 200.972 833.962 197.921C803.211 193.564 772.248 187.884 739.066 185.086C727.433 184.106 715.611 183.527 703.698 183.103C653.102 181.119 599.711 174.446 552.273 177.985C539.929 178.907 527.983 180.48 516.451 182.917C471.225 192.48 427.605 212.126 388.251 239.238C381.504 243.871 374.82 248.756 368.167 253.807C344.433 271.827 321.015 291.952 296.122 310.38C281.297 321.366 266.126 332.959 249.038 338.909C238.418 342.612 227.428 343.774 215.775 342.138C204.25 340.518 193.731 337.208 182.495 334.04C143.986 323.016 95.656 318.437 57.0664 335.683" stroke="#D5D5D5" stroke-width="0.387624" stroke-miterlimit="10"/>
<path d="M1645.65 26.377C1602.8 84.9532 1542.55 136.415 1471.6 166.479C1436.97 181.314 1401.6 185.867 1366.38 197.968C1326.29 211.739 1284.61 218.715 1242.34 222.301C1213.4 224.766 1184.15 225.577 1154.87 225.702C1097.18 225.944 1039.27 223.682 984.125 218.375C951.886 215.274 920.643 211.433 890.525 207.072C868.71 203.914 846.902 200.547 825.124 196.712C793.979 191.227 762.669 184.392 729.019 180.89C717.238 179.665 705.258 178.897 693.18 178.348C641.813 175.836 587.627 170.368 539.505 175.405C527.004 176.715 514.909 178.688 503.222 181.52C457.521 192.594 413.76 213.82 374.46 242.342C367.723 247.217 361.056 252.339 354.413 257.618C330.719 276.463 307.321 297.322 282.237 316.164C267.294 327.4 251.92 339.043 234.58 345.164C223.799 348.976 212.644 350.282 200.863 348.919C189.122 347.558 178.307 344.548 166.808 341.612C127.424 331.397 78.7436 326.649 39.3965 343.616" stroke="#D5D5D5" stroke-width="0.387624" stroke-miterlimit="10"/>
<path d="M1642.57 27.873C1601.31 87.0891 1541.81 139.009 1471.3 168.955C1436.12 184.053 1400.2 188.319 1364.5 200.898C1323.99 215.174 1281.8 222.727 1239.01 226.717C1209.69 229.457 1180.06 230.471 1150.4 230.646C1091.94 230.986 1033.27 228.225 977.404 221.841C944.74 218.107 913.093 213.437 882.568 208.12C860.423 204.262 838.328 200.124 816.298 195.501C784.756 188.885 753.102 180.901 718.981 176.696C707.048 175.225 694.91 174.268 682.667 173.595C630.529 170.554 575.548 166.292 526.74 172.827C514.083 174.521 501.834 176.898 489.995 180.124C443.82 192.703 399.917 215.514 360.674 245.444C353.947 250.559 347.294 255.919 340.664 261.431C317.011 281.101 293.63 302.697 268.36 321.946C253.3 333.431 237.72 345.128 220.131 351.418C209.188 355.337 197.872 356.792 185.956 355.698C173.999 354.6 162.888 351.889 151.127 349.186C110.864 339.775 61.8401 334.859 21.7354 351.549" stroke="#D5D5D5" stroke-width="0.387624" stroke-miterlimit="10"/>
<path d="M1639.49 29.3633C1599.82 89.219 1541.07 141.597 1470.98 171.425C1435.26 186.782 1398.79 190.765 1362.62 203.826C1321.67 218.607 1278.99 226.735 1235.66 231.129C1205.98 234.15 1175.95 235.362 1145.9 235.584C1086.69 236.022 1027.26 232.766 970.667 225.298C937.583 220.934 905.525 215.432 874.595 209.16C852.124 204.601 829.74 199.688 807.453 194.284C775.517 186.54 743.517 177.405 708.927 172.493C696.846 170.775 684.547 169.631 672.142 168.833C619.236 165.263 563.458 162.206 513.963 170.243C501.148 172.324 488.75 175.102 476.757 178.722C430.103 192.806 386.059 217.203 346.874 248.544C340.16 253.901 333.517 259.5 326.9 265.241C303.287 285.739 279.923 308.066 254.465 327.73C239.287 339.464 223.505 351.215 205.664 357.676C194.559 361.703 183.077 363.306 171.034 362.481C158.858 361.646 147.454 359.232 135.431 356.763C94.2922 348.161 44.918 343.077 4.05566 359.484" stroke="#D5D5D5" stroke-width="0.387624" stroke-miterlimit="10"/>
<path d="M1636.41 30.8545C1598.33 91.3533 1540.33 144.189 1470.68 173.896C1434.41 189.516 1397.39 193.213 1360.74 206.752C1319.37 222.038 1276.18 230.742 1232.32 235.54C1202.27 238.836 1171.86 240.25 1141.43 240.523C1081.45 241.058 1021.26 237.304 963.947 228.759C930.439 223.762 897.977 217.432 866.64 210.203C843.838 204.944 821.172 199.257 798.626 193.068C766.296 184.193 733.949 173.91 698.888 168.29C686.655 166.33 674.201 164.994 661.628 164.071C607.951 159.973 551.375 158.118 501.196 167.657C488.226 170.122 475.674 173.304 463.532 177.32C416.397 192.91 372.218 218.893 333.086 251.641C326.383 257.237 319.756 263.075 313.147 269.049C289.571 290.372 266.231 313.433 240.58 333.51C225.287 345.494 209.297 357.295 191.206 363.928C179.94 368.063 168.294 369.817 156.122 369.255C143.731 368.686 132.031 366.568 119.744 364.329C77.7272 356.534 28.0096 351.282 -13.6104 367.41" stroke="#D5D5D5" stroke-width="0.387624" stroke-miterlimit="10"/>
<path d="M1633.33 32.3506C1596.84 93.4892 1539.59 146.783 1470.37 176.375C1433.55 192.254 1395.98 195.665 1358.86 209.689C1317.06 225.477 1273.37 234.76 1228.98 239.965C1198.56 243.541 1167.76 245.154 1136.94 245.474C1076.2 246.107 1015.25 241.854 957.213 232.231C923.283 226.605 890.414 219.44 858.667 211.258C835.538 205.298 812.585 198.837 789.784 191.864C757.063 181.857 724.362 170.426 688.833 164.099C676.453 161.894 663.836 160.369 651.102 159.321C596.657 154.695 539.28 154.039 488.417 165.082C475.289 167.934 462.582 171.517 450.292 175.928C402.676 193.015 358.362 220.591 319.285 254.75C312.591 260.588 305.978 266.662 299.382 272.868C275.846 295.016 252.523 318.811 226.684 339.299C211.273 351.532 195.081 363.387 176.738 370.189C165.313 374.428 153.502 376.337 141.195 376.04C128.593 375.737 116.592 373.913 104.047 371.909C61.1509 364.923 11.0865 359.502 -31.291 375.347" stroke="#D5D5D5" stroke-width="0.387624" stroke-miterlimit="10"/>
<path d="M1630.25 33.8418C1595.35 95.6201 1538.85 149.375 1470.06 178.846C1432.7 194.988 1394.58 198.113 1356.98 212.614C1314.75 228.904 1270.57 238.766 1225.64 244.376C1194.85 248.228 1163.67 250.039 1132.45 250.413C1070.96 251.143 1009.24 246.396 950.485 235.689C916.131 229.429 882.858 221.433 850.703 212.298C827.248 205.635 804.005 198.402 780.948 190.648C747.833 179.51 714.786 166.934 678.789 159.897C666.257 157.449 653.482 155.735 640.583 154.563C585.367 149.409 527.192 149.947 475.649 162.5C462.363 165.735 449.504 169.718 437.063 174.527C388.961 193.113 344.516 222.281 305.496 257.851C298.816 263.928 292.213 270.241 285.63 276.679C262.135 299.652 238.829 324.181 212.801 345.084C197.273 357.565 180.875 369.474 162.283 376.444C150.697 380.791 138.723 382.855 126.286 382.821C113.467 382.788 101.171 381.256 88.3627 379.481C44.5912 373.303 -5.82338 367.71 -48.9551 383.279" stroke="#D5D5D5" stroke-width="0.387624" stroke-miterlimit="10"/>
<path d="M1627.17 35.333C1593.86 97.7544 1538.11 151.964 1469.75 181.317C1431.85 197.718 1393.15 200.483 1355.1 215.54C1312.41 232.251 1267.76 242.769 1222.3 248.786C1191.14 252.917 1159.57 254.928 1127.97 255.348C1065.72 256.177 1003.24 250.931 943.758 239.146C908.984 232.257 875.306 223.426 842.741 213.338C818.959 205.971 795.43 197.967 772.117 189.429C738.612 177.159 705.197 163.509 668.746 155.691C656.059 153.021 643.133 151.095 630.069 149.799C574.085 144.115 515.105 145.853 462.882 159.913C449.437 163.533 436.427 167.92 423.834 173.122C375.248 193.206 330.669 223.968 291.705 260.944C285.035 267.261 278.449 273.817 271.873 280.483C248.419 304.282 225.132 329.548 198.913 350.861C183.267 363.592 166.667 375.551 147.822 382.693C136.074 387.148 123.939 389.366 111.37 389.595C98.3365 389.831 85.7438 388.592 72.673 387.05C28.0227 381.679 -22.7353 375.919 -66.6279 391.208" stroke="#D5D5D5" stroke-width="0.387624" stroke-miterlimit="10"/>
<path d="M1624.09 36.8291C1592.36 99.8903 1537.37 154.557 1469.44 183.793C1430.99 200.457 1391.74 202.942 1353.22 218.474C1310.1 235.693 1264.95 246.784 1218.96 253.205C1187.43 257.612 1155.48 259.824 1123.49 260.296C1060.47 261.222 997.233 255.481 937.031 242.615C901.832 235.094 867.754 225.43 834.777 214.39C810.669 206.319 786.871 197.501 763.282 188.221C729.409 174.76 695.618 160.015 658.702 151.497C645.866 148.581 632.779 146.466 619.55 145.046C562.795 138.833 503.013 141.766 450.11 157.335C436.508 161.339 423.343 166.127 410.605 171.729C361.531 193.309 316.823 225.666 277.914 264.053C271.254 270.612 264.681 277.404 258.119 284.303C234.704 308.926 211.435 334.926 185.027 356.65C169.263 369.63 152.461 381.644 133.363 388.953C121.454 393.516 109.158 395.89 96.4541 396.378C83.2082 396.886 70.3158 395.933 56.9823 394.627C11.4567 390.065 -39.6515 384.132 -84.3018 399.142" stroke="#D5D5D5" stroke-width="0.387624" stroke-miterlimit="10"/>
<path d="M1621.01 38.3193C1590.88 102.02 1536.63 157.149 1469.13 186.267C1430.14 203.189 1390.34 205.395 1351.35 221.402C1307.8 239.133 1262.14 250.793 1215.62 257.621C1183.72 262.308 1151.39 264.719 1119.01 265.237C1055.23 266.261 991.23 260.022 930.304 246.079C894.684 237.927 860.202 227.425 826.811 215.435C802.38 206.661 778.292 197.075 754.443 187.011C720.177 172.422 686.039 156.522 648.651 147.3C635.665 144.138 622.419 141.835 609.028 140.29C551.506 133.549 490.916 137.674 437.336 154.755C423.575 159.142 410.255 164.331 397.37 170.331C347.803 193.405 302.971 227.358 264.116 267.153C257.469 273.951 250.907 280.981 244.358 288.113C220.984 313.561 197.731 340.295 171.139 362.433C155.256 375.662 138.249 387.73 118.902 395.208C106.832 399.878 94.3735 402.41 81.5384 403.158C68.0804 403.942 54.8883 403.275 41.2922 402.198C-5.11222 398.444 -56.5639 392.343 -101.972 407.073" stroke="#D5D5D5" stroke-width="0.387624" stroke-miterlimit="10"/>
<path d="M1617.93 39.8115C1589.38 104.156 1535.89 159.739 1468.82 188.739C1429.28 205.924 1388.93 207.847 1349.47 224.332C1305.49 242.571 1259.33 254.803 1212.28 262.036C1180.01 267.002 1147.29 269.612 1114.52 270.181C1049.99 271.302 985.223 264.564 923.576 249.541C887.532 240.756 852.649 229.423 818.848 216.48C794.09 207.002 769.716 196.651 745.611 185.796C710.955 170.082 676.463 153.025 638.61 143.102C625.476 139.695 612.068 137.203 598.512 135.533C540.219 128.264 478.825 133.583 424.572 152.173C410.649 156.944 397.177 162.533 384.144 168.931C334.086 193.496 289.129 229.049 250.328 270.255C243.691 277.295 237.146 284.561 230.607 291.925C207.273 318.201 184.041 345.666 157.256 368.218C141.256 381.697 124.047 393.815 104.447 401.465C92.2184 406.239 79.5988 408.936 66.629 409.939C52.9588 410.997 39.4671 410.616 25.6084 409.774C-21.6748 406.828 -73.4733 400.559 -119.639 415.007" stroke="#D5D5D5" stroke-width="0.387624" stroke-miterlimit="10"/>
<path d="M1614.85 41.3057C1587.89 106.289 1535.15 162.334 1468.51 191.213C1428.43 208.657 1387.53 210.3 1347.59 227.26C1303.18 246.008 1256.52 258.813 1208.94 266.449C1176.3 271.692 1143.19 274.503 1110.03 275.123C1044.74 276.338 979.213 269.109 916.842 253.005C880.377 243.59 845.114 231.365 810.878 217.529C785.813 207.307 761.133 196.23 736.769 184.586C701.719 167.748 666.88 149.529 628.556 138.906C615.27 135.253 601.707 132.572 587.987 130.778C528.926 122.98 466.686 129.394 411.793 149.596C397.702 154.724 384.086 160.741 370.904 167.536C320.351 193.597 275.27 230.745 236.529 273.358C229.903 280.638 223.371 288.146 216.842 295.739C193.549 322.84 170.333 351.039 143.36 374.002C127.242 387.726 109.828 399.901 89.979 407.72C77.5883 412.602 64.8104 415.457 51.7026 416.72C37.8237 418.056 24.0289 417.959 9.90758 417.349C-38.2511 415.211 -90.3964 408.77 -137.319 422.942" stroke="#D5D5D5" stroke-width="0.387624" stroke-miterlimit="10"/>
<path d="M1611.77 42.7979C1586.4 108.421 1534.41 164.924 1468.2 193.685C1427.57 211.392 1386.13 212.756 1345.71 230.19C1300.88 249.446 1253.72 262.82 1205.6 270.864C1172.59 276.386 1139.1 279.396 1105.55 280.063C1039.5 281.376 973.207 273.648 910.112 256.466C873.226 246.419 837.559 233.372 802.912 218.574C777.521 207.655 752.555 195.803 727.935 183.375C692.494 165.412 657.301 146.034 618.51 134.708C605.075 130.805 591.351 127.94 577.469 126.021C517.637 117.694 454.596 125.32 399.023 147.014C384.774 152.533 370.989 158.92 357.676 166.136C306.571 193.587 261.426 232.436 222.739 276.46C216.126 283.982 209.604 291.726 203.089 299.548C179.836 327.474 156.64 356.41 129.475 379.784C113.239 393.757 95.623 405.986 75.5218 413.973C62.9695 418.963 50.0333 421.98 36.7908 423.495C22.7031 425.108 8.60533 425.293 -5.77527 424.916C-54.8127 423.586 -107.305 416.976 -154.985 430.869" stroke="#D5D5D5" stroke-width="0.387624" stroke-miterlimit="10"/>
<path d="M1608.69 44.29C1584.91 110.557 1533.67 167.513 1467.89 196.157C1426.72 214.123 1384.72 215.207 1343.83 233.117C1298.57 252.884 1250.91 266.827 1202.25 275.275C1168.87 281.073 1135 284.282 1101.06 285.003C1034.25 286.413 967.199 278.188 903.384 259.925C866.073 249.248 830.002 235.376 794.948 219.615C769.231 208.002 743.975 195.376 719.099 182.157C683.264 163.069 647.725 142.533 608.465 130.503C594.879 126.355 580.997 123.301 566.95 121.257C506.35 112.402 442.504 121.244 386.251 144.426C371.844 150.331 357.904 157.123 344.443 164.732C292.856 193.709 247.576 234.12 208.943 279.555C202.34 287.316 195.835 295.299 189.33 303.353C166.118 332.104 142.939 361.774 115.585 385.562C99.2317 399.785 81.41 412.064 61.0596 420.223C48.3457 425.32 35.2547 428.499 21.8741 430.27C7.57768 432.162 -6.82313 432.63 -21.4664 432.485C-71.3793 431.96 -124.218 425.186 -172.656 438.795" stroke="#D5D5D5" stroke-width="0.387624" stroke-miterlimit="10"/>
<path d="M1605.62 45.7852C1583.42 112.691 1532.93 170.11 1467.58 198.635C1425.86 216.864 1383.32 217.666 1341.95 236.05C1296.26 256.326 1248.1 270.841 1198.91 279.696C1165.16 285.774 1130.9 289.181 1096.58 289.949C1029.01 291.457 961.196 282.737 896.653 263.393C858.922 252.083 822.444 237.39 786.979 220.666C760.935 208.356 735.392 194.955 710.257 180.948C674.032 160.736 638.139 139.039 598.411 126.308C584.677 121.914 570.637 118.675 556.424 116.503C495.053 107.119 430.406 117.176 373.473 141.85C358.908 148.146 344.817 155.342 331.204 163.338C279.132 193.84 233.721 235.817 195.142 282.663C188.549 290.663 182.057 298.885 175.566 307.171C152.394 336.747 129.232 367.152 101.69 391.351C85.2182 405.822 67.1945 418.156 46.5916 426.482C33.716 431.688 20.4735 435.055 6.94812 437.055C-7.55369 439.253 -22.2609 439.974 -37.1668 440.065C-87.9585 440.348 -141.144 433.405 -190.34 446.735" stroke="#D5D5D5" stroke-width="0.387624" stroke-miterlimit="10"/>
<path d="M1602.53 47.2754C1581.93 114.821 1532.19 172.697 1467.27 201.105C1425.01 219.593 1381.92 220.115 1340.07 238.977C1293.95 259.762 1245.29 274.85 1195.57 284.109C1094.29 302.971 988.344 297.651 889.926 266.853C823.723 246.136 761.362 214.654 701.426 179.731C664.806 158.394 628.566 135.539 588.371 122.104C514.475 97.4072 431.652 107.05 360.709 139.263C289.765 171.475 229.967 224.866 181.357 285.759C137.242 341.015 97.6189 406.053 32.1402 432.733C-42.746 463.246 -129.764 434.218 -208 454.66" stroke="#D5D5D5" stroke-width="0.387624" stroke-miterlimit="10"/>
<path d="M1446.21 474.248C1447.03 388.877 1416.85 303.536 1362.53 237.673C1347.07 218.936 1328.95 201.218 1306.09 193C1240.05 169.255 1169.53 221.161 1114.01 250.633C1047 286.196 980.748 323.465 910.98 353.476C871.811 370.324 825.808 384.624 787.918 365.068C749.551 345.263 734.952 299.149 719.089 258.99C700.608 212.195 675.156 167.117 637.796 133.42C600.435 99.7225 549.93 78.4496 499.916 83.9345C460.751 88.2309 425.063 108.103 392.474 130.248C306.847 188.437 234.102 265.472 180.906 354.291" stroke="#D5D5D5" stroke-width="0.387624" stroke-miterlimit="10"/>
<path d="M1448.35 470.558C1449.08 395.106 1422.54 321.26 1375.48 257.926C1371.11 252.044 1366.61 246.26 1361.91 240.633C1346.48 222.152 1328.51 204.66 1305.98 196.377C1240.81 172.394 1171.37 221.586 1115.93 250C1066.77 275.192 1017.95 301.792 967.409 325.87C949.873 334.257 932.186 342.335 914.273 349.954C875.418 366.48 829.959 380.587 792.353 361.944C754.275 343.065 739.201 298.735 722.901 260.149C703.904 215.189 678.16 171.862 640.87 139.464C627.887 128.184 613.358 118.353 597.84 110.551C568.802 95.9451 536.297 88.4366 503.997 91.8508C465.199 95.9518 429.771 115.019 397.39 136.154C331.834 178.912 273.904 231.987 226.146 293.125C211.893 311.368 198.55 330.324 186.189 349.944" stroke="#D5D5D5" stroke-width="0.387624" stroke-miterlimit="10"/>
<path d="M1450.49 466.872C1451.19 393.935 1423.24 324.18 1374.84 260.621C1370.45 254.853 1365.98 249.142 1361.3 243.6C1345.89 225.378 1328.08 208.108 1305.86 199.758C1241.57 175.532 1173.22 222.014 1117.84 249.375C1069.2 273.409 1020.81 299.304 970.295 322.874C952.887 331.062 935.332 338.968 917.564 346.44C879.021 362.645 834.105 376.558 796.785 358.827C758.997 340.871 743.448 298.325 726.714 261.314C707.205 218.189 681.161 176.613 643.945 145.519C630.985 134.694 616.527 125.256 601.113 117.771C572.281 103.751 540.076 96.5249 508.082 99.7775C469.651 103.687 434.485 121.946 402.31 142.067C337.145 182.765 279.595 232.923 231.699 291.251C217.406 308.655 203.975 326.779 191.477 345.605" stroke="#D5D5D5" stroke-width="0.387624" stroke-miterlimit="10"/>
<path d="M1452.63 463.18C1453.31 392.759 1423.96 327.095 1374.21 263.31C1369.79 257.65 1365.35 252.017 1360.69 246.562C1345.3 228.595 1327.64 211.555 1305.76 203.137C1242.34 178.672 1175.08 222.444 1119.76 248.744C1071.65 271.623 1023.63 296.694 973.19 319.876C955.89 327.829 938.486 335.6 920.86 342.923C882.63 358.805 838.256 372.526 801.226 355.708C763.727 338.674 747.703 297.916 730.531 262.478C710.508 221.188 684.171 181.363 647.029 151.568C634.09 141.197 619.706 132.154 604.396 124.982C575.766 111.547 543.866 104.604 512.173 107.699C474.108 111.416 439.206 128.867 407.236 147.975C342.457 186.615 285.292 233.855 237.258 289.374C222.924 305.94 209.409 323.233 196.772 341.266" stroke="#D5D5D5" stroke-width="0.387624" stroke-miterlimit="10"/>
<path d="M1454.77 459.495C1455.42 391.588 1424.69 330.008 1373.57 266.005C1369.13 260.456 1364.71 254.897 1360.07 249.53C1344.7 231.822 1327.2 215.004 1305.64 206.519C1243.09 181.815 1176.94 222.883 1121.68 248.119C1074.09 269.85 1026.47 294.17 976.072 316.88C958.893 324.625 941.631 332.234 924.146 339.409C886.23 354.972 842.401 368.5 805.653 352.591C768.444 336.483 751.946 297.51 734.336 263.644C713.797 224.189 687.167 186.112 650.096 157.62C637.18 147.7 622.87 139.054 607.661 132.195C579.237 119.35 547.641 112.69 516.246 115.619C478.546 119.141 443.906 135.788 412.144 153.882C347.757 190.462 290.972 234.785 242.796 287.493C228.419 303.22 214.819 319.682 202.045 336.921" stroke="#D5D5D5" stroke-width="0.387624" stroke-miterlimit="10"/>
<path d="M1456.9 455.803C1457.54 390.412 1425.44 332.913 1372.93 268.694C1368.48 263.253 1364.08 257.774 1359.46 252.492C1344.11 235.04 1326.76 218.447 1305.52 209.899C1243.86 184.956 1178.81 223.323 1123.59 247.491C1076.54 268.084 1029.31 291.647 978.961 313.886C961.903 321.421 944.779 328.869 927.439 335.896C889.836 351.135 846.549 364.472 810.087 349.476C773.168 334.29 756.198 297.105 738.147 264.811C717.096 227.188 690.17 190.865 653.17 163.676C640.278 154.211 626.039 145.959 610.934 139.413C582.715 127.154 551.418 120.777 520.33 123.548C482.997 126.878 448.619 142.719 417.064 159.8C353.066 194.323 296.662 235.727 248.348 285.627C233.931 300.516 220.244 316.145 207.331 332.59" stroke="#D5D5D5" stroke-width="0.387624" stroke-miterlimit="10"/>
<path d="M1459.05 452.113C1459.66 389.237 1426.21 335.809 1372.3 271.381C1367.83 266.048 1363.45 260.647 1358.84 255.451C1343.52 238.259 1326.33 221.889 1305.41 213.273C1244.62 188.091 1180.69 223.761 1125.51 246.855C1079.01 266.317 1032.16 289.115 981.85 310.88C964.913 318.206 947.927 325.492 930.731 332.368C893.441 347.287 850.7 360.429 814.522 346.345C777.892 332.082 760.447 296.684 741.959 265.963C720.393 230.175 693.174 195.602 656.244 169.713C643.375 160.703 629.21 152.845 614.207 146.615C586.19 134.942 555.199 128.848 524.411 131.457C487.445 134.595 453.326 149.629 421.979 165.696C358.373 198.158 302.349 236.647 253.897 283.735C239.436 297.785 225.664 312.583 212.617 328.233" stroke="#D5D5D5" stroke-width="0.387624" stroke-miterlimit="10"/>
<path d="M1461.18 448.426C1461.77 388.065 1426.99 338.704 1371.66 274.074C1367.18 268.845 1362.82 263.525 1358.23 258.417C1342.93 241.481 1325.89 225.336 1305.29 216.656C1245.37 191.232 1182.58 224.218 1127.43 246.232C1081.48 264.569 1035.01 286.599 984.735 307.889C967.92 315.011 951.071 322.128 934.021 328.859C897.044 343.455 854.845 356.405 818.952 343.233C782.612 329.896 764.693 296.28 745.77 267.135C723.692 233.181 696.177 200.36 659.321 175.774C646.476 167.215 632.382 159.753 617.483 153.837C589.671 142.75 558.984 136.942 528.495 139.389C491.896 142.332 458.04 156.561 426.895 171.615C363.679 202.02 308.035 237.589 259.442 281.869C244.941 295.081 231.082 309.048 217.896 323.903" stroke="#D5D5D5" stroke-width="0.387624" stroke-miterlimit="10"/>
<path d="M1463.33 444.736C1463.88 386.89 1427.8 341.586 1371.03 276.764C1366.54 271.64 1362.19 266.404 1357.61 261.38C1342.34 244.703 1325.45 228.784 1305.18 220.037C1246.14 194.373 1184.48 224.676 1129.35 245.602C1083.97 262.825 1037.87 284.078 987.628 304.889C970.937 311.802 954.223 318.758 937.314 325.341C900.65 339.617 858.997 352.371 823.387 340.115C787.336 327.701 768.942 295.872 749.582 268.3C726.989 236.181 699.177 205.111 662.396 181.824C649.574 173.72 635.554 166.652 620.756 161.05C593.149 150.551 562.765 145.022 532.576 147.312C496.344 150.063 462.751 163.484 431.811 177.528C368.986 205.871 313.723 238.525 264.992 279.993C250.446 292.367 236.503 305.499 223.18 319.566" stroke="#D5D5D5" stroke-width="0.387624" stroke-miterlimit="10"/>
<path d="M1465.46 441.045C1466 385.715 1428.61 344.458 1370.39 279.455C1365.89 274.434 1361.56 269.279 1357 264.343C1341.74 247.922 1325.01 232.229 1305.07 223.414C1246.9 197.511 1186.39 225.141 1131.26 244.973C1086.46 261.091 1040.72 281.562 990.516 301.892C973.947 308.603 957.371 315.391 940.606 321.825C904.256 335.778 863.144 348.341 827.821 336.997C792.06 325.505 773.191 295.465 753.393 269.465C730.285 239.181 702.18 209.861 665.469 187.878C652.671 180.228 638.722 173.555 624.028 168.265C596.624 158.352 566.542 153.11 536.66 155.235C500.794 157.79 467.461 170.406 436.73 183.437C374.295 209.723 319.412 239.458 270.543 278.118C255.957 289.653 241.927 301.953 228.469 315.226" stroke="#D5D5D5" stroke-width="0.387624" stroke-miterlimit="10"/>
<path d="M1467.61 437.359C1468.12 384.543 1429.45 347.328 1369.75 282.145C1365.25 277.226 1360.93 272.155 1356.39 267.303C1341.15 251.142 1324.58 235.67 1304.95 226.791C1247.66 200.65 1188.31 225.613 1133.18 244.34C1088.95 259.364 1043.57 279.044 993.399 298.89C976.954 305.395 960.513 312.018 943.893 318.304C907.856 331.937 867.29 344.304 832.249 333.873C796.778 323.304 777.434 295.051 757.198 270.623C733.578 242.175 705.177 214.606 668.537 193.922C655.763 186.724 641.884 180.444 627.295 175.471C600.096 166.144 570.318 161.185 540.735 163.151C505.233 165.515 472.165 177.323 441.64 189.34C379.595 213.566 325.093 240.381 276.083 276.233C261.456 286.93 247.338 298.398 233.742 310.876" stroke="#D5D5D5" stroke-width="0.387624" stroke-miterlimit="10"/>
<path d="M1469.74 433.667C1470.23 383.367 1430.29 350.178 1369.12 284.834C1364.6 280.015 1360.29 275.032 1355.77 270.265C1340.56 254.359 1324.14 239.113 1304.84 230.167C1248.42 203.786 1190.24 226.096 1135.1 243.709C1091.46 257.648 1046.43 276.527 996.291 295.891C979.971 302.194 963.664 308.649 947.189 314.787C911.465 328.097 871.441 340.275 836.69 330.753C801.508 321.11 781.693 294.639 761.016 271.79C736.881 245.173 708.187 219.358 671.621 199.974C658.87 193.23 645.065 187.345 630.577 182.688C603.583 173.947 574.108 169.27 544.825 171.075C509.69 173.247 476.882 184.247 446.565 195.254C384.911 217.422 330.79 241.318 281.641 274.359C266.971 284.217 252.769 294.854 239.038 306.538" stroke="#D5D5D5" stroke-width="0.387624" stroke-miterlimit="10"/>
<path d="M1471.88 429.981C1472.34 382.196 1431.16 353.021 1368.48 287.529C1363.96 282.812 1359.67 277.902 1355.16 273.232C1340 257.555 1323.7 242.565 1304.73 233.552C1249.18 206.929 1192.17 226.596 1137.02 243.087C1093.97 255.956 1049.29 274.027 999.18 292.899C982.984 299 966.816 305.283 950.479 311.273C915.068 324.263 875.589 336.246 841.121 327.637C806.228 318.916 785.939 294.233 764.827 272.956C740.177 248.175 711.19 224.111 674.695 206.03C661.968 199.74 648.234 194.248 633.85 189.905C607.058 181.753 577.886 177.359 548.909 179.003C514.141 180.979 481.596 191.174 451.484 201.168C390.221 221.276 336.48 242.256 287.193 272.488C272.483 281.508 258.193 291.313 244.324 302.206" stroke="#D5D5D5" stroke-width="0.387624" stroke-miterlimit="10"/>
<path d="M1474.02 426.292C1474.46 381.022 1432.05 355.847 1367.84 290.22C1363.33 285.601 1359.04 280.782 1354.54 276.197C1339.41 260.776 1323.26 246.011 1304.61 236.93C1249.94 210.068 1194.12 227.105 1138.93 242.455C1096.49 254.264 1052.15 271.516 1002.07 289.9C986.002 295.799 969.965 301.914 953.773 307.756C918.675 320.423 879.739 332.214 845.556 324.517C810.953 316.719 790.189 293.823 768.64 274.119C743.478 251.173 714.195 228.859 677.77 212.078C665.063 206.24 651.407 201.145 637.12 197.115C610.534 189.549 581.665 185.438 552.988 186.92C518.587 188.704 486.304 198.091 456.398 207.071C395.525 225.122 342.165 243.183 292.737 270.604C277.982 278.786 263.608 287.759 249.602 297.857" stroke="#D5D5D5" stroke-width="0.387624" stroke-miterlimit="10"/>
<path d="M1476.16 422.6C1476.57 379.845 1432.94 358.656 1367.21 292.908C1362.68 288.386 1358.41 283.656 1353.93 279.157C1338.82 263.992 1322.83 249.453 1304.5 240.308C1250.7 213.207 1196.06 227.625 1140.85 241.827C1099.01 252.588 1055.01 269.012 1004.95 286.901C989.011 292.598 973.109 298.545 957.061 304.238C922.276 316.585 883.886 328.181 849.986 321.397C815.673 314.524 794.434 293.413 772.447 275.282C746.77 254.17 717.19 233.608 680.84 218.13C668.156 212.746 654.57 208.045 640.388 204.328C614.008 197.348 585.442 193.52 557.064 194.843C523.03 196.436 491.007 205.015 461.306 212.985C400.824 228.975 347.844 244.12 298.278 268.733C283.483 276.076 269.021 284.218 254.88 293.521" stroke="#D5D5D5" stroke-width="0.387624" stroke-miterlimit="10"/>
<path d="M1478.3 418.913C1478.69 378.674 1433.86 361.455 1366.57 295.599C1362.05 291.175 1357.78 286.532 1353.32 282.121C1338.23 267.212 1322.39 252.898 1304.39 243.686C1251.46 216.346 1198.03 228.161 1142.77 241.195C1101.54 250.919 1057.87 266.508 1007.84 283.902C992.025 289.4 976.257 295.175 960.355 300.72C925.883 312.744 888.034 324.148 854.421 318.276C820.397 312.327 798.683 293 776.259 276.444C750.07 257.168 720.194 238.356 683.918 224.178C671.258 219.248 657.746 214.942 643.665 211.541C617.486 205.147 589.223 201.605 561.152 202.767C527.485 204.164 495.724 211.938 466.229 218.895C406.138 232.827 353.538 245.053 303.834 266.855C288.995 273.356 274.45 280.666 260.17 289.178" stroke="#D5D5D5" stroke-width="0.387624" stroke-miterlimit="10"/>
<path d="M1480.44 415.223C1480.8 377.499 1434.8 364.233 1365.93 298.29C1361.41 293.96 1357.15 289.407 1352.7 285.084C1337.63 270.434 1321.93 256.38 1304.27 247.067C1252.16 219.592 1199.99 228.717 1144.68 240.569C1104.07 249.272 1060.73 264.013 1010.73 280.906C995.038 286.205 979.402 291.808 963.644 297.206C929.485 308.909 892.182 320.118 858.852 315.159C825.114 310.132 802.929 292.593 780.07 277.609C753.366 260.168 723.197 243.107 686.992 230.232C674.355 225.754 660.914 221.845 646.937 218.757C620.964 212.952 593.004 209.69 565.233 210.69C531.93 211.895 500.431 218.861 471.145 224.804C411.444 236.676 359.224 245.986 309.379 264.98C294.5 270.643 279.867 277.121 265.449 284.842" stroke="#D5D5D5" stroke-width="0.387624" stroke-miterlimit="10"/>
<path d="M1482.58 411.537C1482.92 376.328 1435.75 366.998 1365.3 300.984C1360.78 296.748 1356.52 292.29 1352.09 288.051C1337.04 273.657 1321.5 259.829 1304.16 250.451C1252.93 222.734 1201.96 229.29 1146.61 239.946C1106.62 247.643 1063.6 261.526 1013.62 277.916C998.062 283.021 982.557 288.448 966.941 293.698C933.095 305.078 896.334 316.095 863.29 312.051C829.842 307.95 807.185 292.196 783.885 278.785C756.666 263.179 726.205 247.869 690.07 236.293C677.457 232.269 664.086 228.754 650.214 225.98C624.446 220.761 596.789 217.784 569.318 218.623C536.381 219.633 505.145 225.798 476.064 230.727C416.754 240.542 364.912 246.933 314.932 263.115C300.009 267.94 285.295 273.586 270.739 280.512" stroke="#D5D5D5" stroke-width="0.387624" stroke-miterlimit="10"/>
<path d="M1484.72 407.846C1485.04 375.149 1436.71 369.742 1364.66 303.674C1360.14 299.532 1355.88 295.165 1351.47 291.014C1336.45 276.879 1321.06 263.273 1304.04 253.828C1253.68 225.872 1203.93 229.879 1148.51 239.313C1109.16 246.017 1066.46 259.03 1016.51 274.913C1001.07 279.822 985.699 285.071 970.227 290.175C936.695 301.236 900.479 312.061 867.718 308.926C834.559 305.748 811.428 291.781 787.69 279.943C759.959 266.168 729.202 252.609 693.137 242.337C680.548 238.767 667.251 235.646 653.48 233.185C627.914 228.552 600.561 225.858 573.392 226.535C540.823 227.353 509.849 232.71 480.974 236.626C422.054 244.38 370.592 247.852 320.474 261.229C305.511 265.216 290.709 270.03 276.016 276.162" stroke="#D5D5D5" stroke-width="0.387624" stroke-miterlimit="10"/>
<path d="M1486.86 404.156C1487.15 373.974 1437.7 372.462 1364.03 306.36C1359.51 302.31 1355.25 298.04 1350.86 293.973C1335.86 280.094 1320.62 266.713 1303.93 257.205C1254.45 229.006 1205.91 230.484 1150.44 238.683C1111.71 244.407 1069.33 256.545 1019.4 271.915C1004.09 276.629 988.85 281.703 973.523 286.656C940.304 297.394 904.63 308.027 872.155 305.805C839.286 303.549 815.68 291.367 791.504 281.104C763.258 269.165 732.208 257.356 696.217 248.387C683.652 245.269 670.426 242.545 656.759 240.4C631.399 236.353 604.348 233.942 577.482 234.461C545.28 235.087 514.566 239.636 485.899 242.538C427.37 248.235 376.289 248.787 326.029 259.353C311.026 262.501 296.136 266.484 281.305 271.821" stroke="#D5D5D5" stroke-width="0.387624" stroke-miterlimit="10"/>
<path d="M1489 400.469C1489.26 372.802 1438.7 375.166 1363.39 309.054C1358.88 305.095 1354.62 300.92 1350.24 296.94C1335.26 283.32 1320.18 270.162 1303.82 260.586C1255.21 232.145 1207.89 231.118 1152.35 238.054C1114.25 242.811 1072.19 254.061 1022.28 268.916C1007.11 273.435 991.998 278.334 976.812 283.138C943.906 293.556 908.775 303.994 876.589 302.684C844.01 301.354 819.929 290.957 795.316 282.266C766.555 272.162 735.208 262.105 699.291 254.434C686.749 251.771 673.598 249.441 660.032 247.609C634.877 244.151 608.129 242.024 581.563 242.377C549.728 242.808 519.276 246.552 490.815 248.444C432.676 252.081 381.975 249.717 331.578 257.471C316.53 259.781 301.557 262.933 286.591 267.475" stroke="#D5D5D5" stroke-width="0.387624" stroke-miterlimit="10"/>
<path d="M1491.14 396.778C1491.38 371.626 1439.71 377.845 1362.75 311.744C1358.25 307.871 1353.99 303.794 1349.63 299.902C1334.67 286.541 1319.76 273.575 1303.7 263.965C1256.02 235.187 1209.86 231.773 1154.27 237.426C1116.79 241.234 1075.06 251.581 1025.17 265.922C1010.12 270.248 995.142 274.969 980.102 279.625C947.509 289.72 912.923 299.966 881.02 299.568C848.73 299.161 824.175 290.551 799.127 283.434C769.854 275.164 738.211 266.858 702.365 260.491C689.847 258.282 676.766 256.346 663.304 254.827C638.351 251.955 611.91 250.11 585.644 250.305C554.172 250.544 523.983 253.48 495.727 254.359C437.979 255.938 387.659 250.655 337.123 255.602C322.035 257.073 306.975 259.39 291.87 263.144" stroke="#D5D5D5" stroke-width="0.387624" stroke-miterlimit="10"/>
<path d="M1493.28 393.091C1493.5 370.454 1440.74 380.505 1362.12 314.437C1357.62 310.656 1353.36 306.676 1349.01 302.868C1334.07 289.767 1319.33 277.022 1303.59 267.346C1256.79 238.325 1211.85 232.453 1156.19 236.8C1119.35 239.675 1077.93 249.11 1028.06 262.925C1013.14 267.059 998.294 271.602 983.395 276.11C951.115 285.884 917.071 295.935 885.454 296.45C853.454 296.965 828.424 290.144 802.939 284.598C773.15 278.164 741.214 271.608 705.439 266.541C692.941 264.783 679.937 263.241 666.577 262.039C641.829 259.753 615.688 258.191 589.728 258.228C558.623 258.275 528.697 260.403 500.646 260.268C443.289 259.787 393.349 251.588 342.672 253.723C327.54 254.356 312.395 255.84 297.156 258.8" stroke="#D5D5D5" stroke-width="0.387624" stroke-miterlimit="10"/>
<path d="M1495.42 389.402C1495.61 369.281 1441.79 383.136 1361.48 317.125C1356.99 313.432 1352.72 309.55 1348.4 305.829C1333.48 292.987 1318.89 280.465 1303.48 270.724C1257.55 241.465 1213.82 233.158 1158.1 236.168C1121.89 238.125 1080.8 246.633 1030.95 259.926C1016.15 263.869 1001.44 268.229 986.685 272.593C954.718 282.044 921.219 291.903 889.886 293.331C858.175 294.772 832.673 289.731 806.747 285.761C776.444 281.162 744.214 276.357 708.514 272.593C696.039 271.29 683.106 270.142 669.85 269.256C645.305 267.556 619.469 266.28 593.809 266.152C563.071 266.004 533.408 267.327 505.562 266.179C448.596 263.64 399.036 252.522 348.221 251.849C333.049 251.643 317.817 252.297 302.439 254.462" stroke="#D5D5D5" stroke-width="0.387624" stroke-miterlimit="10"/>
<path d="M1497.56 385.713C1497.73 368.107 1442.85 385.743 1360.85 319.817C1356.36 316.207 1352.08 312.436 1347.78 308.793C1332.86 296.237 1318.45 283.911 1303.36 274.106C1258.31 244.607 1215.8 233.893 1160.02 235.543C1124.43 236.594 1083.67 244.173 1033.84 256.931C1019.17 260.685 1004.59 264.863 989.977 269.079C958.323 278.21 925.367 287.874 894.32 290.214C862.898 292.577 836.922 289.325 810.558 286.927C779.743 284.16 747.217 281.109 711.587 278.645C699.136 277.796 686.274 277.042 673.122 276.469C648.782 275.358 623.25 274.362 597.889 274.075C567.519 273.735 538.114 274.251 510.478 272.092C453.901 267.493 404.723 253.459 353.769 249.974C338.554 248.93 323.237 248.752 307.722 250.122" stroke="#D5D5D5" stroke-width="0.387624" stroke-miterlimit="10"/>
<path d="M1499.7 382.026C1499.84 366.935 1443.93 388.325 1360.21 322.51C1355.73 318.988 1351.46 315.318 1347.17 311.756C1332.27 299.459 1318.02 287.358 1303.25 277.483C1259.07 247.745 1217.77 234.654 1161.94 234.91C1126.97 235.072 1086.54 241.705 1036.73 253.93C1022.19 257.496 1007.74 261.493 993.27 265.557C961.93 274.365 929.519 283.84 898.754 287.089C867.623 290.375 841.171 288.91 814.37 288.085C783.039 287.153 750.221 285.853 714.662 284.688C702.234 284.291 689.446 283.934 676.395 283.675C652.26 283.149 627.028 282.439 601.97 281.988C571.967 281.456 542.825 281.163 515.394 277.991C459.208 271.334 410.41 254.381 359.315 248.089C344.059 246.206 328.655 245.196 313.005 245.775" stroke="#D5D5D5" stroke-width="0.387624" stroke-miterlimit="10"/>
<path d="M1501.84 378.334C1501.96 365.758 1445.03 390.876 1359.58 325.199C1355.1 321.761 1350.83 318.192 1346.56 314.718C1331.68 302.677 1317.58 290.802 1303.14 280.862C1259.83 250.885 1219.73 235.444 1163.86 234.282C1129.5 233.569 1089.41 239.249 1039.61 250.932C1025.21 254.313 1010.88 258.124 996.561 262.04C965.533 270.529 933.665 279.808 903.186 283.973C872.344 288.182 845.418 288.505 818.182 289.253C786.34 290.155 753.225 290.606 717.737 290.744C705.332 290.801 692.615 290.839 679.669 290.892C655.736 290.953 630.81 290.525 606.056 289.916C576.419 289.189 547.536 288.091 520.314 283.906C464.519 275.189 416.101 255.316 364.868 246.215C349.572 243.495 334.08 241.653 318.292 241.437" stroke="#D5D5D5" stroke-width="0.387624" stroke-miterlimit="10"/>
<path d="M1503.98 374.647C1504.07 364.586 1446.14 393.402 1358.94 327.893C1354.47 324.539 1350.19 321.071 1345.94 317.684C1331.09 305.902 1317.14 294.249 1303.02 284.242C1260.59 254.023 1221.68 236.265 1165.77 233.656C1132.02 232.08 1092.29 236.797 1042.5 247.939C1028.23 251.134 1014.03 254.761 999.853 258.528C969.139 266.693 937.816 275.781 907.62 280.858C877.068 285.993 849.667 288.098 821.993 290.421C789.636 293.158 756.225 295.36 720.811 296.798C708.43 297.31 695.787 297.741 682.938 298.108C659.211 298.754 634.588 298.609 610.133 297.838C580.86 296.919 552.243 295.013 525.226 289.818C469.822 279.044 421.784 256.252 370.413 244.34C355.073 240.781 339.497 238.107 323.571 237.097" stroke="#D5D5D5" stroke-width="0.387624" stroke-miterlimit="10"/>
<path d="M1506.12 370.957C1506.19 363.411 1447.26 395.893 1358.3 330.579C1353.85 327.306 1349.56 323.946 1345.33 320.643C1330.5 309.118 1316.7 297.69 1302.91 287.619C1261.35 257.161 1223.62 237.114 1167.69 233.023C1134.54 230.598 1095.16 234.346 1045.39 244.935C1031.24 247.945 1017.18 251.383 1003.15 255.006C972.745 262.851 941.964 271.744 912.058 277.733C881.795 283.791 853.919 287.683 825.808 291.579C792.936 296.151 759.232 300.104 723.891 302.845C711.534 303.808 698.962 304.636 686.217 305.32C662.695 306.555 638.372 306.693 614.22 305.761C585.314 304.646 556.96 301.936 530.145 295.727C475.131 282.895 427.474 257.184 375.962 242.464C360.582 238.066 344.918 234.558 328.857 232.757" stroke="#D5D5D5" stroke-width="0.387624" stroke-miterlimit="10"/>
<path d="M1508.26 367.266C1508.3 362.235 1448.4 398.354 1357.67 333.269C1353.22 330.077 1348.93 326.821 1344.72 323.605C1329.91 312.339 1316.27 301.137 1302.8 290.996C1262.12 260.298 1225.54 237.992 1169.61 232.393C1137.05 229.133 1098.03 231.904 1048.28 241.938C1034.27 244.766 1020.33 248.016 1006.44 251.49C976.352 259.012 946.116 267.713 916.493 274.615C886.52 281.595 858.17 287.275 829.62 292.743C796.236 299.151 762.236 304.854 726.966 308.895C714.633 310.312 702.134 311.535 689.491 312.531C666.171 314.353 642.154 314.774 618.305 313.683C589.766 312.376 561.672 308.858 535.066 301.636C480.442 286.743 433.166 258.117 381.515 240.584C366.091 235.349 350.343 231.009 334.145 228.416" stroke="#D5D5D5" stroke-width="0.387624" stroke-miterlimit="10"/>
<path d="M1510.39 363.58C1510.42 361.064 1449.55 400.785 1357.03 335.963C1352.59 332.852 1348.3 329.704 1344.1 326.573C1329.31 315.562 1315.83 304.586 1302.68 294.38C1262.87 263.444 1227.44 238.908 1171.52 231.767C1139.53 227.683 1100.91 229.531 1051.16 238.942C1037.28 241.605 1023.47 244.649 1009.73 247.976C979.95 255.178 950.257 263.683 920.92 271.498C891.236 279.404 862.414 286.869 833.424 293.909C799.525 302.151 765.231 309.606 730.032 314.95C717.723 316.822 705.295 318.438 692.756 319.748C669.641 322.155 645.927 322.859 622.378 321.606C594.206 320.108 566.374 315.785 539.974 307.549C485.741 290.599 438.845 259.053 387.056 238.713C371.592 232.639 355.756 227.467 339.423 224.08" stroke="#D5D5D5" stroke-width="0.387624" stroke-miterlimit="10"/>
<path d="M1512.53 359.891C1512.53 359.891 1450.73 403.184 1356.39 338.655C1262.06 274.126 1229.59 204.502 1054.06 235.947C932.755 257.678 818.323 310.978 696.035 326.961C645.722 333.537 592.991 330.44 544.896 313.46C491.054 294.449 444.538 259.988 392.608 236.836C377.1 229.924 361.184 223.92 344.709 219.738" stroke="#D5D5D5" stroke-width="0.387624" stroke-miterlimit="10"/>
</svg>
