<svg width="196" height="50" viewBox="0 0 196 50" fill="none" xmlns="http://www.w3.org/2000/svg">
<path d="M183.948 0.921875H12.3957C5.94099 0.921875 0.708435 6.14233 0.708435 12.5821V37.9847C0.708435 44.4244 5.94099 49.6449 12.3957 49.6449H183.948C190.402 49.6449 195.635 44.4244 195.635 37.9847V12.5821C195.635 6.14233 190.402 0.921875 183.948 0.921875Z" stroke="#9AA0A6" stroke-width="0.602021"/>
<path d="M11.6544 22.8223C10.5392 22.8223 9.63672 23.7226 9.63672 24.8353V27.0314C9.63672 28.144 10.5392 29.0444 11.6544 29.0444C12.7697 29.0444 13.6721 28.144 13.6721 27.0314V24.8353C13.6721 23.7226 12.7697 22.8223 11.6544 22.8223Z" fill="#0066D9"/>
<path d="M39.9027 22.8223C38.7874 22.8223 37.8849 23.7226 37.8849 24.8353V27.0314C37.8849 28.144 38.7874 29.0444 39.9027 29.0444C41.0179 29.0444 41.9204 28.144 41.9204 27.0314V24.8353C41.9204 23.7226 41.0179 22.8223 39.9027 22.8223Z" fill="#4285F4"/>
<path d="M18.6246 29.4102C17.5094 29.4102 16.6069 30.3105 16.6069 31.4232V33.6192C16.6069 34.7319 17.5094 35.6323 18.6246 35.6323C19.7399 35.6323 20.6424 34.7319 20.6424 33.6192V31.4232C20.6424 30.3105 19.7399 29.4102 18.6246 29.4102Z" fill="#EA4335"/>
<path d="M18.6246 16.2344C17.5094 16.2344 16.6069 17.1348 16.6069 18.2474V25.4303H16.6088C16.6344 26.521 17.5259 27.3976 18.6246 27.3976C19.7234 27.3976 20.6148 26.521 20.6405 25.4303H20.6424V18.2474C20.6424 17.1348 19.7399 16.2344 18.6246 16.2344Z" fill="#EA4335"/>
<path d="M32.9321 16.2344C31.8168 16.2344 30.9144 17.1348 30.9144 18.2474V20.4435C30.9144 21.5561 31.8168 22.4565 32.9321 22.4565C34.0473 22.4565 34.9498 21.5561 34.9498 20.4435V18.2474C34.9498 17.1348 34.0473 16.2344 32.9321 16.2344Z" fill="#34A853"/>
<path d="M25.7785 9.82812C24.6633 9.82812 23.7608 10.7285 23.7608 11.8412V14.0372C23.7608 15.1499 24.6633 16.0503 25.7785 16.0503C26.8938 16.0503 27.7962 15.1499 27.7962 14.0372V11.8412C27.7962 10.7285 26.8938 9.82812 25.7785 9.82812Z" fill="#FAB908"/>
<path d="M25.7785 35.8164C24.6633 35.8164 23.7608 36.7168 23.7608 37.8295V40.0255C23.7608 41.1382 24.6633 42.0385 25.7785 42.0385C26.8938 42.0385 27.7962 41.1382 27.7962 40.0255V37.8295C27.7962 36.7168 26.8938 35.8164 25.7785 35.8164Z" fill="#FAB908"/>
<path d="M32.9321 24.4707C31.8168 24.4707 30.9144 25.3711 30.9144 26.4837V33.6209C30.9144 34.7336 31.8168 35.6339 32.9321 35.6339C34.0473 35.6339 34.9498 34.7336 34.9498 33.6209V26.4837C34.9498 25.3711 34.0473 24.4707 32.9321 24.4707Z" fill="#34A853"/>
<path d="M27.7962 20.0775C27.7962 18.9648 26.8938 18.0645 25.7785 18.0645C24.6633 18.0645 23.7608 18.9648 23.7608 20.0775V24.9582V26.9109V31.7898C23.7608 32.9024 24.6633 33.8028 25.7785 33.8028C26.8938 33.8028 27.7962 32.9024 27.7962 31.7898V26.909V24.9582V20.0775Z" fill="#FAB908"/>
<path d="M116.882 38.3749V33.055H119.749C120.479 33.055 121.155 32.891 121.776 32.563C122.397 32.2351 122.893 31.7766 123.264 31.1875C123.635 30.5984 123.821 29.9334 123.821 29.1925C123.821 28.4516 123.635 27.7866 123.264 27.1975C122.893 26.6084 122.397 26.1499 121.776 25.822C121.155 25.4941 120.479 25.3301 119.749 25.3301H115.348V38.3749H116.882ZM119.785 31.5792H116.882V26.8058H119.785C120.272 26.8058 120.701 26.9212 121.073 27.152C121.444 27.3828 121.733 27.6803 121.94 28.0447C122.147 28.4091 122.25 28.7917 122.25 29.1925C122.25 29.5933 122.147 29.9759 121.94 30.3403C121.733 30.7047 121.444 31.0023 121.073 31.2331C120.701 31.4638 120.272 31.5792 119.785 31.5792ZM128.952 38.6664C129.865 38.6664 130.687 38.4478 131.418 38.0105C132.148 37.5733 132.717 36.9781 133.125 36.2251C133.533 35.472 133.737 34.64 133.737 33.7291C133.737 32.8181 133.533 31.9861 133.125 31.2331C132.717 30.48 132.148 29.8848 131.418 29.4476C130.687 29.0103 129.865 28.7917 128.952 28.7917C128.039 28.7917 127.218 29.0103 126.487 29.4476C125.757 29.8848 125.188 30.48 124.78 31.2331C124.372 31.9861 124.168 32.8181 124.168 33.7291C124.168 34.64 124.372 35.472 124.78 36.2251C125.188 36.9781 125.757 37.5733 126.487 38.0105C127.218 38.4478 128.039 38.6664 128.952 38.6664ZM128.952 37.2636C128.38 37.2636 127.845 37.1209 127.345 36.8354C126.846 36.55 126.448 36.1401 126.149 35.6056C125.851 35.0712 125.702 34.4457 125.702 33.7291C125.702 33.0125 125.851 32.3869 126.149 31.8525C126.448 31.3181 126.846 30.9081 127.345 30.6227C127.845 30.3373 128.38 30.1946 128.952 30.1946C129.525 30.1946 130.057 30.3373 130.55 30.6227C131.043 30.9081 131.439 31.3181 131.737 31.8525C132.036 32.3869 132.185 33.0125 132.185 33.7291C132.185 34.4457 132.036 35.0712 131.737 35.6056C131.439 36.1401 131.043 36.55 130.55 36.8354C130.057 37.1209 129.525 37.2636 128.952 37.2636ZM139.234 38.6664C139.952 38.6664 140.591 38.5055 141.151 38.1836C141.711 37.8618 142.137 37.4701 142.429 37.0085H142.502V38.3749H143.981V25.3301H142.429V29.1743L142.502 30.4679H142.429C142.137 29.9942 141.711 29.5964 141.151 29.2745C140.591 28.9526 139.952 28.7917 139.234 28.7917C138.406 28.7917 137.654 29.0043 136.978 29.4294C136.303 29.8545 135.77 30.4436 135.38 31.1966C134.991 31.9497 134.796 32.7938 134.796 33.7291C134.796 34.6765 134.991 35.5236 135.38 36.2706C135.77 37.0176 136.303 37.6037 136.978 38.0288C137.654 38.4539 138.406 38.6664 139.234 38.6664ZM139.416 37.2636C138.88 37.2636 138.375 37.1178 137.9 36.8263C137.426 36.5348 137.045 36.1188 136.759 35.5783C136.473 35.0378 136.33 34.4214 136.33 33.7291C136.33 33.0367 136.473 32.4203 136.759 31.8798C137.045 31.3393 137.426 30.9233 137.9 30.6318C138.375 30.3403 138.88 30.1946 139.416 30.1946C139.964 30.1946 140.472 30.3403 140.941 30.6318C141.41 30.9233 141.787 31.3363 142.073 31.8707C142.359 32.4052 142.502 33.0246 142.502 33.7291C142.502 34.4335 142.359 35.053 142.073 35.5874C141.787 36.1218 141.41 36.5348 140.941 36.8263C140.472 37.1178 139.964 37.2636 139.416 37.2636ZM150.154 38.6664C151.152 38.6664 152.001 38.4296 152.701 37.9559C153.401 37.4822 153.91 36.8627 154.226 36.0975L152.838 35.5145C152.607 36.0733 152.254 36.5044 151.779 36.8081C151.304 37.1117 150.738 37.2636 150.081 37.2636C149.533 37.2636 149.022 37.1148 148.547 36.8172C148.072 36.5196 147.692 36.1036 147.405 35.5692C147.119 35.0348 146.976 34.4214 146.976 33.7291C146.976 33.0367 147.119 32.4234 147.405 31.8889C147.692 31.3545 148.072 30.9385 148.547 30.6409C149.022 30.3434 149.533 30.1946 150.081 30.1946C150.726 30.1946 151.277 30.3434 151.733 30.6409C152.19 30.9385 152.534 31.3727 152.765 31.9436L154.171 31.3606C153.879 30.5832 153.389 29.9608 152.701 29.4931C152.013 29.0255 151.164 28.7917 150.154 28.7917C149.253 28.7917 148.443 29.0043 147.725 29.4294C147.007 29.8545 146.447 30.4436 146.045 31.1966C145.643 31.9497 145.442 32.7938 145.442 33.7291C145.442 34.6643 145.643 35.5054 146.045 36.2524C146.447 36.9994 147.007 37.5885 147.725 38.0197C148.443 38.4508 149.253 38.6664 150.154 38.6664ZM158.536 38.6664C159.205 38.6664 159.808 38.5085 160.344 38.1927C160.879 37.8769 161.281 37.4943 161.549 37.0449H161.622V38.3749H163.101V32.4902C163.101 31.3484 162.739 30.4466 162.015 29.7846C161.29 29.1227 160.295 28.7917 159.029 28.7917C158.25 28.7917 157.54 28.9496 156.901 29.2654C156.262 29.5812 155.76 30.0185 155.395 30.5772L156.564 31.4517C156.819 31.0509 157.166 30.7381 157.604 30.5134C158.043 30.2887 158.524 30.1764 159.047 30.1764C159.79 30.1764 160.404 30.3859 160.891 30.8049C161.378 31.2239 161.622 31.7796 161.622 32.472V33.0367C161.366 32.8788 160.998 32.7392 160.517 32.6177C160.036 32.4962 159.516 32.4355 158.956 32.4355C157.824 32.4355 156.886 32.7118 156.143 33.2645C155.401 33.8171 155.03 34.5854 155.03 35.5692C155.03 36.1644 155.176 36.6957 155.468 37.1634C155.76 37.631 156.174 37.9984 156.71 38.2656C157.245 38.5328 157.854 38.6664 158.536 38.6664ZM158.682 37.3C158.085 37.3 157.592 37.1421 157.203 36.8263C156.813 36.5105 156.618 36.0975 156.618 35.5874C156.618 35.0287 156.834 34.5732 157.267 34.221C157.699 33.8687 158.341 33.6926 159.193 33.6926C159.668 33.6926 160.118 33.7534 160.544 33.8748C160.971 33.9963 161.33 34.1542 161.622 34.3485C161.622 34.8829 161.488 35.3749 161.22 35.8243C160.952 36.2737 160.593 36.632 160.143 36.8992C159.692 37.1664 159.205 37.3 158.682 37.3ZM168.159 38.6664C168.841 38.6664 169.462 38.551 170.022 38.3203C170.582 38.0895 171.026 37.7585 171.355 37.3273C171.684 36.8961 171.848 36.3951 171.848 35.8243C171.848 35.1684 171.617 34.6127 171.154 34.1572C170.692 33.7017 170.004 33.3586 169.091 33.1278L167.739 32.7817C167.204 32.6481 166.802 32.475 166.534 32.2624C166.266 32.0499 166.132 31.7736 166.132 31.4335C166.132 31.0691 166.324 30.7685 166.708 30.5316C167.091 30.2948 167.539 30.1764 168.05 30.1764C169.109 30.1764 169.846 30.5893 170.259 31.4152L171.611 30.7958C171.343 30.1642 170.89 29.6723 170.25 29.3201C169.611 28.9678 168.884 28.7917 168.068 28.7917C167.447 28.7917 166.869 28.901 166.333 29.1196C165.798 29.3383 165.369 29.651 165.046 30.0579C164.723 30.4648 164.562 30.9355 164.562 31.4699C164.562 32.1622 164.799 32.727 165.274 33.1643C165.749 33.6015 166.358 33.9113 167.1 34.0935L168.232 34.385C168.939 34.555 169.456 34.7584 169.785 34.9953C170.113 35.2321 170.278 35.5449 170.278 35.9336C170.278 36.3708 170.071 36.7079 169.657 36.9447C169.243 37.1816 168.744 37.3 168.159 37.3C167.612 37.3 167.109 37.1482 166.653 36.8445C166.196 36.5409 165.852 36.1097 165.621 35.551L164.233 36.1704C164.513 36.8992 164.988 37.4974 165.658 37.965C166.327 38.4326 167.161 38.6664 168.159 38.6664ZM176.779 38.5207C177.071 38.5207 177.311 38.5025 177.5 38.466C177.689 38.4296 177.874 38.3689 178.057 38.2838V36.7717C177.728 36.9781 177.387 37.0814 177.034 37.0814C176.596 37.0814 176.261 36.9478 176.03 36.6806C175.835 36.4376 175.738 36.0611 175.738 35.551V30.4861H178.002V29.0832H175.738V26.4597H174.186V29.0832H172.56V30.4861H174.186V35.9336C174.186 36.3708 174.247 36.7413 174.368 37.0449C174.49 37.3486 174.673 37.6158 174.916 37.8466C175.135 38.0531 175.406 38.217 175.729 38.3385C176.051 38.46 176.401 38.5207 176.779 38.5207ZM183.061 38.6664C183.742 38.6664 184.363 38.551 184.923 38.3203C185.483 38.0895 185.928 37.7585 186.256 37.3273C186.585 36.8961 186.749 36.3951 186.749 35.8243C186.749 35.1684 186.518 34.6127 186.056 34.1572C185.593 33.7017 184.905 33.3586 183.992 33.1278L182.641 32.7817C182.105 32.6481 181.703 32.475 181.435 32.2624C181.168 32.0499 181.034 31.7736 181.034 31.4335C181.034 31.0691 181.225 30.7685 181.609 30.5316C181.992 30.2948 182.44 30.1764 182.951 30.1764C184.01 30.1764 184.747 30.5893 185.161 31.4152L186.512 30.7958C186.244 30.1642 185.791 29.6723 185.152 29.3201C184.512 28.9678 183.785 28.7917 182.969 28.7917C182.348 28.7917 181.77 28.901 181.235 29.1196C180.699 29.3383 180.27 29.651 179.947 30.0579C179.625 30.4648 179.463 30.9355 179.463 31.4699C179.463 32.1622 179.701 32.727 180.175 33.1643C180.65 33.6015 181.259 33.9113 182.002 34.0935L183.134 34.385C183.84 34.555 184.357 34.7584 184.686 34.9953C185.015 35.2321 185.179 35.5449 185.179 35.9336C185.179 36.3708 184.972 36.7079 184.558 36.9447C184.144 37.1816 183.645 37.3 183.061 37.3C182.513 37.3 182.011 37.1482 181.554 36.8445C181.098 36.5409 180.754 36.1097 180.522 35.551L179.134 36.1704C179.415 36.8992 179.889 37.4974 180.559 37.965C181.228 38.4326 182.062 38.6664 183.061 38.6664Z" fill="#3C4043"/>
<path d="M92.46 28.9442C93.6104 28.9442 94.5194 29.4543 94.9881 30.0212H95.0591V29.2418H97.076V37.8432C97.076 41.3858 94.9881 42.8312 92.5168 42.8312C90.1874 42.8312 88.7813 41.2725 88.2558 39.9971L90.088 39.2319C90.4147 40.0113 91.2101 40.9324 92.5026 40.9324C94.0791 40.9324 95.0591 39.9546 95.0591 38.1266V37.4323H94.9881C94.5194 38.0133 93.6104 38.5234 92.46 38.5234C90.0596 38.5234 87.8581 36.4262 87.8581 33.748C87.8581 31.0414 90.0596 28.9442 92.46 28.9442ZM71.6522 29.0859C74.3082 29.0859 76.4671 31.0981 76.4671 33.8755C76.4671 36.6387 74.3082 38.6651 71.6522 38.6651C68.9962 38.6651 66.8373 36.6387 66.8373 33.8755C66.8373 31.0981 68.9962 29.0859 71.6522 29.0859ZM82.1626 29.0859C84.8186 29.0859 86.9775 31.0981 86.9775 33.8755C86.9775 36.6387 84.8186 38.6651 82.1626 38.6651C79.5066 38.6651 77.3477 36.6387 77.3477 33.8755C77.3477 31.0981 79.5066 29.0859 82.1626 29.0859ZM106.166 29.0859C108.652 29.0859 109.873 31.0556 110.271 32.1326L110.484 32.671L104.064 35.3209C104.561 36.2703 105.314 36.7663 106.393 36.7663C107.473 36.7663 108.211 36.242 108.765 35.4484L110.399 36.5395C109.859 37.3189 108.595 38.6651 106.393 38.6651C103.666 38.6651 101.635 36.5537 101.635 33.8755C101.635 31.0273 103.695 29.0859 106.166 29.0859ZM59.2102 23.7012C61.4827 23.7012 63.1018 24.5939 64.3233 25.7559L62.8746 27.1871C62.0082 26.3652 60.8293 25.7275 59.2102 25.7275C56.2133 25.7275 53.8697 28.1365 53.8697 31.1265C53.8697 34.1164 56.2133 36.5254 59.2102 36.5254C61.156 36.5254 62.2639 35.746 62.974 35.0375C63.5564 34.4565 63.9398 33.6204 64.0819 32.4868H59.2102V30.4604H66.0703C66.1413 30.8289 66.184 31.254 66.184 31.7358C66.184 33.2662 65.7721 35.1508 64.4228 36.4829C63.1018 37.8432 61.4259 38.5659 59.2102 38.5659C55.0912 38.5659 51.6398 35.2359 51.6398 31.1406C51.6398 27.0312 55.0912 23.7012 59.2102 23.7012ZM100.613 24.268V38.3392H98.5105V24.268H100.613ZM71.6522 30.9564C70.1893 30.9564 68.9394 32.1326 68.9394 33.8613C68.9394 35.576 70.2035 36.7663 71.6522 36.7663C73.1009 36.7663 74.365 35.576 74.365 33.8613C74.365 32.1326 73.1009 30.9564 71.6522 30.9564ZM82.1626 30.9564C80.6997 30.9564 79.4498 32.1326 79.4498 33.8613C79.4498 35.576 80.7139 36.7663 82.1626 36.7663C83.6113 36.7663 84.8754 35.576 84.8754 33.8613C84.8754 32.1326 83.6255 30.9564 82.1626 30.9564ZM92.6446 30.8289C91.1959 30.8289 89.9744 32.0617 89.9744 33.748C89.9744 35.4201 91.1959 36.6387 92.6446 36.6387C94.0791 36.6387 95.2154 35.4343 95.2012 33.748C95.2012 32.0617 94.0791 30.8289 92.6446 30.8289ZM106.237 30.9281C105.158 30.9281 103.666 31.8775 103.723 33.7196L108.013 31.9483C107.785 31.339 107.075 30.9281 106.237 30.9281Z" fill="#3C4043"/>
<path d="M57.9677 19.038V18.0324H53.5379V9.71209H52.2988V19.038H57.9677ZM60.2224 10.9419C60.4535 10.9419 60.629 10.8778 60.7488 10.7497C60.8687 10.6216 60.9286 10.4615 60.9286 10.2693C60.9286 10.0772 60.8687 9.91492 60.7488 9.78254C60.629 9.65017 60.4535 9.58398 60.2224 9.58398C59.9913 9.58398 59.8169 9.65017 59.6992 9.78254C59.5815 9.91492 59.5226 10.0772 59.5226 10.2693C59.5226 10.4615 59.5815 10.6216 59.6992 10.7497C59.8169 10.8778 59.9913 10.9419 60.2224 10.9419ZM60.8066 19.038V12.1076H59.6189V19.038H60.8066ZM65.5908 19.1661C66.3826 19.1661 67.0267 18.9793 67.5232 18.6056C68.0197 18.232 68.2679 17.7356 68.2679 17.1164C68.2679 16.7449 68.1791 16.43 68.0015 16.1717C67.8239 15.9133 67.551 15.6924 67.1829 15.5087C66.8149 15.3251 66.3344 15.1671 65.7417 15.0348C65.1489 14.9024 64.7391 14.7636 64.5122 14.6184C64.2854 14.4732 64.172 14.2576 64.172 13.9715C64.172 13.6683 64.2939 13.4228 64.5379 13.2349C64.7819 13.047 65.12 12.9531 65.5523 12.9531C65.9717 12.9531 66.3195 13.0705 66.5955 13.3054C66.8716 13.5402 67.0096 13.8199 67.0096 14.1444H68.2037C68.2037 13.5125 67.9587 12.9937 67.4686 12.588C66.9786 12.1823 66.3398 11.9795 65.5523 11.9795C64.8033 11.9795 64.188 12.1759 63.7065 12.5688C63.225 12.9616 62.9843 13.442 62.9843 14.0099C62.9843 14.3515 63.0688 14.6462 63.2379 14.8938C63.4069 15.1415 63.668 15.355 64.0211 15.5344C64.3742 15.7137 64.8514 15.8674 65.4527 15.9955C66.0541 16.1236 66.4757 16.2763 66.7175 16.4535C66.9593 16.6307 67.0802 16.8794 67.0802 17.1997C67.0802 17.5029 66.9443 17.7452 66.6726 17.9267C66.4008 18.1082 66.0402 18.1989 65.5908 18.1989C65.1029 18.1989 64.7102 18.0825 64.4127 17.8498C64.1153 17.6171 63.9558 17.3022 63.9344 16.9051H62.7467C62.7467 17.315 62.8676 17.6961 63.1095 18.0484C63.3513 18.4007 63.6862 18.675 64.1142 18.8714C64.5422 19.0679 65.0344 19.1661 65.5908 19.1661ZM72.1726 19.1661C72.4679 19.1661 72.7718 19.1234 73.0842 19.038V18.0772C72.8445 18.1284 72.6562 18.1541 72.5192 18.1541C72.241 18.1541 72.0442 18.0847 71.9286 17.9459C71.813 17.8071 71.7553 17.599 71.7553 17.3214V13.0235H73.0521V12.1076H71.7553V10.4295H70.5676V12.1076H69.3028V13.0235H70.5676V17.3214C70.5676 17.9107 70.7024 18.3654 70.972 18.6857C71.2417 19.0059 71.6418 19.1661 72.1726 19.1661ZM77.6501 19.1661C78.8143 19.1661 79.6874 18.7199 80.2695 17.8274L79.544 17.2637C79.3257 17.5456 79.0711 17.7719 78.78 17.9427C78.489 18.1135 78.1337 18.1989 77.7143 18.1989C77.1237 18.1989 76.6368 17.9886 76.2537 17.568C75.8707 17.1474 75.6706 16.5955 75.6535 15.9123H80.3593V15.4191C80.3593 14.3131 80.109 13.4634 79.6082 12.8698C79.1074 12.2763 78.4055 11.9795 77.5024 11.9795C76.9503 11.9795 76.4378 12.1322 75.9648 12.4375C75.4919 12.7428 75.1238 13.1655 74.8606 13.7057C74.5974 14.2459 74.4658 14.8597 74.4658 15.5472V15.7649C74.4658 16.7983 74.7611 17.6235 75.3517 18.2405C75.9424 18.8576 76.7085 19.1661 77.6501 19.1661ZM79.1716 14.9387H75.692C75.769 14.311 75.9702 13.8231 76.2955 13.4751C76.6208 13.1271 77.0231 12.9531 77.5024 12.9531C77.9989 12.9531 78.3927 13.1186 78.6837 13.4495C78.9748 13.7804 79.1374 14.2469 79.1716 14.849V14.9387ZM83.2496 19.038V14.0996C83.4123 13.7665 83.6391 13.4975 83.9301 13.2926C84.2212 13.0876 84.5593 12.9851 84.9445 12.9851C85.4196 12.9851 85.7695 13.1047 85.9942 13.3438C86.2189 13.5829 86.3334 13.9523 86.3376 14.4519V19.038H87.5253V14.4583C87.5125 12.8058 86.7721 11.9795 85.304 11.9795C84.448 11.9795 83.7547 12.3126 83.2239 12.9787L83.1854 12.1076H82.0619V19.038H83.2496ZM96.0793 19.1661C96.7042 19.1661 97.2574 19.0166 97.7389 18.7177C98.2204 18.4188 98.5906 18.0014 98.8496 17.4655C99.1085 16.9296 99.238 16.3243 99.238 15.6497V15.5664C99.238 14.4818 98.9459 13.6128 98.3616 12.9595C97.7774 12.3062 97.0124 11.9795 96.0665 11.9795C95.4544 11.9795 94.9098 12.1268 94.4326 12.4215C93.9554 12.7161 93.583 13.1346 93.3155 13.6769C93.048 14.2192 92.9143 14.8298 92.9143 15.5087V15.592C92.9143 16.6681 93.2064 17.5328 93.7906 18.1861C94.3748 18.8394 95.1377 19.1661 96.0793 19.1661ZM96.0793 18.1989C95.4801 18.1989 95.0018 17.9662 94.6445 17.5007C94.2871 17.0353 94.1084 16.4183 94.1084 15.6497C94.1084 14.7828 94.2882 14.1167 94.6477 13.6512C95.0072 13.1858 95.4801 12.9531 96.0665 12.9531C96.6657 12.9531 97.1461 13.189 97.5078 13.6609C97.8694 14.1327 98.0503 14.7487 98.0503 15.5087C98.0503 16.3585 97.8726 17.0193 97.5174 17.4911C97.1622 17.963 96.6828 18.1989 96.0793 18.1989ZM102.244 19.038V14.0996C102.406 13.7665 102.633 13.4975 102.924 13.2926C103.215 13.0876 103.553 12.9851 103.939 12.9851C104.414 12.9851 104.764 13.1047 104.988 13.3438C105.213 13.5829 105.328 13.9523 105.332 14.4519V19.038H106.52V14.4583C106.507 12.8058 105.766 11.9795 104.298 11.9795C103.442 11.9795 102.749 12.3126 102.218 12.9787L102.18 12.1076H101.056V19.038H102.244Z" fill="#5F6368"/>
</svg>
