<svg width="36" height="37" viewBox="0 0 36 37" fill="none" xmlns="http://www.w3.org/2000/svg">
<g id="instagram logo" clip-path="url(#clip0_2281_1947)">
<g id="Group">
<path id="Vector" d="M25.2754 0H10.7246C4.81103 0 0 4.94467 0 11.0225V25.9775C0 32.0553 4.81103 37 10.7246 37H25.2754C31.189 37 36 32.0553 36 25.9775V11.0225C35.9999 4.94467 31.1889 0 25.2754 0ZM32.3784 25.9775C32.3784 30.0093 29.1982 33.2778 25.2754 33.2778H10.7246C6.80175 33.2778 3.6216 30.0093 3.6216 25.9775V11.0225C3.6216 6.99062 6.80175 3.7222 10.7246 3.7222H25.2754C29.1982 3.7222 32.3784 6.99062 32.3784 11.0225V25.9775Z" fill="url(#paint0_linear_2281_1947)"/>
<path id="Vector_2" d="M17.9998 8.92969C12.8658 8.92969 8.68896 13.2226 8.68896 18.4991C8.68896 23.7757 12.8658 28.0687 17.9998 28.0687C23.1339 28.0687 27.3107 23.7758 27.3107 18.4991C27.3107 13.2225 23.1339 8.92969 17.9998 8.92969ZM17.9998 24.3465C14.8577 24.3465 12.3106 21.7286 12.3106 18.4992C12.3106 15.2698 14.8578 12.6519 17.9998 12.6519C21.142 12.6519 23.6891 15.2698 23.6891 18.4992C23.6891 21.7285 21.1419 24.3465 17.9998 24.3465Z" fill="url(#paint1_linear_2281_1947)"/>
<path id="Vector_3" d="M27.3287 11.2951C28.5609 11.2951 29.5598 10.2685 29.5598 9.00204C29.5598 7.73562 28.5609 6.70898 27.3287 6.70898C26.0965 6.70898 25.0977 7.73562 25.0977 9.00204C25.0977 10.2685 26.0965 11.2951 27.3287 11.2951Z" fill="url(#paint2_linear_2281_1947)"/>
</g>
</g>
<defs>
<linearGradient id="paint0_linear_2281_1947" x1="18" y1="36.8923" x2="18" y2="0.287385" gradientUnits="userSpaceOnUse">
<stop stop-color="#E09B3D"/>
<stop offset="0.3" stop-color="#C74C4D"/>
<stop offset="0.6" stop-color="#C21975"/>
<stop offset="1" stop-color="#7024C4"/>
</linearGradient>
<linearGradient id="paint1_linear_2281_1947" x1="17.9998" y1="36.8915" x2="17.9998" y2="0.286591" gradientUnits="userSpaceOnUse">
<stop stop-color="#E09B3D"/>
<stop offset="0.3" stop-color="#C74C4D"/>
<stop offset="0.6" stop-color="#C21975"/>
<stop offset="1" stop-color="#7024C4"/>
</linearGradient>
<linearGradient id="paint2_linear_2281_1947" x1="27.3287" y1="36.892" x2="27.3287" y2="0.287095" gradientUnits="userSpaceOnUse">
<stop stop-color="#E09B3D"/>
<stop offset="0.3" stop-color="#C74C4D"/>
<stop offset="0.6" stop-color="#C21975"/>
<stop offset="1" stop-color="#7024C4"/>
</linearGradient>
<clipPath id="clip0_2281_1947">
<rect width="36" height="37" fill="white"/>
</clipPath>
</defs>
</svg>
