<svg width="156" height="168" viewBox="0 0 156 168" fill="none" xmlns="http://www.w3.org/2000/svg">
<path d="M50.952 21.272C50.744 21.288 50.552 21.24 50.376 21.128C50.216 21.032 50.104 20.904 50.04 20.744C49.976 20.664 49.88 20.528 49.752 20.336C49.624 20.144 49.544 19.952 49.512 19.76C49.464 19.248 49.432 18.752 49.416 18.272C49.416 17.792 49.44 17.12 49.488 16.256C49.536 15.552 49.624 14.872 49.752 14.216C49.896 13.544 50.032 12.944 50.16 12.416C50.304 11.888 50.416 11.472 50.496 11.168C50.576 10.848 50.592 10.688 50.544 10.688C50.48 10.688 50.384 10.808 50.256 11.048C50.128 11.272 49.984 11.552 49.824 11.888C49.664 12.224 49.504 12.56 49.344 12.896C49.184 13.216 49.048 13.48 48.936 13.688C48.712 14.184 48.448 14.712 48.144 15.272C47.856 15.816 47.56 16.344 47.256 16.856C46.952 17.368 46.688 17.816 46.464 18.2C46.32 18.36 46.152 18.592 45.96 18.896C45.768 19.184 45.56 19.488 45.336 19.808C45.112 20.128 44.88 20.392 44.64 20.6C44.288 20.936 43.936 21.12 43.584 21.152C43.248 21.184 42.96 21.096 42.72 20.888C42.672 20.824 42.616 20.744 42.552 20.648C42.504 20.568 42.464 20.456 42.432 20.312C42.4 20.168 42.408 20 42.456 19.808C42.44 19.584 42.44 19.24 42.456 18.776C42.488 18.296 42.536 17.776 42.6 17.216C42.664 16.64 42.728 16.088 42.792 15.56C42.872 15.032 42.944 14.592 43.008 14.24C43.152 13.216 43.344 12.168 43.584 11.096C43.84 10.024 44.072 8.944 44.28 7.856C44.408 7.536 44.52 7.176 44.616 6.776C44.728 6.36 44.84 5.976 44.952 5.624C44.968 5.272 45.048 5.04 45.192 4.928C45.336 4.8 45.496 4.76 45.672 4.808C45.864 4.84 46.016 4.936 46.128 5.096C46.288 5.256 46.408 5.504 46.488 5.84C46.584 6.176 46.52 6.6 46.296 7.112C45.976 7.896 45.664 8.856 45.36 9.992C45.072 11.112 44.808 12.472 44.568 14.072C44.504 14.456 44.432 14.912 44.352 15.44C44.272 15.968 44.2 16.48 44.136 16.976C44.072 17.472 44.024 17.888 43.992 18.224C43.976 18.56 43.984 18.736 44.016 18.752C44.144 18.784 44.32 18.688 44.544 18.464C44.768 18.224 44.968 17.912 45.144 17.528C45.8 16.44 46.448 15.304 47.088 14.12C47.744 12.92 48.368 11.736 48.96 10.568C49.232 10.104 49.504 9.6 49.776 9.056C50.064 8.496 50.336 7.984 50.592 7.52C50.864 7.04 51.112 6.608 51.336 6.224C51.56 5.824 51.752 5.496 51.912 5.24C52.072 4.984 52.2 4.84 52.296 4.808C52.552 4.824 52.768 4.888 52.944 5C53.136 5.096 53.296 5.304 53.424 5.624C53.456 5.704 53.448 5.84 53.4 6.032C53.352 6.224 53.296 6.392 53.232 6.536C53.216 6.648 53.144 6.88 53.016 7.232C52.904 7.584 52.8 7.976 52.704 8.408C52.544 8.84 52.4 9.272 52.272 9.704C52.16 10.12 52.08 10.464 52.032 10.736C51.904 11.424 51.744 12.184 51.552 13.016C51.36 13.832 51.192 14.648 51.048 15.464C50.92 16.264 50.848 16.984 50.832 17.624C50.816 18.072 50.816 18.424 50.832 18.68C50.864 18.936 50.912 19.136 50.976 19.28C51.008 19.408 51.104 19.488 51.264 19.52C51.44 19.552 51.584 19.496 51.696 19.352C52.016 18.952 52.288 18.592 52.512 18.272C52.752 17.936 52.976 17.6 53.184 17.264C53.392 16.912 53.608 16.52 53.832 16.088C54.232 15.352 54.64 14.536 55.056 13.64C55.488 12.728 55.896 11.824 56.28 10.928C56.68 10.032 57.024 9.248 57.312 8.576C57.616 7.712 57.856 7.024 58.032 6.512C58.224 6 58.392 5.616 58.536 5.36C58.68 5.104 58.832 4.928 58.992 4.832C59.072 4.768 59.184 4.736 59.328 4.736C59.472 4.736 59.616 4.8 59.76 4.928C59.824 4.992 59.88 5.096 59.928 5.24C59.992 5.368 60.016 5.528 60 5.72C59.92 5.976 59.776 6.384 59.568 6.944C59.376 7.504 59.152 8.12 58.896 8.792C58.64 9.464 58.392 10.104 58.152 10.712C57.912 11.32 57.704 11.808 57.528 12.176C57.352 12.512 57.184 12.8 57.024 13.04C56.864 13.28 56.784 13.464 56.784 13.592C56.784 13.656 56.704 13.856 56.544 14.192C56.384 14.512 56.176 14.904 55.92 15.368C55.68 15.832 55.416 16.312 55.128 16.808C54.84 17.304 54.568 17.76 54.312 18.176C54.056 18.592 53.84 18.912 53.664 19.136C53.264 19.632 52.872 20.04 52.488 20.36C52.12 20.68 51.8 20.912 51.528 21.056C51.256 21.2 51.064 21.272 50.952 21.272ZM58.8414 19.136C58.7774 19.008 58.6974 18.912 58.6014 18.848C58.5054 18.768 58.4574 18.696 58.4574 18.632C58.4574 18.568 58.4494 18.504 58.4334 18.44C58.4334 18.36 58.4014 18.288 58.3374 18.224C58.2574 18.128 58.2654 17.912 58.3614 17.576C58.4574 17.224 58.6174 16.8 58.8414 16.304C59.0654 15.792 59.3294 15.256 59.6334 14.696C59.7614 14.568 59.8894 14.4 60.0174 14.192C60.1454 13.984 60.2414 13.848 60.3054 13.784C60.3054 13.72 60.3294 13.664 60.3774 13.616C60.4254 13.552 60.4814 13.52 60.5454 13.52V13.376C60.5454 13.296 60.6174 13.16 60.7614 12.968C60.9214 12.776 61.1134 12.568 61.3374 12.344C61.5614 12.104 61.7934 11.88 62.0334 11.672C62.2734 11.448 62.4734 11.288 62.6334 11.192C62.9694 10.968 63.3134 10.832 63.6654 10.784C64.0334 10.736 64.3454 10.816 64.6014 11.024C64.6494 11.072 64.7294 11.152 64.8414 11.264C64.9534 11.376 65.0814 11.504 65.2254 11.648C65.3854 11.776 65.5454 11.912 65.7054 12.056L66.5934 12.848L66.1614 14.048C65.9534 14.688 65.8974 15.248 65.9934 15.728C66.1054 16.208 66.2654 16.624 66.4734 16.976C66.5534 17.152 66.7134 17.32 66.9534 17.48C67.2094 17.64 67.4494 17.736 67.6734 17.768C67.8014 17.784 67.9214 17.832 68.0334 17.912C68.1454 17.992 68.2014 18.12 68.2014 18.296C68.2014 18.456 68.1694 18.584 68.1054 18.68C68.0414 18.776 67.9294 18.84 67.7694 18.872C67.2414 18.936 66.7454 18.808 66.2814 18.488C65.8334 18.168 65.4174 17.64 65.0334 16.904C64.9694 16.808 64.8814 16.632 64.7694 16.376C64.6734 16.104 64.6174 15.928 64.6014 15.848C64.5374 15.928 64.4174 16.08 64.2414 16.304C64.0654 16.512 63.9294 16.664 63.8334 16.76C62.6974 17.912 61.7134 18.688 60.8814 19.088C60.0654 19.472 59.3854 19.488 58.8414 19.136ZM59.7054 17.792C59.7054 17.904 59.8734 17.904 60.2094 17.792C60.5614 17.664 60.9374 17.44 61.3374 17.12C61.8814 16.656 62.4254 16.144 62.9694 15.584C63.5294 15.024 63.9774 14.504 64.3134 14.024L64.8414 13.16C64.6814 12.792 64.5054 12.544 64.3134 12.416C64.1374 12.272 63.9854 12.2 63.8574 12.2C63.6494 12.2 63.3374 12.392 62.9214 12.776C62.5214 13.16 62.0894 13.672 61.6254 14.312C61.1614 14.952 60.7214 15.656 60.3054 16.424C60.1454 16.744 60.0014 17.056 59.8734 17.36C59.7614 17.648 59.7054 17.792 59.7054 17.792ZM71.046 19.832C70.87 19.8 70.686 19.712 70.494 19.568C70.318 19.408 70.158 19.232 70.014 19.04C69.886 18.832 69.798 18.648 69.75 18.488C69.75 18.456 69.726 18.416 69.678 18.368C69.646 18.32 69.63 18.296 69.63 18.296C69.566 18.248 69.526 18.04 69.51 17.672C69.51 17.288 69.534 16.864 69.582 16.4C69.63 15.936 69.686 15.568 69.75 15.296C69.83 15.04 69.95 14.696 70.11 14.264C70.27 13.816 70.406 13.416 70.518 13.064L71.166 11.672L70.206 11.408C70.094 11.376 69.998 11.312 69.918 11.216C69.854 11.12 69.822 11.04 69.822 10.976C69.822 10.848 69.894 10.696 70.038 10.52C70.182 10.328 70.286 10.232 70.35 10.232C70.43 10.248 70.574 10.256 70.782 10.256C71.006 10.256 71.222 10.248 71.43 10.232C71.638 10.216 71.766 10.2 71.814 10.184C71.878 10.152 71.942 10.112 72.006 10.064C72.07 10 72.118 9.912 72.15 9.8C72.23 9.624 72.302 9.464 72.366 9.32C72.43 9.16 72.518 8.984 72.63 8.792C72.742 8.584 72.83 8.408 72.894 8.264C72.974 8.12 73.094 7.92 73.254 7.664C73.334 7.552 73.422 7.416 73.518 7.256C73.614 7.096 73.734 6.96 73.878 6.848C74.022 6.72 74.166 6.664 74.31 6.68C74.47 6.68 74.67 6.784 74.91 6.992C75.038 7.152 75.11 7.272 75.126 7.352C75.142 7.432 75.078 7.584 74.934 7.808C74.806 8.08 74.654 8.352 74.478 8.624C74.318 8.896 74.166 9.168 74.022 9.44C73.766 9.792 73.718 9.992 73.878 10.04C74.038 10.088 74.486 10.056 75.222 9.944C75.686 9.864 76.022 9.888 76.23 10.016C76.438 10.128 76.558 10.32 76.59 10.592C76.638 10.976 76.598 11.208 76.47 11.288C76.342 11.368 75.974 11.408 75.366 11.408C74.982 11.472 74.654 11.512 74.382 11.528C74.11 11.528 73.91 11.528 73.782 11.528C73.574 11.544 73.438 11.552 73.374 11.552C73.31 11.552 73.214 11.568 73.086 11.6C72.958 11.632 72.862 11.688 72.798 11.768C72.75 11.832 72.694 11.928 72.63 12.056C72.566 12.12 72.47 12.288 72.342 12.56C72.214 12.832 72.054 13.128 71.862 13.448C71.638 14.12 71.446 14.792 71.286 15.464C71.126 16.12 70.998 16.76 70.902 17.384C70.838 17.784 70.846 18.064 70.926 18.224C71.006 18.368 71.214 18.456 71.55 18.488C71.726 18.504 72.006 18.504 72.39 18.488C72.79 18.456 73.102 18.408 73.326 18.344C73.502 18.264 73.686 18.184 73.878 18.104C74.07 18.008 74.246 17.912 74.406 17.816C74.55 17.736 74.694 17.656 74.838 17.576C74.982 17.48 75.054 17.432 75.054 17.432C75.134 17.304 75.222 17.264 75.318 17.312C75.414 17.36 75.494 17.48 75.558 17.672C75.558 17.864 75.518 18.064 75.438 18.272C75.358 18.48 75.062 18.728 74.55 19.016C73.83 19.464 73.166 19.736 72.558 19.832C71.966 19.912 71.462 19.912 71.046 19.832ZM79.6153 19.448C79.2633 19.448 78.9993 19.432 78.8233 19.4C78.6473 19.368 78.5113 19.32 78.4153 19.256C78.3193 19.192 78.2073 19.104 78.0793 18.992C78.0153 18.864 77.9353 18.728 77.8393 18.584C77.7433 18.44 77.6633 18.336 77.5993 18.272C77.5353 18.032 77.5033 17.72 77.5033 17.336C77.5193 16.952 77.5673 16.536 77.6473 16.088C77.7433 15.64 77.8713 15.224 78.0313 14.84C78.0953 14.712 78.1513 14.584 78.1993 14.456C78.2473 14.328 78.2713 14.264 78.2713 14.264C78.2713 14.184 78.3673 13.992 78.5593 13.688C78.7673 13.384 78.9913 13.064 79.2313 12.728C79.4873 12.392 79.6953 12.152 79.8553 12.008C79.9673 11.88 80.1353 11.744 80.3593 11.6C80.5993 11.456 80.8073 11.352 80.9833 11.288C81.1593 11.224 81.3353 11.168 81.5113 11.12C81.7033 11.072 81.9193 11.048 82.1593 11.048C82.3833 11.048 82.5913 11.096 82.7833 11.192C82.9753 11.288 83.1593 11.456 83.3353 11.696C83.6233 11.984 83.7833 12.272 83.8153 12.56C83.8633 12.832 83.8553 13.112 83.7913 13.4C83.7113 13.72 83.6073 13.968 83.4793 14.144C83.3513 14.304 83.2073 14.376 83.0473 14.36C82.8873 14.344 82.7033 14.224 82.4953 14C82.4313 13.872 82.3993 13.768 82.3993 13.688C82.3993 13.592 82.4313 13.456 82.4953 13.28C82.5593 13.056 82.5593 12.824 82.4953 12.584C82.4313 12.344 82.3273 12.224 82.1833 12.224C81.9753 12.224 81.7433 12.32 81.4873 12.512C81.2473 12.688 80.9993 12.912 80.7433 13.184C80.6313 13.312 80.4713 13.512 80.2633 13.784C80.0713 14.04 79.8793 14.328 79.6873 14.648C79.4953 14.952 79.3353 15.248 79.2073 15.536C79.0313 16.064 78.8873 16.488 78.7753 16.808C78.6793 17.128 78.6313 17.288 78.6313 17.288C78.6313 17.352 78.6473 17.416 78.6793 17.48C78.7273 17.528 78.7513 17.584 78.7513 17.648C78.7513 17.84 78.8633 17.992 79.0873 18.104C79.2633 18.216 79.4713 18.28 79.7113 18.296C79.9513 18.296 80.2473 18.216 80.5993 18.056C80.8553 17.928 81.0953 17.76 81.3193 17.552C81.5593 17.344 81.8073 17.16 82.0633 17C82.2393 16.888 82.3753 16.792 82.4713 16.712C82.5833 16.632 82.6393 16.624 82.6393 16.688C82.6393 16.752 82.6633 16.784 82.7113 16.784C82.7593 16.784 82.8153 16.752 82.8793 16.688C82.9753 16.56 83.0793 16.48 83.1913 16.448C83.3033 16.4 83.3993 16.384 83.4793 16.4C83.5753 16.4 83.6233 16.424 83.6233 16.472C83.5913 16.616 83.6233 16.736 83.7193 16.832C83.7193 16.896 83.6953 16.984 83.6473 17.096C83.6153 17.192 83.5673 17.272 83.5033 17.336C83.4233 17.448 83.3033 17.576 83.1433 17.72C82.9993 17.864 82.8633 17.992 82.7353 18.104C82.6073 18.2 82.5433 18.248 82.5433 18.248C82.4793 18.232 82.4153 18.248 82.3513 18.296C82.3033 18.344 82.2473 18.4 82.1833 18.464C82.0553 18.576 81.9353 18.664 81.8233 18.728C81.7113 18.776 81.6233 18.8 81.5593 18.8C81.4473 18.864 81.3593 18.904 81.2953 18.92C81.2473 18.936 81.2233 18.976 81.2233 19.04C81.0633 19.2 80.8633 19.312 80.6233 19.376C80.3993 19.424 80.0633 19.448 79.6153 19.448ZM93.8614 19.472C93.5574 19.552 93.3334 19.584 93.1894 19.568C93.0454 19.536 92.8534 19.4 92.6134 19.16C92.4694 18.936 92.3414 18.736 92.2294 18.56C92.1174 18.384 92.0454 18.072 92.0134 17.624C91.9974 17.32 92.0134 16.992 92.0614 16.64C92.1254 16.272 92.1494 16.008 92.1334 15.848C92.2614 15.256 92.3094 14.784 92.2774 14.432C92.2614 14.064 92.2134 13.88 92.1334 13.88C91.9574 13.848 91.6374 14.024 91.1734 14.408C90.7254 14.776 90.2054 15.264 89.6134 15.872C89.0374 16.464 88.4614 17.088 87.8854 17.744C87.5814 18.16 87.3654 18.472 87.2374 18.68C87.1094 18.872 87.0134 18.968 86.9494 18.968C86.8374 18.968 86.6854 18.928 86.4934 18.848C86.3014 18.768 86.1334 18.672 85.9894 18.56C85.8454 18.432 85.7654 18.32 85.7494 18.224C85.7494 18.16 85.7894 17.992 85.8694 17.72C85.9494 17.432 86.0454 17.104 86.1574 16.736C86.2854 16.368 86.3974 16.024 86.4934 15.704C86.5894 15.384 86.6614 15.16 86.7094 15.032C86.8534 14.616 87.0214 14.112 87.2134 13.52C87.4214 12.912 87.6054 12.376 87.7654 11.912C87.8294 11.704 87.9414 11.408 88.1014 11.024C88.2614 10.624 88.4214 10.224 88.5814 9.824C88.7414 9.424 88.8534 9.128 88.9174 8.936C88.9654 8.808 89.0534 8.584 89.1814 8.264C89.3094 7.928 89.4454 7.56 89.5894 7.16C89.7494 6.76 89.8934 6.392 90.0214 6.056C90.1654 5.704 90.2614 5.448 90.3094 5.288C90.2934 5.144 90.3014 5.016 90.3334 4.904C90.3814 4.776 90.4294 4.68 90.4774 4.616C90.5414 4.616 90.6134 4.616 90.6934 4.616C90.7734 4.6 90.8134 4.592 90.8134 4.592C90.8134 4.56 90.8774 4.592 91.0054 4.688C91.1334 4.784 91.2534 4.904 91.3654 5.048C91.4934 5.176 91.5574 5.288 91.5574 5.384C91.6374 5.592 91.6454 5.864 91.5814 6.2C91.5174 6.52 91.3494 7.008 91.0774 7.664C90.9014 7.92 90.7254 8.304 90.5494 8.816C90.3894 9.328 90.2294 9.76 90.0694 10.112C90.0054 10.224 89.8854 10.464 89.7094 10.832C89.5494 11.2 89.3574 11.632 89.1334 12.128C88.9254 12.624 88.7254 13.128 88.5334 13.64C88.3414 14.136 88.1894 14.584 88.0774 14.984C87.9174 15.368 87.8614 15.624 87.9094 15.752C87.9574 15.88 88.1494 15.736 88.4854 15.32C88.9334 14.84 89.4054 14.352 89.9014 13.856C90.3974 13.36 90.8614 12.944 91.2934 12.608C91.7414 12.256 92.1014 12.096 92.3734 12.128C92.5174 12.16 92.6694 12.256 92.8294 12.416C93.0054 12.576 93.1734 12.76 93.3334 12.968C93.4934 13.176 93.6054 13.376 93.6694 13.568C93.7334 13.808 93.7734 14.016 93.7894 14.192C93.8214 14.368 93.8294 14.632 93.8134 14.984C93.7974 15.32 93.7574 15.856 93.6934 16.592C93.5974 17.136 93.5334 17.528 93.5014 17.768C93.4694 17.992 93.4774 18.152 93.5254 18.248C93.5894 18.344 93.6854 18.448 93.8134 18.56C94.0534 18.752 94.1734 18.92 94.1734 19.064C94.1894 19.208 94.0854 19.344 93.8614 19.472ZM104.116 19.832C103.94 19.8 103.756 19.712 103.564 19.568C103.388 19.408 103.228 19.232 103.084 19.04C102.956 18.832 102.868 18.648 102.82 18.488C102.82 18.456 102.796 18.416 102.748 18.368C102.716 18.32 102.7 18.296 102.7 18.296C102.636 18.248 102.596 18.04 102.58 17.672C102.58 17.288 102.604 16.864 102.652 16.4C102.7 15.936 102.756 15.568 102.82 15.296C102.9 15.04 103.02 14.696 103.18 14.264C103.34 13.816 103.476 13.416 103.588 13.064L104.236 11.672L103.276 11.408C103.164 11.376 103.068 11.312 102.988 11.216C102.924 11.12 102.892 11.04 102.892 10.976C102.892 10.848 102.964 10.696 103.108 10.52C103.252 10.328 103.356 10.232 103.42 10.232C103.5 10.248 103.644 10.256 103.852 10.256C104.076 10.256 104.292 10.248 104.5 10.232C104.708 10.216 104.836 10.2 104.884 10.184C104.948 10.152 105.012 10.112 105.076 10.064C105.14 10 105.188 9.912 105.22 9.8C105.3 9.624 105.372 9.464 105.436 9.32C105.5 9.16 105.588 8.984 105.7 8.792C105.812 8.584 105.9 8.408 105.964 8.264C106.044 8.12 106.164 7.92 106.324 7.664C106.404 7.552 106.492 7.416 106.588 7.256C106.684 7.096 106.804 6.96 106.948 6.848C107.092 6.72 107.236 6.664 107.38 6.68C107.54 6.68 107.74 6.784 107.98 6.992C108.108 7.152 108.18 7.272 108.196 7.352C108.212 7.432 108.148 7.584 108.004 7.808C107.876 8.08 107.724 8.352 107.548 8.624C107.388 8.896 107.236 9.168 107.092 9.44C106.836 9.792 106.788 9.992 106.948 10.04C107.108 10.088 107.556 10.056 108.292 9.944C108.756 9.864 109.092 9.888 109.3 10.016C109.508 10.128 109.628 10.32 109.66 10.592C109.708 10.976 109.668 11.208 109.54 11.288C109.412 11.368 109.044 11.408 108.436 11.408C108.052 11.472 107.724 11.512 107.452 11.528C107.18 11.528 106.98 11.528 106.852 11.528C106.644 11.544 106.508 11.552 106.444 11.552C106.38 11.552 106.284 11.568 106.156 11.6C106.028 11.632 105.932 11.688 105.868 11.768C105.82 11.832 105.764 11.928 105.7 12.056C105.636 12.12 105.54 12.288 105.412 12.56C105.284 12.832 105.124 13.128 104.932 13.448C104.708 14.12 104.516 14.792 104.356 15.464C104.196 16.12 104.068 16.76 103.972 17.384C103.908 17.784 103.916 18.064 103.996 18.224C104.076 18.368 104.284 18.456 104.62 18.488C104.796 18.504 105.076 18.504 105.46 18.488C105.86 18.456 106.172 18.408 106.396 18.344C106.572 18.264 106.756 18.184 106.948 18.104C107.14 18.008 107.316 17.912 107.476 17.816C107.62 17.736 107.764 17.656 107.908 17.576C108.052 17.48 108.124 17.432 108.124 17.432C108.204 17.304 108.292 17.264 108.388 17.312C108.484 17.36 108.564 17.48 108.628 17.672C108.628 17.864 108.588 18.064 108.508 18.272C108.428 18.48 108.132 18.728 107.62 19.016C106.9 19.464 106.236 19.736 105.628 19.832C105.036 19.912 104.532 19.912 104.116 19.832ZM117.726 19.256C117.326 19.448 116.966 19.504 116.646 19.424C116.326 19.328 116.07 19.112 115.878 18.776C115.702 18.44 115.614 18.016 115.614 17.504C115.614 17.328 115.638 17.064 115.686 16.712C115.75 16.36 115.822 15.992 115.902 15.608C115.982 15.208 116.07 14.864 116.166 14.576C116.214 14.432 116.246 14.32 116.262 14.24C116.294 14.16 116.278 14.12 116.214 14.12C116.15 14.12 116.07 14.16 115.974 14.24C115.894 14.32 115.83 14.384 115.782 14.432C115.43 14.72 115.062 15.072 114.678 15.488C114.31 15.904 113.966 16.328 113.646 16.76C113.326 17.176 113.062 17.56 112.854 17.912C112.662 18.264 112.566 18.52 112.566 18.68C112.566 18.92 112.446 19.088 112.206 19.184C111.966 19.28 111.758 19.272 111.582 19.16C111.278 18.984 111.086 18.776 111.006 18.536C110.942 18.28 110.934 17.856 110.982 17.264C111.03 16.512 111.094 15.84 111.174 15.248C111.254 14.656 111.382 14.016 111.558 13.328C111.75 12.624 111.998 11.768 112.302 10.76C112.51 10.2 112.702 9.672 112.878 9.176C113.054 8.664 113.206 8.232 113.334 7.88C113.478 7.528 113.566 7.312 113.598 7.232C113.678 7.152 113.782 6.96 113.91 6.656C114.038 6.336 114.15 6.016 114.246 5.696C114.358 5.376 114.414 5.184 114.414 5.12C114.414 4.992 114.438 4.88 114.486 4.784C114.534 4.672 114.59 4.584 114.654 4.52C114.718 4.456 114.774 4.4 114.822 4.352C114.87 4.304 114.894 4.28 114.894 4.28C114.974 4.28 115.07 4.304 115.182 4.352C115.31 4.4 115.43 4.472 115.542 4.568C115.654 4.648 115.726 4.752 115.758 4.88C115.87 5.104 115.926 5.336 115.926 5.576C115.926 5.8 115.854 6.08 115.71 6.416C115.582 6.752 115.358 7.216 115.038 7.808C114.782 8.304 114.55 8.816 114.342 9.344C114.134 9.872 113.934 10.424 113.742 11C113.662 11.24 113.55 11.576 113.406 12.008C113.278 12.44 113.142 12.888 112.998 13.352C112.87 13.816 112.758 14.232 112.662 14.6C112.582 14.952 112.542 15.176 112.542 15.272C112.542 15.384 112.606 15.44 112.734 15.44C112.862 15.424 112.99 15.328 113.118 15.152C113.182 15.024 113.318 14.864 113.526 14.672C113.734 14.48 113.902 14.328 114.03 14.216C114.158 14.104 114.334 13.944 114.558 13.736C114.782 13.528 115.022 13.32 115.278 13.112C115.534 12.888 115.774 12.704 115.998 12.56C116.222 12.4 116.398 12.32 116.526 12.32C116.734 12.32 116.926 12.4 117.102 12.56C117.278 12.704 117.398 12.864 117.462 13.04C117.51 13.088 117.558 13.152 117.606 13.232C117.654 13.296 117.686 13.344 117.702 13.376C117.782 13.44 117.782 13.72 117.702 14.216C117.638 14.696 117.478 15.32 117.222 16.088C117.078 16.68 116.958 17.184 116.862 17.6C116.782 18 116.806 18.2 116.934 18.2C116.934 18.2 117.014 18.152 117.174 18.056C117.35 17.96 117.534 17.856 117.726 17.744C118.19 17.44 118.59 17.264 118.926 17.216C119.278 17.152 119.454 17.208 119.454 17.384C119.454 17.448 119.43 17.512 119.382 17.576C119.334 17.624 119.31 17.68 119.31 17.744C119.31 17.744 119.31 17.752 119.31 17.768C119.31 17.768 119.31 17.8 119.31 17.864C119.31 17.896 119.206 18.024 118.998 18.248C118.79 18.456 118.558 18.672 118.302 18.896C118.062 19.104 117.87 19.224 117.726 19.256ZM125.288 19.16C124.952 19.448 124.56 19.616 124.112 19.664C123.68 19.712 123.256 19.648 122.84 19.472C122.424 19.28 122.08 18.992 121.808 18.608C121.536 18.256 121.36 17.856 121.28 17.408C121.2 16.944 121.192 16.344 121.256 15.608C121.304 14.984 121.504 14.36 121.856 13.736C122.208 13.096 122.632 12.528 123.128 12.032C123.64 11.536 124.144 11.192 124.64 11C124.88 10.84 125.08 10.768 125.24 10.784C125.416 10.784 125.68 10.8 126.032 10.832C126.4 10.88 126.672 10.952 126.848 11.048C127.04 11.144 127.192 11.272 127.304 11.432C127.544 11.672 127.704 11.912 127.784 12.152C127.864 12.376 127.904 12.6 127.904 12.824C127.84 13.176 127.6 13.608 127.184 14.12C126.784 14.616 126.256 15.024 125.6 15.344C125.248 15.456 124.864 15.504 124.448 15.488C124.032 15.472 123.688 15.368 123.416 15.176C123.112 15.048 122.912 15.072 122.816 15.248C122.72 15.408 122.632 15.808 122.552 16.448C122.488 17.056 122.536 17.504 122.696 17.792C122.856 18.064 123.072 18.224 123.344 18.272C123.664 18.336 123.912 18.384 124.088 18.416C124.28 18.432 124.512 18.36 124.784 18.2C125.04 18.04 125.2 17.952 125.264 17.936C125.328 17.904 125.376 17.872 125.408 17.84C125.456 17.792 125.56 17.688 125.72 17.528C125.832 17.416 125.92 17.336 125.984 17.288C126.048 17.224 126.12 17.192 126.2 17.192C126.28 17.192 126.352 17.232 126.416 17.312C126.48 17.376 126.544 17.424 126.608 17.456C126.768 17.456 126.8 17.552 126.704 17.744C126.624 17.936 126.456 18.168 126.2 18.44C125.944 18.696 125.64 18.936 125.288 19.16ZM125.264 14.072C125.44 13.992 125.624 13.88 125.816 13.736C126.008 13.576 126.168 13.408 126.296 13.232C126.44 13.04 126.512 12.88 126.512 12.752C126.512 12.528 126.408 12.344 126.2 12.2C125.992 12.04 125.68 12.016 125.264 12.128C125.088 12.176 124.888 12.296 124.664 12.488C124.44 12.664 124.224 12.864 124.016 13.088C123.824 13.312 123.664 13.512 123.536 13.688C123.424 13.864 123.384 13.968 123.416 14C123.464 14.08 123.6 14.144 123.824 14.192C124.048 14.224 124.296 14.232 124.568 14.216C124.856 14.2 125.088 14.152 125.264 14.072ZM41.424 45.216C41.216 45.136 41.064 45.016 40.968 44.856C40.872 44.68 40.816 44.432 40.8 44.112C40.8 43.92 40.832 43.664 40.896 43.344C40.96 43.024 41.032 42.656 41.112 42.24C41.112 42.208 41.112 42.176 41.112 42.144C41.128 42.096 41.136 42.064 41.136 42.048C41.152 41.984 41.168 41.888 41.184 41.76C41.216 41.632 41.24 41.536 41.256 41.472C41.272 41.392 41.28 41.392 41.28 41.472L41.448 40.824C41.528 40.536 41.608 40.248 41.688 39.96C41.768 39.672 41.84 39.424 41.904 39.216C41.968 38.992 42.008 38.864 42.024 38.832C42.024 38.832 42.056 38.744 42.12 38.568C42.184 38.376 42.248 38.192 42.312 38.016C42.584 37.264 42.832 36.632 43.056 36.12C43.28 35.592 43.48 35.208 43.656 34.968C43.672 34.92 43.696 34.864 43.728 34.8C43.76 34.72 43.784 34.656 43.8 34.608C43.816 34.48 43.832 34.384 43.848 34.32C43.88 34.24 43.92 34.168 43.968 34.104C44 34.04 44.048 33.96 44.112 33.864C44.176 33.752 44.248 33.616 44.328 33.456L44.424 33.192C44.52 32.984 44.64 32.752 44.784 32.496C44.928 32.24 45.032 32.056 45.096 31.944C45.16 31.8 45.256 31.632 45.384 31.44C45.512 31.232 45.608 31.096 45.672 31.032L45.648 31.008C45.728 30.864 45.824 30.784 45.936 30.768C46.064 30.736 46.2 30.72 46.344 30.72C46.568 30.72 46.696 30.752 46.728 30.816C46.76 30.88 46.776 31.024 46.776 31.248C46.776 31.488 46.768 31.664 46.752 31.776C46.752 31.872 46.688 31.984 46.56 32.112H46.584C46.616 32.08 46.608 32.12 46.56 32.232C46.512 32.328 46.472 32.4 46.44 32.448C46.408 32.528 46.368 32.616 46.32 32.712C46.288 32.808 46.248 32.88 46.2 32.928C46.152 32.992 46.032 33.208 45.84 33.576C45.664 33.928 45.456 34.344 45.216 34.824C44.992 35.304 44.776 35.768 44.568 36.216C44.36 36.664 44.208 37.008 44.112 37.248L43.992 37.608C43.96 37.672 43.944 37.72 43.944 37.752C43.896 37.864 43.848 37.976 43.8 38.088C43.752 38.2 43.704 38.296 43.656 38.376L43.248 39.768L43.128 40.272L42.912 40.8L42.768 41.256C42.736 41.352 42.712 41.44 42.696 41.52C42.68 41.6 42.648 41.664 42.6 41.712C42.6 41.728 42.592 41.752 42.576 41.784C42.576 41.8 42.576 41.816 42.576 41.832C42.512 42.088 42.44 42.448 42.36 42.912C42.28 43.376 42.224 43.864 42.192 44.376C42.192 44.392 42.184 44.408 42.168 44.424C42.168 44.44 42.168 44.456 42.168 44.472C42.12 44.808 42.04 45.032 41.928 45.144C41.816 45.256 41.648 45.28 41.424 45.216ZM47.4947 44.304C47.3667 44.336 47.1987 44.352 46.9907 44.352C46.7827 44.336 46.5987 44.312 46.4387 44.28C46.2947 44.232 46.2227 44.184 46.2227 44.136C46.2227 44.056 46.1827 44.016 46.1027 44.016C46.1027 44.016 46.0627 43.984 45.9827 43.92C45.9187 43.856 45.8147 43.792 45.6707 43.728C45.5267 43.504 45.4547 43.264 45.4547 43.008C45.4547 42.736 45.5267 42.312 45.6707 41.736C45.7187 41.336 45.8707 40.872 46.1267 40.344C46.3987 39.8 46.7267 39.248 47.1107 38.688C47.4947 38.128 47.8947 37.624 48.3107 37.176C48.7427 36.728 49.1347 36.4 49.4867 36.192C49.7107 35.968 49.9827 35.848 50.3027 35.832C50.6227 35.816 50.9267 35.888 51.2147 36.048C51.3747 36.128 51.5347 36.256 51.6947 36.432C51.8547 36.608 52.0067 36.8 52.1507 37.008C52.2947 37.216 52.4147 37.424 52.5107 37.632C52.5587 37.808 52.5827 37.968 52.5827 38.112C52.5987 38.24 52.5987 38.4 52.5827 38.592C52.5827 38.784 52.5587 39.072 52.5107 39.456C52.4307 39.744 52.3587 40.096 52.2947 40.512C52.2467 40.928 52.2227 41.288 52.2227 41.592C52.1907 41.896 52.2227 42.112 52.3187 42.24C52.4307 42.368 52.5907 42.376 52.7987 42.264C52.9907 42.168 53.1747 42.128 53.3507 42.144C53.5267 42.144 53.6627 42.192 53.7587 42.288C53.8707 42.384 53.9267 42.528 53.9267 42.72C53.9267 42.912 53.8307 43.112 53.6387 43.32C53.4627 43.512 53.2387 43.68 52.9667 43.824C52.7107 43.952 52.4627 44.016 52.2227 44.016C52.0467 44.016 51.8787 43.912 51.7187 43.704C51.5587 43.48 51.4147 43.216 51.2867 42.912C51.1747 42.592 51.0707 42.288 50.9747 42L50.8307 41.448L49.7987 42.432C49.5907 42.656 49.3827 42.864 49.1747 43.056C48.9827 43.232 48.8627 43.36 48.8147 43.44C48.7347 43.584 48.5827 43.728 48.3587 43.872C48.1507 44.016 47.8627 44.16 47.4947 44.304ZM47.5667 42.888C47.8387 42.728 48.1507 42.496 48.5027 42.192C48.8547 41.872 49.1987 41.528 49.5347 41.16C49.8707 40.776 50.1507 40.424 50.3747 40.104C50.6467 39.736 50.8547 39.392 50.9987 39.072C51.1427 38.752 51.2467 38.448 51.3107 38.16C51.2467 37.984 51.1427 37.8 50.9987 37.608C50.8547 37.4 50.7267 37.288 50.6147 37.272C50.2627 37.272 49.8867 37.496 49.4867 37.944C49.1027 38.376 48.7267 38.848 48.3587 39.36C48.2947 39.44 48.2067 39.568 48.0947 39.744C47.9827 39.92 47.8707 40.088 47.7587 40.248C47.6627 40.392 47.5987 40.488 47.5667 40.536C47.5187 40.6 47.4227 40.784 47.2787 41.088C47.1507 41.376 47.0227 41.672 46.8947 41.976C46.7667 42.264 46.7027 42.456 46.7027 42.552C46.7027 42.648 46.7107 42.752 46.7267 42.864C46.7587 42.976 46.8387 43.048 46.9667 43.08C47.0947 43.112 47.2947 43.048 47.5667 42.888ZM56.9835 44.832C56.8075 44.8 56.6235 44.712 56.4315 44.568C56.2555 44.408 56.0955 44.232 55.9515 44.04C55.8235 43.832 55.7355 43.648 55.6875 43.488C55.6875 43.456 55.6635 43.416 55.6155 43.368C55.5835 43.32 55.5675 43.296 55.5675 43.296C55.5035 43.248 55.4635 43.04 55.4475 42.672C55.4475 42.288 55.4715 41.864 55.5195 41.4C55.5675 40.936 55.6235 40.568 55.6875 40.296C55.7675 40.04 55.8875 39.696 56.0475 39.264C56.2075 38.816 56.3435 38.416 56.4555 38.064L57.1035 36.672L56.1435 36.408C56.0315 36.376 55.9355 36.312 55.8555 36.216C55.7915 36.12 55.7595 36.04 55.7595 35.976C55.7595 35.848 55.8315 35.696 55.9755 35.52C56.1195 35.328 56.2235 35.232 56.2875 35.232C56.3675 35.248 56.5115 35.256 56.7195 35.256C56.9435 35.256 57.1595 35.248 57.3675 35.232C57.5755 35.216 57.7035 35.2 57.7515 35.184C57.8155 35.152 57.8795 35.112 57.9435 35.064C58.0075 35 58.0555 34.912 58.0875 34.8C58.1675 34.624 58.2395 34.464 58.3035 34.32C58.3675 34.16 58.4555 33.984 58.5675 33.792C58.6795 33.584 58.7675 33.408 58.8315 33.264C58.9115 33.12 59.0315 32.92 59.1915 32.664C59.2715 32.552 59.3595 32.416 59.4555 32.256C59.5515 32.096 59.6715 31.96 59.8155 31.848C59.9595 31.72 60.1035 31.664 60.2475 31.68C60.4075 31.68 60.6075 31.784 60.8475 31.992C60.9755 32.152 61.0475 32.272 61.0635 32.352C61.0795 32.432 61.0155 32.584 60.8715 32.808C60.7435 33.08 60.5915 33.352 60.4155 33.624C60.2555 33.896 60.1035 34.168 59.9595 34.44C59.7035 34.792 59.6555 34.992 59.8155 35.04C59.9755 35.088 60.4235 35.056 61.1595 34.944C61.6235 34.864 61.9595 34.888 62.1675 35.016C62.3755 35.128 62.4955 35.32 62.5275 35.592C62.5755 35.976 62.5355 36.208 62.4075 36.288C62.2795 36.368 61.9115 36.408 61.3035 36.408C60.9195 36.472 60.5915 36.512 60.3195 36.528C60.0475 36.528 59.8475 36.528 59.7195 36.528C59.5115 36.544 59.3755 36.552 59.3115 36.552C59.2475 36.552 59.1515 36.568 59.0235 36.6C58.8955 36.632 58.7995 36.688 58.7355 36.768C58.6875 36.832 58.6315 36.928 58.5675 37.056C58.5035 37.12 58.4075 37.288 58.2795 37.56C58.1515 37.832 57.9915 38.128 57.7995 38.448C57.5755 39.12 57.3835 39.792 57.2235 40.464C57.0635 41.12 56.9355 41.76 56.8395 42.384C56.7755 42.784 56.7835 43.064 56.8635 43.224C56.9435 43.368 57.1515 43.456 57.4875 43.488C57.6635 43.504 57.9435 43.504 58.3275 43.488C58.7275 43.456 59.0395 43.408 59.2635 43.344C59.4395 43.264 59.6235 43.184 59.8155 43.104C60.0075 43.008 60.1835 42.912 60.3435 42.816C60.4875 42.736 60.6315 42.656 60.7755 42.576C60.9195 42.48 60.9915 42.432 60.9915 42.432C61.0715 42.304 61.1595 42.264 61.2555 42.312C61.3515 42.36 61.4315 42.48 61.4955 42.672C61.4955 42.864 61.4555 43.064 61.3755 43.272C61.2955 43.48 60.9995 43.728 60.4875 44.016C59.7675 44.464 59.1035 44.736 58.4955 44.832C57.9035 44.912 57.3995 44.912 56.9835 44.832ZM64.7128 44.424C64.0888 44.168 63.6808 43.816 63.4888 43.368C63.3128 42.904 63.2808 42.192 63.3928 41.232C63.4248 40.736 63.4408 40.408 63.4408 40.248C63.4408 40.088 63.3528 39.928 63.1768 39.768C63.1288 39.704 63.0408 39.616 62.9128 39.504C62.8008 39.392 62.7528 39.296 62.7688 39.216C62.7528 39.104 62.7608 38.984 62.7928 38.856C62.8248 38.712 62.8728 38.64 62.9368 38.64C63.0008 38.64 63.0648 38.624 63.1288 38.592C63.2088 38.56 63.2808 38.56 63.3448 38.592C63.4088 38.592 63.4808 38.6 63.5608 38.616C63.6408 38.632 63.6808 38.672 63.6808 38.736C63.7448 38.848 63.8488 38.864 63.9928 38.784C64.1368 38.688 64.2888 38.48 64.4488 38.16C64.6088 37.904 64.8168 37.648 65.0728 37.392C65.3448 37.136 65.6088 36.904 65.8648 36.696C66.1368 36.472 66.3608 36.312 66.5368 36.216C66.6168 36.184 66.7368 36.144 66.8968 36.096C67.0568 36.048 67.2248 36.008 67.4008 35.976C67.5928 35.944 67.7528 35.936 67.8808 35.952C68.1688 35.968 68.4088 36.048 68.6008 36.192C68.8088 36.336 69.0008 36.504 69.1768 36.696C69.3848 36.84 69.5128 37.032 69.5608 37.272C69.6248 37.512 69.6408 37.768 69.6088 38.04C69.5768 38.312 69.5048 38.56 69.3928 38.784C69.3448 38.944 69.2088 39.136 68.9848 39.36C68.7608 39.584 68.5048 39.8 68.2168 40.008C67.9288 40.216 67.6648 40.368 67.4248 40.464C67.2168 40.512 66.9448 40.552 66.6088 40.584C66.2888 40.616 65.9848 40.632 65.6968 40.632C65.4248 40.616 65.2408 40.584 65.1448 40.536C65.0328 40.472 64.9448 40.56 64.8808 40.8C64.8168 41.04 64.7688 41.384 64.7368 41.832C64.7048 42.184 64.7048 42.44 64.7368 42.6C64.7688 42.76 64.8008 42.872 64.8328 42.936C64.9448 43.048 65.0968 43.192 65.2888 43.368C65.4968 43.528 65.7848 43.552 66.1528 43.44C66.4568 43.36 66.7528 43.152 67.0408 42.816C67.3448 42.48 67.6248 42.208 67.8808 42C67.9448 41.888 68.0488 41.824 68.1928 41.808C68.3528 41.776 68.5208 41.784 68.6968 41.832C68.8728 41.944 68.9448 42.08 68.9128 42.24C68.8968 42.384 68.8168 42.608 68.6728 42.912C68.6248 43.024 68.5128 43.168 68.3368 43.344C68.1768 43.504 67.9928 43.672 67.7848 43.848C67.5928 44.008 67.4168 44.136 67.2568 44.232C66.7768 44.488 66.3288 44.624 65.9128 44.64C65.4968 44.64 65.0968 44.568 64.7128 44.424ZM66.1288 39.552C66.4808 39.472 66.7608 39.416 66.9688 39.384C67.1768 39.352 67.3768 39.264 67.5688 39.12C67.7608 38.96 68.0008 38.664 68.2888 38.232C68.3528 38.056 68.3688 37.88 68.3368 37.704C68.3208 37.528 68.2808 37.408 68.2168 37.344C68.0728 37.184 67.8968 37.136 67.6888 37.2C67.4968 37.248 67.3128 37.336 67.1368 37.464C67.0248 37.512 66.8568 37.632 66.6328 37.824C66.4248 38 66.2168 38.208 66.0088 38.448C65.8008 38.672 65.6328 38.88 65.5048 39.072C65.3768 39.264 65.3448 39.376 65.4088 39.408C65.3768 39.472 65.4648 39.512 65.6728 39.528C65.8968 39.544 66.0488 39.552 66.1288 39.552ZM73.1175 44.784C72.7175 44.816 72.3335 44.792 71.9655 44.712C71.6135 44.632 71.3095 44.496 71.0535 44.304C70.8135 44.096 70.6455 43.848 70.5495 43.56C70.4375 43.336 70.3815 43.184 70.3815 43.104C70.3815 43.008 70.4375 42.928 70.5495 42.864C70.6775 42.864 70.7895 42.904 70.8855 42.984C70.9975 43.048 71.1415 43.12 71.3175 43.2C71.5575 43.408 71.8455 43.52 72.1815 43.536C72.5335 43.552 72.8535 43.496 73.1415 43.368C73.4295 43.24 73.5895 43.08 73.6215 42.888C73.6215 42.824 73.5975 42.712 73.5495 42.552C73.5015 42.392 73.4455 42.224 73.3815 42.048C72.9495 41.44 72.6295 40.84 72.4215 40.248C72.2295 39.64 72.1335 39.144 72.1335 38.76C72.1335 38.472 72.2215 38.168 72.3975 37.848C72.5735 37.512 72.8135 37.232 73.1175 37.008C73.4055 36.704 73.7255 36.432 74.0775 36.192C74.4295 35.952 74.7815 35.744 75.1335 35.568C75.5015 35.392 75.8295 35.264 76.1175 35.184C76.2935 35.184 76.5255 35.208 76.8135 35.256C77.1015 35.304 77.3015 35.36 77.4135 35.424C77.5895 35.488 77.7575 35.664 77.9175 35.952C78.0775 36.224 78.1575 36.496 78.1575 36.768C78.1575 36.88 78.1255 37.024 78.0615 37.2C77.9975 37.376 77.8935 37.584 77.7495 37.824C77.6855 38 77.6135 38.168 77.5335 38.328C77.4535 38.472 77.4135 38.576 77.4135 38.64C77.3335 38.816 77.2215 38.904 77.0775 38.904C76.9495 38.888 76.8135 38.816 76.6695 38.688C76.5415 38.544 76.4375 38.376 76.3575 38.184C76.2935 37.944 76.2695 37.752 76.2855 37.608C76.3015 37.448 76.3655 37.28 76.4775 37.104C76.6535 36.928 76.7415 36.808 76.7415 36.744C76.7415 36.68 76.6535 36.648 76.4775 36.648C76.3655 36.648 76.1575 36.72 75.8535 36.864C75.5655 36.992 75.2535 37.168 74.9175 37.392C74.5975 37.6 74.3175 37.824 74.0775 38.064C73.7735 38.352 73.5895 38.56 73.5255 38.688C73.4775 38.816 73.4535 39.016 73.4535 39.288C73.4535 39.512 73.5015 39.792 73.5975 40.128C73.7095 40.464 73.8215 40.688 73.9335 40.8C73.9335 40.8 73.9895 40.912 74.1015 41.136C74.2135 41.344 74.3495 41.568 74.5095 41.808C74.9735 42.832 75.0935 43.568 74.8695 44.016C74.6455 44.464 74.0615 44.72 73.1175 44.784ZM81.1772 46.2C80.6492 46.12 80.2892 45.92 80.0972 45.6C79.9212 45.296 79.8812 44.824 79.9772 44.184C80.0732 43.88 80.1292 43.608 80.1452 43.368C80.1772 43.112 80.2492 42.952 80.3612 42.888C80.3612 42.888 80.3692 42.864 80.3852 42.816C80.4172 42.768 80.4092 42.72 80.3612 42.672C80.3612 42.464 80.4332 42.176 80.5772 41.808C80.6092 41.712 80.6492 41.6 80.6972 41.472C80.7612 41.328 80.7932 41.256 80.7932 41.256C80.7132 41.128 80.7132 41.024 80.7932 40.944C80.8732 40.864 80.9532 40.792 81.0332 40.728C81.1292 40.648 81.1372 40.56 81.0572 40.464C81.0252 40.4 81.0652 40.256 81.1772 40.032C81.2892 39.792 81.4172 39.544 81.5612 39.288C81.7052 39.032 81.8012 38.832 81.8492 38.688C81.8492 38.656 81.8892 38.544 81.9692 38.352C82.0492 38.16 82.1452 37.936 82.2572 37.68C82.3692 37.424 82.4732 37.192 82.5692 36.984C82.6812 36.776 82.7532 36.64 82.7852 36.576C82.9452 36.496 82.8812 36.44 82.5932 36.408C82.3052 36.376 82.0012 36.368 81.6812 36.384C81.1852 36.368 80.7852 36.344 80.4812 36.312C80.1932 36.28 79.9532 36.208 79.7612 36.096C79.5692 35.872 79.4972 35.712 79.5452 35.616C79.6092 35.504 79.8012 35.44 80.1212 35.424C80.3292 35.408 80.4892 35.4 80.6012 35.4C80.7292 35.4 80.8892 35.392 81.0812 35.376C81.2892 35.344 81.6092 35.304 82.0412 35.256L83.2652 35.16L83.3372 34.752C83.4652 34.544 83.5692 34.36 83.6492 34.2C83.7452 34.024 83.8252 33.848 83.8892 33.672C83.9532 33.496 84.0012 33.312 84.0332 33.12C84.0332 33.12 84.1052 32.992 84.2492 32.736C84.3932 32.464 84.4812 32.184 84.5132 31.896C84.7052 31.576 84.8732 31.288 85.0172 31.032C85.1612 30.76 85.2492 30.592 85.2812 30.528C85.4572 30.384 85.5772 30.312 85.6412 30.312C85.7212 30.312 85.8812 30.392 86.1212 30.552C86.2652 30.632 86.3932 30.728 86.5052 30.84C86.6172 30.952 86.6892 31.072 86.7212 31.2C86.7532 31.312 86.7052 31.424 86.5772 31.536C86.5452 31.6 86.4972 31.72 86.4332 31.896C86.3692 32.056 86.3212 32.192 86.2892 32.304C86.1932 32.416 86.0732 32.6 85.9292 32.856C85.8012 33.096 85.7132 33.344 85.6652 33.6C85.5372 33.872 85.4172 34.12 85.3052 34.344C85.1932 34.552 85.1052 34.656 85.0412 34.656C85.0732 34.816 85.1692 34.896 85.3292 34.896C85.4892 34.88 85.7532 34.864 86.1212 34.848C86.4252 34.816 86.6332 34.784 86.7452 34.752C86.8732 34.704 87.0172 34.72 87.1772 34.8C87.2572 34.912 87.3212 35.04 87.3692 35.184C87.4172 35.328 87.4252 35.464 87.3932 35.592C87.3772 35.704 87.3132 35.784 87.2012 35.832C87.1212 35.832 86.9532 35.88 86.6972 35.976C86.4572 36.056 86.1532 36.104 85.7852 36.12L84.5132 36.24L84.1052 37.056C83.9932 37.264 83.8972 37.456 83.8172 37.632C83.7372 37.792 83.6812 37.888 83.6492 37.92C83.6492 38.016 83.5932 38.16 83.4812 38.352C83.3852 38.544 83.2812 38.752 83.1692 38.976C83.0732 39.248 82.9612 39.496 82.8332 39.72C82.7212 39.944 82.6652 40.056 82.6652 40.056C82.6012 40.056 82.5692 40.104 82.5692 40.2C82.6492 40.392 82.6252 40.536 82.4972 40.632C82.4172 40.68 82.3452 40.752 82.2812 40.848C82.2332 40.928 82.2092 40.968 82.2092 40.968C82.2732 41.032 82.2812 41.112 82.2332 41.208C82.2012 41.304 82.1532 41.408 82.0892 41.52C82.0892 41.648 82.0492 41.832 81.9692 42.072C81.9052 42.312 81.8332 42.536 81.7532 42.744C81.7692 43.032 81.7852 43.216 81.8012 43.296C81.8172 43.376 81.8572 43.408 81.9212 43.392C82.0012 43.408 82.0732 43.408 82.1372 43.392C82.2012 43.376 82.2652 43.368 82.3292 43.368C82.5532 43.272 82.4332 43.832 81.9692 45.048C81.7132 45.448 81.5372 45.736 81.4412 45.912C81.3452 46.104 81.2572 46.2 81.1772 46.2ZM96.999 44.16C96.663 44.448 96.271 44.616 95.823 44.664C95.391 44.712 94.967 44.648 94.551 44.472C94.135 44.28 93.791 43.992 93.519 43.608C93.247 43.256 93.071 42.856 92.991 42.408C92.911 41.944 92.903 41.344 92.967 40.608C93.015 39.984 93.215 39.36 93.567 38.736C93.919 38.096 94.343 37.528 94.839 37.032C95.351 36.536 95.855 36.192 96.351 36C96.591 35.84 96.791 35.768 96.951 35.784C97.127 35.784 97.391 35.8 97.743 35.832C98.111 35.88 98.383 35.952 98.559 36.048C98.751 36.144 98.903 36.272 99.015 36.432C99.255 36.672 99.415 36.912 99.495 37.152C99.575 37.376 99.615 37.6 99.615 37.824C99.551 38.176 99.311 38.608 98.895 39.12C98.495 39.616 97.967 40.024 97.311 40.344C96.959 40.456 96.575 40.504 96.159 40.488C95.743 40.472 95.399 40.368 95.127 40.176C94.823 40.048 94.623 40.072 94.527 40.248C94.431 40.408 94.343 40.808 94.263 41.448C94.199 42.056 94.247 42.504 94.407 42.792C94.567 43.064 94.783 43.224 95.055 43.272C95.375 43.336 95.623 43.384 95.799 43.416C95.991 43.432 96.223 43.36 96.495 43.2C96.751 43.04 96.911 42.952 96.975 42.936C97.039 42.904 97.087 42.872 97.119 42.84C97.167 42.792 97.271 42.688 97.431 42.528C97.543 42.416 97.631 42.336 97.695 42.288C97.759 42.224 97.831 42.192 97.911 42.192C97.991 42.192 98.063 42.232 98.127 42.312C98.191 42.376 98.255 42.424 98.319 42.456C98.479 42.456 98.511 42.552 98.415 42.744C98.335 42.936 98.167 43.168 97.911 43.44C97.655 43.696 97.351 43.936 96.999 44.16ZM96.975 39.072C97.151 38.992 97.335 38.88 97.527 38.736C97.719 38.576 97.879 38.408 98.007 38.232C98.151 38.04 98.223 37.88 98.223 37.752C98.223 37.528 98.119 37.344 97.911 37.2C97.703 37.04 97.391 37.016 96.975 37.128C96.799 37.176 96.599 37.296 96.375 37.488C96.151 37.664 95.935 37.864 95.727 38.088C95.535 38.312 95.375 38.512 95.247 38.688C95.135 38.864 95.095 38.968 95.127 39C95.175 39.08 95.311 39.144 95.535 39.192C95.759 39.224 96.007 39.232 96.279 39.216C96.567 39.2 96.799 39.152 96.975 39.072ZM99.6437 50.376C99.5797 50.376 99.4997 50.376 99.4037 50.376C99.3077 50.392 99.2197 50.328 99.1397 50.184C99.0757 50.104 99.0357 49.984 99.0197 49.824C99.0197 49.664 99.0597 49.376 99.1397 48.96C99.2197 48.688 99.2837 48.416 99.3317 48.144C99.3797 47.888 99.4037 47.696 99.4037 47.568C99.4037 47.504 99.4197 47.376 99.4517 47.184C99.4997 47.008 99.5237 46.88 99.5237 46.8C99.6037 46.672 99.6677 46.496 99.7157 46.272C99.7637 46.048 99.7877 45.848 99.7877 45.672C99.7877 45.48 99.8837 45.304 100.076 45.144C100.076 45.016 100.1 44.856 100.148 44.664C100.212 44.472 100.244 44.344 100.244 44.28C100.292 44.056 100.396 43.664 100.556 43.104C100.732 42.528 100.94 41.88 101.18 41.16C101.436 40.44 101.684 39.736 101.924 39.048C102.164 38.36 102.38 37.776 102.572 37.296C102.764 36.848 102.892 36.464 102.956 36.144C103.036 35.808 103.076 35.56 103.076 35.4C103.076 35.336 103.092 35.288 103.124 35.256C103.156 35.208 103.228 35.12 103.34 34.992C103.5 34.832 103.636 34.784 103.748 34.848C103.876 34.912 104.028 35.008 104.204 35.136C104.332 35.344 104.42 35.52 104.468 35.664C104.532 35.808 104.532 36.056 104.468 36.408C104.468 36.648 104.428 36.856 104.348 37.032C104.268 37.208 104.196 37.344 104.132 37.44C104.068 37.52 104.052 37.552 104.084 37.536C104.74 37.232 105.316 37.072 105.812 37.056C106.324 37.024 106.748 37.112 107.084 37.32C107.436 37.512 107.7 37.784 107.876 38.136C108.052 38.488 108.14 38.896 108.14 39.36C108.14 39.552 108.1 39.784 108.02 40.056C107.94 40.312 107.836 40.552 107.708 40.776C107.596 40.984 107.492 41.136 107.396 41.232C107.332 41.232 107.268 41.288 107.204 41.4C107.14 41.496 107.076 41.608 107.012 41.736C106.884 41.896 106.676 42.08 106.388 42.288C106.116 42.48 105.844 42.64 105.572 42.768C105.3 42.88 105.1 42.912 104.972 42.864C104.972 42.864 104.948 42.872 104.9 42.888C104.868 42.888 104.852 42.928 104.852 43.008C104.852 43.04 104.724 43.112 104.468 43.224C104.212 43.32 103.916 43.416 103.58 43.512C103.244 43.592 102.948 43.632 102.692 43.632C102.356 43.632 102.116 43.568 101.972 43.44C101.94 43.472 101.9 43.52 101.852 43.584C101.82 43.648 101.804 43.704 101.804 43.752C101.804 43.848 101.764 44.032 101.684 44.304C101.62 44.56 101.54 44.808 101.444 45.048C101.348 45.288 101.26 45.408 101.18 45.408C101.18 45.408 101.164 45.432 101.132 45.48C101.1 45.528 101.116 45.592 101.18 45.672C101.18 45.672 101.172 45.76 101.156 45.936C101.156 46.128 101.116 46.288 101.036 46.416C101.036 46.544 101.012 46.736 100.964 46.992C100.916 47.248 100.86 47.44 100.796 47.568C100.796 47.76 100.764 47.944 100.7 48.12C100.652 48.312 100.596 48.408 100.532 48.408C100.468 48.424 100.428 48.52 100.412 48.696C100.396 48.888 100.388 49.024 100.388 49.104C100.372 49.504 100.292 49.816 100.148 50.04C100.004 50.264 99.8357 50.376 99.6437 50.376ZM102.548 42.36C102.676 42.36 102.94 42.304 103.34 42.192C103.74 42.08 104.148 41.944 104.564 41.784C104.996 41.608 105.316 41.432 105.524 41.256C105.94 40.888 106.26 40.472 106.484 40.008C106.724 39.528 106.708 39.072 106.436 38.64C106.308 38.416 106.076 38.328 105.74 38.376C105.404 38.408 105.036 38.536 104.636 38.76C104.236 38.984 103.86 39.264 103.508 39.6C103.316 39.808 103.14 40.064 102.98 40.368C102.82 40.672 102.684 40.976 102.572 41.28C102.476 41.584 102.42 41.84 102.404 42.048C102.388 42.256 102.436 42.36 102.548 42.36ZM110.85 44.256C110.61 44.224 110.402 44.056 110.226 43.752C110.066 43.432 109.97 43.144 109.938 42.888C109.954 42.76 109.97 42.576 109.986 42.336C110.018 42.096 110.05 41.848 110.082 41.592C110.146 41.288 110.234 40.92 110.346 40.488C110.458 40.04 110.57 39.592 110.682 39.144C110.81 38.696 110.922 38.312 111.018 37.992C111.114 37.672 111.178 37.48 111.21 37.416C111.29 37.288 111.418 37.256 111.594 37.32C111.77 37.384 111.914 37.48 112.026 37.608C112.122 37.736 112.178 37.888 112.194 38.064C112.226 38.24 112.202 38.496 112.122 38.832C112.058 39.168 111.93 39.664 111.738 40.32C111.562 40.96 111.426 41.48 111.33 41.88C111.25 42.264 111.218 42.672 111.234 43.104C111.17 43.648 111.122 43.984 111.09 44.112C111.058 44.224 110.978 44.272 110.85 44.256ZM113.61 34.68C113.546 34.728 113.482 34.752 113.418 34.752C113.37 34.736 113.282 34.688 113.154 34.608C113.042 34.592 112.898 34.52 112.722 34.392C112.562 34.248 112.418 34.104 112.29 33.96C112.178 33.8 112.122 33.704 112.122 33.672C112.106 33.512 112.114 33.312 112.146 33.072C112.194 32.816 112.282 32.592 112.41 32.4C112.538 32.192 112.722 32.08 112.962 32.064C113.026 32.064 113.082 32.072 113.13 32.088C113.178 32.104 113.322 32.16 113.562 32.256C113.69 32.496 113.818 32.768 113.946 33.072C114.074 33.36 114.13 33.648 114.114 33.936C114.098 34.208 113.93 34.456 113.61 34.68ZM116.407 44.784C116.007 44.816 115.623 44.792 115.255 44.712C114.903 44.632 114.599 44.496 114.343 44.304C114.103 44.096 113.935 43.848 113.839 43.56C113.727 43.336 113.671 43.184 113.671 43.104C113.671 43.008 113.727 42.928 113.839 42.864C113.967 42.864 114.079 42.904 114.175 42.984C114.287 43.048 114.431 43.12 114.607 43.2C114.847 43.408 115.135 43.52 115.471 43.536C115.823 43.552 116.143 43.496 116.431 43.368C116.719 43.24 116.879 43.08 116.911 42.888C116.911 42.824 116.887 42.712 116.839 42.552C116.791 42.392 116.735 42.224 116.671 42.048C116.239 41.44 115.919 40.84 115.711 40.248C115.519 39.64 115.423 39.144 115.423 38.76C115.423 38.472 115.511 38.168 115.687 37.848C115.863 37.512 116.103 37.232 116.407 37.008C116.695 36.704 117.015 36.432 117.367 36.192C117.719 35.952 118.071 35.744 118.423 35.568C118.791 35.392 119.119 35.264 119.407 35.184C119.583 35.184 119.815 35.208 120.103 35.256C120.391 35.304 120.591 35.36 120.703 35.424C120.879 35.488 121.047 35.664 121.207 35.952C121.367 36.224 121.447 36.496 121.447 36.768C121.447 36.88 121.415 37.024 121.351 37.2C121.287 37.376 121.183 37.584 121.039 37.824C120.975 38 120.903 38.168 120.823 38.328C120.743 38.472 120.703 38.576 120.703 38.64C120.623 38.816 120.511 38.904 120.367 38.904C120.239 38.888 120.103 38.816 119.959 38.688C119.831 38.544 119.727 38.376 119.647 38.184C119.583 37.944 119.559 37.752 119.575 37.608C119.591 37.448 119.655 37.28 119.767 37.104C119.943 36.928 120.031 36.808 120.031 36.744C120.031 36.68 119.943 36.648 119.767 36.648C119.655 36.648 119.447 36.72 119.143 36.864C118.855 36.992 118.543 37.168 118.207 37.392C117.887 37.6 117.607 37.824 117.367 38.064C117.063 38.352 116.879 38.56 116.815 38.688C116.767 38.816 116.743 39.016 116.743 39.288C116.743 39.512 116.791 39.792 116.887 40.128C116.999 40.464 117.111 40.688 117.223 40.8C117.223 40.8 117.279 40.912 117.391 41.136C117.503 41.344 117.639 41.568 117.799 41.808C118.263 42.832 118.383 43.568 118.159 44.016C117.935 44.464 117.351 44.72 116.407 44.784ZM124.73 44.856C124.522 44.872 124.354 44.856 124.226 44.808C124.098 44.744 123.938 44.656 123.746 44.544C123.394 44.272 123.13 44 122.954 43.728C122.794 43.44 122.722 43.16 122.738 42.888C122.77 42.744 122.77 42.616 122.738 42.504C122.722 42.392 122.714 42.336 122.714 42.336C122.618 42.256 122.586 42.208 122.618 42.192C122.65 42.16 122.674 42.112 122.69 42.048C122.818 42.016 122.834 41.928 122.738 41.784C122.69 41.656 122.714 41.368 122.81 40.92C122.922 40.456 123.066 40.024 123.242 39.624C123.322 39.448 123.434 39.216 123.578 38.928C123.738 38.64 123.914 38.352 124.106 38.064C124.298 37.76 124.474 37.52 124.634 37.344C124.986 36.944 125.298 36.648 125.57 36.456C125.858 36.248 126.178 36.08 126.53 35.952C126.85 35.824 127.082 35.752 127.226 35.736C127.37 35.72 127.57 35.816 127.826 36.024C128.21 36.136 128.498 36.296 128.69 36.504C128.898 36.696 129.058 37 129.17 37.416C129.298 37.88 129.338 38.432 129.29 39.072C129.258 39.696 128.986 40.504 128.474 41.496C128.17 42.12 127.866 42.592 127.562 42.912C127.274 43.232 126.922 43.568 126.506 43.92C126.202 44.176 125.922 44.376 125.666 44.52C125.41 44.664 125.098 44.776 124.73 44.856ZM126.65 42C126.97 41.52 127.218 41.08 127.394 40.68C127.586 40.264 127.738 39.744 127.85 39.12C127.882 38.944 127.89 38.728 127.874 38.472C127.858 38.2 127.818 37.952 127.754 37.728C127.706 37.504 127.634 37.384 127.538 37.368C127.33 37.288 127.098 37.288 126.842 37.368C126.586 37.432 126.306 37.624 126.002 37.944C125.73 38.264 125.482 38.624 125.258 39.024C125.05 39.424 124.858 39.864 124.682 40.344C124.506 40.824 124.338 41.336 124.178 41.88C124.018 42.488 124.026 42.952 124.202 43.272C124.394 43.592 124.706 43.672 125.138 43.512C125.57 43.336 126.074 42.832 126.65 42ZM136.119 44.928C135.943 44.992 135.815 45.016 135.735 45C135.671 44.968 135.503 44.848 135.231 44.64C135.119 44.448 135.047 44.28 135.015 44.136C134.999 43.976 134.991 43.696 134.991 43.296C135.023 43.056 135.087 42.712 135.183 42.264C135.295 41.816 135.423 41.344 135.567 40.848C135.711 40.352 135.839 39.904 135.951 39.504C136.079 39.104 136.175 38.832 136.239 38.688C136.351 38.304 136.375 38.072 136.311 37.992C136.247 37.896 136.055 37.832 135.735 37.8C135.095 37.72 134.519 37.928 134.007 38.424C133.495 38.92 132.983 39.568 132.471 40.368C132.087 40.96 131.855 41.472 131.775 41.904C131.711 42.32 131.703 42.608 131.751 42.768C131.799 42.896 131.911 42.968 132.087 42.984C132.263 42.984 132.455 42.944 132.663 42.864C132.887 42.784 133.079 42.704 133.239 42.624C133.351 42.56 133.487 42.496 133.647 42.432C133.823 42.352 133.991 42.28 134.151 42.216C134.247 42.216 134.311 42.248 134.343 42.312C134.391 42.36 134.415 42.464 134.415 42.624C134.415 42.688 134.439 42.744 134.487 42.792C134.535 42.84 134.591 42.88 134.655 42.912C134.719 42.976 134.623 43.12 134.367 43.344C134.127 43.568 133.751 43.824 133.239 44.112C132.759 44.224 132.367 44.28 132.063 44.28C131.775 44.28 131.495 44.176 131.223 43.968C130.775 43.696 130.519 43.256 130.455 42.648C130.407 42.024 130.535 41.264 130.839 40.368C131.143 39.648 131.479 39.064 131.847 38.616C132.215 38.152 132.607 37.704 133.023 37.272C133.087 37.208 133.231 37.112 133.455 36.984C133.695 36.84 133.991 36.712 134.343 36.6C134.743 36.472 135.119 36.392 135.471 36.36C135.823 36.328 136.127 36.4 136.383 36.576C136.671 36.64 136.855 36.632 136.935 36.552C137.015 36.456 137.151 36.168 137.343 35.688C137.663 34.888 137.975 34.08 138.279 33.264C138.583 32.432 138.911 31.592 139.263 30.744C139.423 30.44 139.519 30.208 139.551 30.048C139.599 29.872 139.655 29.752 139.719 29.688H140.175C140.239 29.688 140.351 29.744 140.511 29.856C140.671 29.968 140.783 30.12 140.847 30.312C140.847 30.456 140.783 30.776 140.655 31.272C140.527 31.752 140.319 32.328 140.031 33C139.775 33.592 139.519 34.192 139.263 34.8C139.023 35.392 138.791 36.024 138.567 36.696C138.391 37.192 138.231 37.592 138.087 37.896C137.943 38.2 137.847 38.464 137.799 38.688C137.703 39.104 137.583 39.48 137.439 39.816C137.311 40.136 137.223 40.36 137.175 40.488C136.967 41.096 136.799 41.592 136.671 41.976C136.543 42.344 136.447 42.656 136.383 42.912C136.319 43.152 136.279 43.4 136.263 43.656C136.263 43.896 136.287 44.184 136.335 44.52C136.335 44.584 136.327 44.648 136.311 44.712C136.295 44.776 136.231 44.848 136.119 44.928ZM144.413 44.16C144.077 44.448 143.685 44.616 143.237 44.664C142.805 44.712 142.381 44.648 141.965 44.472C141.549 44.28 141.205 43.992 140.933 43.608C140.661 43.256 140.485 42.856 140.405 42.408C140.325 41.944 140.317 41.344 140.381 40.608C140.429 39.984 140.629 39.36 140.981 38.736C141.333 38.096 141.757 37.528 142.253 37.032C142.765 36.536 143.269 36.192 143.765 36C144.005 35.84 144.205 35.768 144.365 35.784C144.541 35.784 144.805 35.8 145.157 35.832C145.525 35.88 145.797 35.952 145.973 36.048C146.165 36.144 146.317 36.272 146.429 36.432C146.669 36.672 146.829 36.912 146.909 37.152C146.989 37.376 147.029 37.6 147.029 37.824C146.965 38.176 146.725 38.608 146.309 39.12C145.909 39.616 145.381 40.024 144.725 40.344C144.373 40.456 143.989 40.504 143.573 40.488C143.157 40.472 142.813 40.368 142.541 40.176C142.237 40.048 142.037 40.072 141.941 40.248C141.845 40.408 141.757 40.808 141.677 41.448C141.613 42.056 141.661 42.504 141.821 42.792C141.981 43.064 142.197 43.224 142.469 43.272C142.789 43.336 143.037 43.384 143.213 43.416C143.405 43.432 143.637 43.36 143.909 43.2C144.165 43.04 144.325 42.952 144.389 42.936C144.453 42.904 144.501 42.872 144.533 42.84C144.581 42.792 144.685 42.688 144.845 42.528C144.957 42.416 145.045 42.336 145.109 42.288C145.173 42.224 145.245 42.192 145.325 42.192C145.405 42.192 145.477 42.232 145.541 42.312C145.605 42.376 145.669 42.424 145.733 42.456C145.893 42.456 145.925 42.552 145.829 42.744C145.749 42.936 145.581 43.168 145.325 43.44C145.069 43.696 144.765 43.936 144.413 44.16ZM144.389 39.072C144.565 38.992 144.749 38.88 144.941 38.736C145.133 38.576 145.293 38.408 145.421 38.232C145.565 38.04 145.637 37.88 145.637 37.752C145.637 37.528 145.533 37.344 145.325 37.2C145.117 37.04 144.805 37.016 144.389 37.128C144.213 37.176 144.013 37.296 143.789 37.488C143.565 37.664 143.349 37.864 143.141 38.088C142.949 38.312 142.789 38.512 142.661 38.688C142.549 38.864 142.509 38.968 142.541 39C142.589 39.08 142.725 39.144 142.949 39.192C143.173 39.224 143.421 39.232 143.693 39.216C143.981 39.2 144.213 39.152 144.389 39.072ZM150.322 40.92C149.874 41 149.578 40.784 149.434 40.272C149.29 39.76 149.33 39.056 149.554 38.16C149.65 37.968 149.73 37.784 149.794 37.608C149.858 37.416 149.89 37.264 149.89 37.152C149.954 36.944 150.034 36.704 150.13 36.432C150.242 36.144 150.354 35.88 150.466 35.64C150.578 35.384 150.658 35.216 150.706 35.136C150.77 35.136 150.834 35.08 150.898 34.968C150.978 34.856 151.018 34.744 151.018 34.632C151.018 34.504 151.042 34.36 151.09 34.2C151.154 34.04 151.218 33.928 151.282 33.864C151.282 33.784 151.314 33.696 151.378 33.6C151.442 33.504 151.474 33.424 151.474 33.36C151.474 33.296 151.49 33.24 151.522 33.192C151.57 33.144 151.594 33.088 151.594 33.024C151.738 32.768 151.922 32.392 152.146 31.896C152.386 31.384 152.618 30.848 152.842 30.288C153.082 29.728 153.282 29.232 153.442 28.8C153.602 28.368 153.682 28.104 153.682 28.008C153.714 27.88 153.762 27.784 153.826 27.72C153.89 27.656 153.986 27.64 154.114 27.672C154.178 27.624 154.242 27.6 154.306 27.6C154.37 27.584 154.434 27.576 154.498 27.576C154.498 27.576 154.522 27.608 154.57 27.672C154.634 27.736 154.722 27.832 154.834 27.96C154.962 28.072 155.034 28.2 155.05 28.344C155.066 28.488 155.074 28.656 155.074 28.848C155.058 29.152 154.946 29.496 154.738 29.88C154.53 30.264 154.298 30.688 154.042 31.152C153.882 31.456 153.722 31.744 153.562 32.016C153.418 32.288 153.346 32.456 153.346 32.52C153.346 32.584 153.314 32.68 153.25 32.808C153.186 32.936 153.114 33.096 153.034 33.288C152.938 33.448 152.834 33.64 152.722 33.864C152.61 34.088 152.506 34.296 152.41 34.488C152.33 34.664 152.29 34.776 152.29 34.824C152.274 34.888 152.25 34.952 152.218 35.016C152.202 35.08 152.162 35.144 152.098 35.208C152.034 35.208 151.994 35.256 151.978 35.352C151.978 35.432 151.978 35.472 151.978 35.472C151.978 35.536 151.938 35.688 151.858 35.928C151.794 36.152 151.682 36.424 151.522 36.744C151.218 37.592 151.002 38.272 150.874 38.784C150.746 39.28 150.666 39.704 150.634 40.056C150.602 40.44 150.57 40.664 150.538 40.728C150.522 40.792 150.45 40.856 150.322 40.92ZM149.026 44.76C148.722 44.872 148.466 44.928 148.258 44.928C148.066 44.912 147.85 44.816 147.61 44.64C147.306 44.352 147.202 44.064 147.298 43.776C147.41 43.472 147.674 43.176 148.09 42.888C148.378 42.712 148.586 42.616 148.714 42.6C148.858 42.584 149.074 42.64 149.362 42.768C149.842 43.072 150.05 43.408 149.986 43.776C149.938 44.144 149.618 44.472 149.026 44.76Z" fill="black"/>
<path d="M110.942 56.56C116.295 68.8346 130.298 110.537 104.414 115.25C97.0824 116.584 83.9418 110.128 86.8407 100.831C90.7064 88.4331 107.057 98.3182 109.934 105.954C117.511 126.069 98.6757 148.026 81.4033 155.871C66.8982 162.458 49.7782 161.339 34.645 158.067C27.5462 156.533 22.2145 152.159 15.4635 150.298C5.01958 147.42 17.3009 156.412 20.4203 161.368C26.7941 171.496 16.9614 154.732 14.7432 151.253C11.0833 145.512 27.5142 140.419 33.3641 137.499" stroke="#1C1C1C" stroke-linecap="round"/>
</svg>
