<svg width="342" height="308" viewBox="0 0 342 308" fill="none" xmlns="http://www.w3.org/2000/svg">
<path d="M23.904 43.544C23.488 43.576 23.104 43.48 22.752 43.256C22.432 43.064 22.208 42.808 22.08 42.488C21.952 42.328 21.76 42.056 21.504 41.672C21.248 41.288 21.088 40.904 21.024 40.52C20.928 39.496 20.864 38.504 20.832 37.544C20.832 36.584 20.88 35.24 20.976 33.512C21.072 32.104 21.248 30.744 21.504 29.432C21.792 28.088 22.064 26.888 22.32 25.832C22.608 24.776 22.832 23.944 22.992 23.336C23.152 22.696 23.184 22.376 23.088 22.376C22.96 22.376 22.768 22.616 22.512 23.096C22.256 23.544 21.968 24.104 21.648 24.776C21.328 25.448 21.008 26.12 20.688 26.792C20.368 27.432 20.096 27.96 19.872 28.376C19.424 29.368 18.896 30.424 18.288 31.544C17.712 32.632 17.12 33.688 16.512 34.712C15.904 35.736 15.376 36.632 14.928 37.4C14.64 37.72 14.304 38.184 13.92 38.792C13.536 39.368 13.12 39.976 12.672 40.616C12.224 41.256 11.76 41.784 11.28 42.2C10.576 42.872 9.872 43.24 9.168 43.304C8.496 43.368 7.92 43.192 7.44 42.776C7.344 42.648 7.232 42.488 7.104 42.296C7.008 42.136 6.928 41.912 6.864 41.624C6.8 41.336 6.816 41 6.912 40.616C6.88 40.168 6.88 39.48 6.912 38.552C6.976 37.592 7.072 36.552 7.2 35.432C7.328 34.28 7.456 33.176 7.584 32.12C7.744 31.064 7.888 30.184 8.016 29.48C8.304 27.432 8.688 25.336 9.168 23.192C9.68 21.048 10.144 18.888 10.56 16.712C10.816 16.072 11.04 15.352 11.232 14.552C11.456 13.72 11.68 12.952 11.904 12.248C11.936 11.544 12.096 11.08 12.384 10.856C12.672 10.6 12.992 10.52 13.344 10.616C13.728 10.68 14.032 10.872 14.256 11.192C14.576 11.512 14.816 12.008 14.976 12.68C15.168 13.352 15.04 14.2 14.592 15.224C13.952 16.792 13.328 18.712 12.72 20.984C12.144 23.224 11.616 25.944 11.136 29.144C11.008 29.912 10.864 30.824 10.704 31.88C10.544 32.936 10.4 33.96 10.272 34.952C10.144 35.944 10.048 36.776 9.984 37.448C9.952 38.12 9.968 38.472 10.032 38.504C10.288 38.568 10.64 38.376 11.088 37.928C11.536 37.448 11.936 36.824 12.288 36.056C13.6 33.88 14.896 31.608 16.176 29.24C17.488 26.84 18.736 24.472 19.92 22.136C20.464 21.208 21.008 20.2 21.552 19.112C22.128 17.992 22.672 16.968 23.184 16.04C23.728 15.08 24.224 14.216 24.672 13.448C25.12 12.648 25.504 11.992 25.824 11.48C26.144 10.968 26.4 10.68 26.592 10.616C27.104 10.648 27.536 10.776 27.888 11C28.272 11.192 28.592 11.608 28.848 12.248C28.912 12.408 28.896 12.68 28.8 13.064C28.704 13.448 28.592 13.784 28.464 14.072C28.432 14.296 28.288 14.76 28.032 15.464C27.808 16.168 27.6 16.952 27.408 17.816C27.088 18.68 26.8 19.544 26.544 20.408C26.32 21.24 26.16 21.928 26.064 22.472C25.808 23.848 25.488 25.368 25.104 27.032C24.72 28.664 24.384 30.296 24.096 31.928C23.84 33.528 23.696 34.968 23.664 36.248C23.632 37.144 23.632 37.848 23.664 38.36C23.728 38.872 23.824 39.272 23.952 39.56C24.016 39.816 24.208 39.976 24.528 40.04C24.88 40.104 25.168 39.992 25.392 39.704C26.032 38.904 26.576 38.184 27.024 37.544C27.504 36.872 27.952 36.2 28.368 35.528C28.784 34.824 29.216 34.04 29.664 33.176C30.464 31.704 31.28 30.072 32.112 28.28C32.976 26.456 33.792 24.648 34.56 22.856C35.36 21.064 36.048 19.496 36.624 18.152C37.232 16.424 37.712 15.048 38.064 14.024C38.448 13 38.784 12.232 39.072 11.72C39.36 11.208 39.664 10.856 39.984 10.664C40.144 10.536 40.368 10.472 40.656 10.472C40.944 10.472 41.232 10.6 41.52 10.856C41.648 10.984 41.76 11.192 41.856 11.48C41.984 11.736 42.032 12.056 42 12.44C41.84 12.952 41.552 13.768 41.136 14.888C40.752 16.008 40.304 17.24 39.792 18.584C39.28 19.928 38.784 21.208 38.304 22.424C37.824 23.64 37.408 24.616 37.056 25.352C36.704 26.024 36.368 26.6 36.048 27.08C35.728 27.56 35.568 27.928 35.568 28.184C35.568 28.312 35.408 28.712 35.088 29.384C34.768 30.024 34.352 30.808 33.84 31.736C33.36 32.664 32.832 33.624 32.256 34.616C31.68 35.608 31.136 36.52 30.624 37.352C30.112 38.184 29.68 38.824 29.328 39.272C28.528 40.264 27.744 41.08 26.976 41.72C26.24 42.36 25.6 42.824 25.056 43.112C24.512 43.4 24.128 43.544 23.904 43.544ZM39.6829 39.272C39.5549 39.016 39.3949 38.824 39.2029 38.696C39.0109 38.536 38.9149 38.392 38.9149 38.264C38.9149 38.136 38.8989 38.008 38.8669 37.88C38.8669 37.72 38.8029 37.576 38.6749 37.448C38.5149 37.256 38.5309 36.824 38.7229 36.152C38.9149 35.448 39.2349 34.6 39.6829 33.608C40.1309 32.584 40.6589 31.512 41.2669 30.392C41.5229 30.136 41.7789 29.8 42.0349 29.384C42.2909 28.968 42.4829 28.696 42.6109 28.568C42.6109 28.44 42.6589 28.328 42.7549 28.232C42.8509 28.104 42.9629 28.04 43.0909 28.04V27.752C43.0909 27.592 43.2349 27.32 43.5229 26.936C43.8429 26.552 44.2269 26.136 44.6749 25.688C45.1229 25.208 45.5869 24.76 46.0669 24.344C46.5469 23.896 46.9469 23.576 47.2669 23.384C47.9389 22.936 48.6269 22.664 49.3309 22.568C50.0669 22.472 50.6909 22.632 51.2029 23.048C51.2989 23.144 51.4589 23.304 51.6829 23.528C51.9069 23.752 52.1629 24.008 52.4509 24.296C52.7709 24.552 53.0909 24.824 53.4109 25.112L55.1869 26.696L54.3229 29.096C53.9069 30.376 53.7949 31.496 53.9869 32.456C54.2109 33.416 54.5309 34.248 54.9469 34.952C55.1069 35.304 55.4269 35.64 55.9069 35.96C56.4189 36.28 56.8989 36.472 57.3469 36.536C57.6029 36.568 57.8429 36.664 58.0669 36.824C58.2909 36.984 58.4029 37.24 58.4029 37.592C58.4029 37.912 58.3389 38.168 58.2109 38.36C58.0829 38.552 57.8589 38.68 57.5389 38.744C56.4829 38.872 55.4909 38.616 54.5629 37.976C53.6669 37.336 52.8349 36.28 52.0669 34.808C51.9389 34.616 51.7629 34.264 51.5389 33.752C51.3469 33.208 51.2349 32.856 51.2029 32.696C51.0749 32.856 50.8349 33.16 50.4829 33.608C50.1309 34.024 49.8589 34.328 49.6669 34.52C47.3949 36.824 45.4269 38.376 43.7629 39.176C42.1309 39.944 40.7709 39.976 39.6829 39.272ZM41.4109 36.584C41.4109 36.808 41.7469 36.808 42.4189 36.584C43.1229 36.328 43.8749 35.88 44.6749 35.24C45.7629 34.312 46.8509 33.288 47.9389 32.168C49.0589 31.048 49.9549 30.008 50.6269 29.048L51.6829 27.32C51.3629 26.584 51.0109 26.088 50.6269 25.832C50.2749 25.544 49.9709 25.4 49.7149 25.4C49.2989 25.4 48.6749 25.784 47.8429 26.552C47.0429 27.32 46.1789 28.344 45.2509 29.624C44.3229 30.904 43.4429 32.312 42.6109 33.848C42.2909 34.488 42.0029 35.112 41.7469 35.72C41.5229 36.296 41.4109 36.584 41.4109 36.584ZM64.092 40.664C63.74 40.6 63.372 40.424 62.988 40.136C62.636 39.816 62.316 39.464 62.028 39.08C61.772 38.664 61.596 38.296 61.5 37.976C61.5 37.912 61.452 37.832 61.356 37.736C61.292 37.64 61.26 37.592 61.26 37.592C61.132 37.496 61.052 37.08 61.02 36.344C61.02 35.576 61.068 34.728 61.164 33.8C61.26 32.872 61.372 32.136 61.5 31.592C61.66 31.08 61.9 30.392 62.22 29.528C62.54 28.632 62.812 27.832 63.036 27.128L64.332 24.344L62.412 23.816C62.188 23.752 61.996 23.624 61.836 23.432C61.708 23.24 61.644 23.08 61.644 22.952C61.644 22.696 61.788 22.392 62.076 22.04C62.364 21.656 62.572 21.464 62.7 21.464C62.86 21.496 63.148 21.512 63.564 21.512C64.012 21.512 64.444 21.496 64.86 21.464C65.276 21.432 65.532 21.4 65.628 21.368C65.756 21.304 65.884 21.224 66.012 21.128C66.14 21 66.236 20.824 66.3 20.6C66.46 20.248 66.604 19.928 66.732 19.64C66.86 19.32 67.036 18.968 67.26 18.584C67.484 18.168 67.66 17.816 67.788 17.528C67.948 17.24 68.188 16.84 68.508 16.328C68.668 16.104 68.844 15.832 69.036 15.512C69.228 15.192 69.468 14.92 69.756 14.696C70.044 14.44 70.332 14.328 70.62 14.36C70.94 14.36 71.34 14.568 71.82 14.984C72.076 15.304 72.22 15.544 72.252 15.704C72.284 15.864 72.156 16.168 71.868 16.616C71.612 17.16 71.308 17.704 70.956 18.248C70.636 18.792 70.332 19.336 70.044 19.88C69.532 20.584 69.436 20.984 69.756 21.08C70.076 21.176 70.972 21.112 72.444 20.888C73.372 20.728 74.044 20.776 74.46 21.032C74.876 21.256 75.116 21.64 75.18 22.184C75.276 22.952 75.196 23.416 74.94 23.576C74.684 23.736 73.948 23.816 72.732 23.816C71.964 23.944 71.308 24.024 70.764 24.056C70.22 24.056 69.82 24.056 69.564 24.056C69.148 24.088 68.876 24.104 68.748 24.104C68.62 24.104 68.428 24.136 68.172 24.2C67.916 24.264 67.724 24.376 67.596 24.536C67.5 24.664 67.388 24.856 67.26 25.112C67.132 25.24 66.94 25.576 66.684 26.12C66.428 26.664 66.108 27.256 65.724 27.896C65.276 29.24 64.892 30.584 64.572 31.928C64.252 33.24 63.996 34.52 63.804 35.768C63.676 36.568 63.692 37.128 63.852 37.448C64.012 37.736 64.428 37.912 65.1 37.976C65.452 38.008 66.012 38.008 66.78 37.976C67.58 37.912 68.204 37.816 68.652 37.688C69.004 37.528 69.372 37.368 69.756 37.208C70.14 37.016 70.492 36.824 70.812 36.632C71.1 36.472 71.388 36.312 71.676 36.152C71.964 35.96 72.108 35.864 72.108 35.864C72.268 35.608 72.444 35.528 72.636 35.624C72.828 35.72 72.988 35.96 73.116 36.344C73.116 36.728 73.036 37.128 72.876 37.544C72.716 37.96 72.124 38.456 71.1 39.032C69.66 39.928 68.332 40.472 67.116 40.664C65.932 40.824 64.924 40.824 64.092 40.664ZM81.2306 39.896C80.5266 39.896 79.9986 39.864 79.6466 39.8C79.2946 39.736 79.0226 39.64 78.8306 39.512C78.6386 39.384 78.4146 39.208 78.1586 38.984C78.0306 38.728 77.8706 38.456 77.6786 38.168C77.4866 37.88 77.3266 37.672 77.1986 37.544C77.0706 37.064 77.0066 36.44 77.0066 35.672C77.0386 34.904 77.1346 34.072 77.2946 33.176C77.4866 32.28 77.7426 31.448 78.0626 30.68C78.1906 30.424 78.3026 30.168 78.3986 29.912C78.4946 29.656 78.5426 29.528 78.5426 29.528C78.5426 29.368 78.7346 28.984 79.1186 28.376C79.5346 27.768 79.9826 27.128 80.4626 26.456C80.9746 25.784 81.3906 25.304 81.7106 25.016C81.9346 24.76 82.2706 24.488 82.7186 24.2C83.1986 23.912 83.6146 23.704 83.9666 23.576C84.3186 23.448 84.6706 23.336 85.0226 23.24C85.4066 23.144 85.8386 23.096 86.3186 23.096C86.7666 23.096 87.1826 23.192 87.5666 23.384C87.9506 23.576 88.3186 23.912 88.6706 24.392C89.2466 24.968 89.5666 25.544 89.6306 26.12C89.7266 26.664 89.7106 27.224 89.5826 27.8C89.4226 28.44 89.2146 28.936 88.9586 29.288C88.7026 29.608 88.4146 29.752 88.0946 29.72C87.7746 29.688 87.4066 29.448 86.9906 29C86.8626 28.744 86.7986 28.536 86.7986 28.376C86.7986 28.184 86.8626 27.912 86.9906 27.56C87.1186 27.112 87.1186 26.648 86.9906 26.168C86.8626 25.688 86.6546 25.448 86.3666 25.448C85.9506 25.448 85.4866 25.64 84.9746 26.024C84.4946 26.376 83.9986 26.824 83.4866 27.368C83.2626 27.624 82.9426 28.024 82.5266 28.568C82.1426 29.08 81.7586 29.656 81.3746 30.296C80.9906 30.904 80.6706 31.496 80.4146 32.072C80.0626 33.128 79.7746 33.976 79.5506 34.616C79.3586 35.256 79.2626 35.576 79.2626 35.576C79.2626 35.704 79.2946 35.832 79.3586 35.96C79.4546 36.056 79.5026 36.168 79.5026 36.296C79.5026 36.68 79.7266 36.984 80.1746 37.208C80.5266 37.432 80.9426 37.56 81.4226 37.592C81.9026 37.592 82.4946 37.432 83.1986 37.112C83.7106 36.856 84.1906 36.52 84.6386 36.104C85.1186 35.688 85.6146 35.32 86.1266 35C86.4786 34.776 86.7506 34.584 86.9426 34.424C87.1666 34.264 87.2786 34.248 87.2786 34.376C87.2786 34.504 87.3266 34.568 87.4226 34.568C87.5186 34.568 87.6306 34.504 87.7586 34.376C87.9506 34.12 88.1586 33.96 88.3826 33.896C88.6066 33.8 88.7986 33.768 88.9586 33.8C89.1506 33.8 89.2466 33.848 89.2466 33.944C89.1826 34.232 89.2466 34.472 89.4386 34.664C89.4386 34.792 89.3906 34.968 89.2946 35.192C89.2306 35.384 89.1346 35.544 89.0066 35.672C88.8466 35.896 88.6066 36.152 88.2866 36.44C87.9986 36.728 87.7266 36.984 87.4706 37.208C87.2146 37.4 87.0866 37.496 87.0866 37.496C86.9586 37.464 86.8306 37.496 86.7026 37.592C86.6066 37.688 86.4946 37.8 86.3666 37.928C86.1106 38.152 85.8706 38.328 85.6466 38.456C85.4226 38.552 85.2466 38.6 85.1186 38.6C84.8946 38.728 84.7186 38.808 84.5906 38.84C84.4946 38.872 84.4466 38.952 84.4466 39.08C84.1266 39.4 83.7266 39.624 83.2466 39.752C82.7986 39.848 82.1266 39.896 81.2306 39.896ZM109.723 39.944C109.115 40.104 108.667 40.168 108.379 40.136C108.091 40.072 107.707 39.8 107.227 39.32C106.939 38.872 106.683 38.472 106.459 38.12C106.235 37.768 106.091 37.144 106.027 36.248C105.995 35.64 106.027 34.984 106.123 34.28C106.251 33.544 106.299 33.016 106.267 32.696C106.523 31.512 106.619 30.568 106.555 29.864C106.523 29.128 106.427 28.76 106.267 28.76C105.915 28.696 105.275 29.048 104.347 29.816C103.451 30.552 102.411 31.528 101.227 32.744C100.075 33.928 98.9228 35.176 97.7708 36.488C97.1628 37.32 96.7308 37.944 96.4748 38.36C96.2188 38.744 96.0268 38.936 95.8988 38.936C95.6748 38.936 95.3708 38.856 94.9868 38.696C94.6028 38.536 94.2668 38.344 93.9788 38.12C93.6908 37.864 93.5308 37.64 93.4988 37.448C93.4988 37.32 93.5788 36.984 93.7388 36.44C93.8988 35.864 94.0908 35.208 94.3148 34.472C94.5708 33.736 94.7948 33.048 94.9868 32.408C95.1788 31.768 95.3228 31.32 95.4188 31.064C95.7068 30.232 96.0428 29.224 96.4268 28.04C96.8428 26.824 97.2108 25.752 97.5308 24.824C97.6588 24.408 97.8828 23.816 98.2028 23.048C98.5228 22.248 98.8428 21.448 99.1628 20.648C99.4828 19.848 99.7068 19.256 99.8348 18.872C99.9308 18.616 100.107 18.168 100.363 17.528C100.619 16.856 100.891 16.12 101.179 15.32C101.499 14.52 101.787 13.784 102.043 13.112C102.331 12.408 102.523 11.896 102.619 11.576C102.587 11.288 102.603 11.032 102.667 10.808C102.763 10.552 102.859 10.36 102.955 10.232C103.083 10.232 103.227 10.232 103.387 10.232C103.547 10.2 103.627 10.184 103.627 10.184C103.627 10.12 103.755 10.184 104.011 10.376C104.267 10.568 104.507 10.808 104.731 11.096C104.987 11.352 105.115 11.576 105.115 11.768C105.275 12.184 105.291 12.728 105.163 13.4C105.035 14.04 104.699 15.016 104.155 16.328C103.803 16.84 103.451 17.608 103.099 18.632C102.779 19.656 102.459 20.52 102.139 21.224C102.011 21.448 101.771 21.928 101.419 22.664C101.099 23.4 100.715 24.264 100.267 25.256C99.8508 26.248 99.4508 27.256 99.0668 28.28C98.6828 29.272 98.3788 30.168 98.1548 30.968C97.8348 31.736 97.7228 32.248 97.8188 32.504C97.9148 32.76 98.2988 32.472 98.9708 31.64C99.8668 30.68 100.811 29.704 101.803 28.712C102.795 27.72 103.723 26.888 104.587 26.216C105.483 25.512 106.203 25.192 106.747 25.256C107.035 25.32 107.339 25.512 107.659 25.832C108.011 26.152 108.347 26.52 108.667 26.936C108.987 27.352 109.211 27.752 109.339 28.136C109.467 28.616 109.547 29.032 109.579 29.384C109.643 29.736 109.659 30.264 109.627 30.968C109.595 31.64 109.515 32.712 109.387 34.184C109.195 35.272 109.067 36.056 109.003 36.536C108.939 36.984 108.955 37.304 109.051 37.496C109.179 37.688 109.371 37.896 109.627 38.12C110.107 38.504 110.347 38.84 110.347 39.128C110.379 39.416 110.171 39.688 109.723 39.944ZM130.233 40.664C129.881 40.6 129.513 40.424 129.129 40.136C128.777 39.816 128.457 39.464 128.169 39.08C127.913 38.664 127.737 38.296 127.641 37.976C127.641 37.912 127.593 37.832 127.497 37.736C127.433 37.64 127.401 37.592 127.401 37.592C127.273 37.496 127.193 37.08 127.161 36.344C127.161 35.576 127.209 34.728 127.305 33.8C127.401 32.872 127.513 32.136 127.641 31.592C127.801 31.08 128.041 30.392 128.361 29.528C128.681 28.632 128.953 27.832 129.177 27.128L130.473 24.344L128.553 23.816C128.329 23.752 128.137 23.624 127.977 23.432C127.849 23.24 127.785 23.08 127.785 22.952C127.785 22.696 127.929 22.392 128.217 22.04C128.505 21.656 128.713 21.464 128.841 21.464C129.001 21.496 129.289 21.512 129.705 21.512C130.153 21.512 130.585 21.496 131.001 21.464C131.417 21.432 131.673 21.4 131.769 21.368C131.897 21.304 132.025 21.224 132.153 21.128C132.281 21 132.377 20.824 132.441 20.6C132.601 20.248 132.745 19.928 132.873 19.64C133.001 19.32 133.177 18.968 133.401 18.584C133.625 18.168 133.801 17.816 133.929 17.528C134.089 17.24 134.329 16.84 134.649 16.328C134.809 16.104 134.985 15.832 135.177 15.512C135.369 15.192 135.609 14.92 135.897 14.696C136.185 14.44 136.473 14.328 136.761 14.36C137.081 14.36 137.481 14.568 137.961 14.984C138.217 15.304 138.361 15.544 138.393 15.704C138.425 15.864 138.297 16.168 138.009 16.616C137.753 17.16 137.449 17.704 137.097 18.248C136.777 18.792 136.473 19.336 136.185 19.88C135.673 20.584 135.577 20.984 135.897 21.08C136.217 21.176 137.113 21.112 138.585 20.888C139.513 20.728 140.185 20.776 140.601 21.032C141.017 21.256 141.257 21.64 141.321 22.184C141.417 22.952 141.337 23.416 141.081 23.576C140.825 23.736 140.089 23.816 138.873 23.816C138.105 23.944 137.449 24.024 136.905 24.056C136.361 24.056 135.961 24.056 135.705 24.056C135.289 24.088 135.017 24.104 134.889 24.104C134.761 24.104 134.569 24.136 134.313 24.2C134.057 24.264 133.865 24.376 133.737 24.536C133.641 24.664 133.529 24.856 133.401 25.112C133.273 25.24 133.081 25.576 132.825 26.12C132.569 26.664 132.249 27.256 131.865 27.896C131.417 29.24 131.033 30.584 130.713 31.928C130.393 33.24 130.137 34.52 129.945 35.768C129.817 36.568 129.833 37.128 129.993 37.448C130.153 37.736 130.569 37.912 131.241 37.976C131.593 38.008 132.153 38.008 132.921 37.976C133.721 37.912 134.345 37.816 134.793 37.688C135.145 37.528 135.513 37.368 135.897 37.208C136.281 37.016 136.633 36.824 136.953 36.632C137.241 36.472 137.529 36.312 137.817 36.152C138.105 35.96 138.249 35.864 138.249 35.864C138.409 35.608 138.585 35.528 138.777 35.624C138.969 35.72 139.129 35.96 139.257 36.344C139.257 36.728 139.177 37.128 139.017 37.544C138.857 37.96 138.265 38.456 137.241 39.032C135.801 39.928 134.473 40.472 133.257 40.664C132.073 40.824 131.065 40.824 130.233 40.664ZM157.451 39.512C156.651 39.896 155.931 40.008 155.291 39.848C154.651 39.656 154.139 39.224 153.755 38.552C153.403 37.88 153.227 37.032 153.227 36.008C153.227 35.656 153.275 35.128 153.371 34.424C153.499 33.72 153.643 32.984 153.803 32.216C153.963 31.416 154.139 30.728 154.331 30.152C154.427 29.864 154.491 29.64 154.523 29.48C154.587 29.32 154.555 29.24 154.427 29.24C154.299 29.24 154.139 29.32 153.947 29.48C153.787 29.64 153.659 29.768 153.563 29.864C152.859 30.44 152.123 31.144 151.355 31.976C150.619 32.808 149.931 33.656 149.291 34.52C148.651 35.352 148.123 36.12 147.707 36.824C147.323 37.528 147.131 38.04 147.131 38.36C147.131 38.84 146.891 39.176 146.411 39.368C145.931 39.56 145.515 39.544 145.163 39.32C144.555 38.968 144.171 38.552 144.011 38.072C143.883 37.56 143.867 36.712 143.963 35.528C144.059 34.024 144.187 32.68 144.347 31.496C144.507 30.312 144.763 29.032 145.115 27.656C145.499 26.248 145.995 24.536 146.603 22.52C147.019 21.4 147.403 20.344 147.755 19.352C148.107 18.328 148.411 17.464 148.667 16.76C148.955 16.056 149.131 15.624 149.195 15.464C149.355 15.304 149.563 14.92 149.819 14.312C150.075 13.672 150.299 13.032 150.491 12.392C150.715 11.752 150.827 11.368 150.827 11.24C150.827 10.984 150.875 10.76 150.971 10.568C151.067 10.344 151.179 10.168 151.307 10.04C151.435 9.912 151.547 9.8 151.643 9.704C151.739 9.608 151.787 9.56 151.787 9.56C151.947 9.56 152.139 9.608 152.363 9.704C152.619 9.8 152.859 9.944 153.083 10.136C153.307 10.296 153.451 10.504 153.515 10.76C153.739 11.208 153.851 11.672 153.851 12.152C153.851 12.6 153.707 13.16 153.419 13.832C153.163 14.504 152.715 15.432 152.075 16.616C151.563 17.608 151.099 18.632 150.683 19.688C150.267 20.744 149.867 21.848 149.483 23C149.323 23.48 149.099 24.152 148.811 25.016C148.555 25.88 148.283 26.776 147.995 27.704C147.739 28.632 147.515 29.464 147.323 30.2C147.163 30.904 147.083 31.352 147.083 31.544C147.083 31.768 147.211 31.88 147.467 31.88C147.723 31.848 147.979 31.656 148.235 31.304C148.363 31.048 148.635 30.728 149.051 30.344C149.467 29.96 149.803 29.656 150.059 29.432C150.315 29.208 150.667 28.888 151.115 28.472C151.563 28.056 152.043 27.64 152.555 27.224C153.067 26.776 153.547 26.408 153.995 26.12C154.443 25.8 154.795 25.64 155.051 25.64C155.467 25.64 155.851 25.8 156.203 26.12C156.555 26.408 156.795 26.728 156.923 27.08C157.019 27.176 157.115 27.304 157.211 27.464C157.307 27.592 157.371 27.688 157.403 27.752C157.563 27.88 157.563 28.44 157.403 29.432C157.275 30.392 156.955 31.64 156.443 33.176C156.155 34.36 155.915 35.368 155.723 36.2C155.563 37 155.611 37.4 155.867 37.4C155.867 37.4 156.027 37.304 156.347 37.112C156.699 36.92 157.067 36.712 157.451 36.488C158.379 35.88 159.179 35.528 159.851 35.432C160.555 35.304 160.907 35.416 160.907 35.768C160.907 35.896 160.859 36.024 160.763 36.152C160.667 36.248 160.619 36.36 160.619 36.488C160.619 36.488 160.619 36.504 160.619 36.536C160.619 36.536 160.619 36.6 160.619 36.728C160.619 36.792 160.411 37.048 159.995 37.496C159.579 37.912 159.115 38.344 158.603 38.792C158.123 39.208 157.739 39.448 157.451 39.512ZM172.576 39.32C171.904 39.896 171.12 40.232 170.224 40.328C169.36 40.424 168.512 40.296 167.68 39.944C166.848 39.56 166.16 38.984 165.616 38.216C165.072 37.512 164.72 36.712 164.56 35.816C164.4 34.888 164.384 33.688 164.512 32.216C164.608 30.968 165.008 29.72 165.712 28.472C166.416 27.192 167.264 26.056 168.256 25.064C169.28 24.072 170.288 23.384 171.28 23C171.76 22.68 172.16 22.536 172.48 22.568C172.832 22.568 173.36 22.6 174.064 22.664C174.8 22.76 175.344 22.904 175.696 23.096C176.08 23.288 176.384 23.544 176.608 23.864C177.088 24.344 177.408 24.824 177.568 25.304C177.728 25.752 177.808 26.2 177.808 26.648C177.68 27.352 177.2 28.216 176.368 29.24C175.568 30.232 174.512 31.048 173.2 31.688C172.496 31.912 171.728 32.008 170.896 31.976C170.064 31.944 169.376 31.736 168.832 31.352C168.224 31.096 167.824 31.144 167.632 31.496C167.44 31.816 167.264 32.616 167.104 33.896C166.976 35.112 167.072 36.008 167.392 36.584C167.712 37.128 168.144 37.448 168.688 37.544C169.328 37.672 169.824 37.768 170.176 37.832C170.56 37.864 171.024 37.72 171.568 37.4C172.08 37.08 172.4 36.904 172.528 36.872C172.656 36.808 172.752 36.744 172.816 36.68C172.912 36.584 173.12 36.376 173.44 36.056C173.664 35.832 173.84 35.672 173.968 35.576C174.096 35.448 174.24 35.384 174.4 35.384C174.56 35.384 174.704 35.464 174.832 35.624C174.96 35.752 175.088 35.848 175.216 35.912C175.536 35.912 175.6 36.104 175.408 36.488C175.248 36.872 174.912 37.336 174.4 37.88C173.888 38.392 173.28 38.872 172.576 39.32ZM172.528 29.144C172.88 28.984 173.248 28.76 173.632 28.472C174.016 28.152 174.336 27.816 174.592 27.464C174.88 27.08 175.024 26.76 175.024 26.504C175.024 26.056 174.816 25.688 174.4 25.4C173.984 25.08 173.36 25.032 172.528 25.256C172.176 25.352 171.776 25.592 171.328 25.976C170.88 26.328 170.448 26.728 170.032 27.176C169.648 27.624 169.328 28.024 169.072 28.376C168.848 28.728 168.768 28.936 168.832 29C168.928 29.16 169.2 29.288 169.648 29.384C170.096 29.448 170.592 29.464 171.136 29.432C171.712 29.4 172.176 29.304 172.528 29.144ZM4.848 91.432C4.432 91.272 4.128 91.032 3.936 90.712C3.744 90.36 3.632 89.864 3.6 89.224C3.6 88.84 3.664 88.328 3.792 87.688C3.92 87.048 4.064 86.312 4.224 85.48C4.224 85.416 4.224 85.352 4.224 85.288C4.256 85.192 4.272 85.128 4.272 85.096C4.304 84.968 4.336 84.776 4.368 84.52C4.432 84.264 4.48 84.072 4.512 83.944C4.544 83.784 4.56 83.784 4.56 83.944L4.896 82.648C5.056 82.072 5.216 81.496 5.376 80.92C5.536 80.344 5.68 79.848 5.808 79.432C5.936 78.984 6.016 78.728 6.048 78.664C6.048 78.664 6.112 78.488 6.24 78.136C6.368 77.752 6.496 77.384 6.624 77.032C7.168 75.528 7.664 74.264 8.112 73.24C8.56 72.184 8.96 71.416 9.312 70.936C9.344 70.84 9.392 70.728 9.456 70.6C9.52 70.44 9.568 70.312 9.6 70.216C9.632 69.96 9.664 69.768 9.696 69.64C9.76 69.48 9.84 69.336 9.936 69.208C10 69.08 10.096 68.92 10.224 68.728C10.352 68.504 10.496 68.232 10.656 67.912L10.848 67.384C11.04 66.968 11.28 66.504 11.568 65.992C11.856 65.48 12.064 65.112 12.192 64.888C12.32 64.6 12.512 64.264 12.768 63.88C13.024 63.464 13.216 63.192 13.344 63.064L13.296 63.016C13.456 62.728 13.648 62.568 13.872 62.536C14.128 62.472 14.4 62.44 14.688 62.44C15.136 62.44 15.392 62.504 15.456 62.632C15.52 62.76 15.552 63.048 15.552 63.496C15.552 63.976 15.536 64.328 15.504 64.552C15.504 64.744 15.376 64.968 15.12 65.224H15.168C15.232 65.16 15.216 65.24 15.12 65.464C15.024 65.656 14.944 65.8 14.88 65.896C14.816 66.056 14.736 66.232 14.64 66.424C14.576 66.616 14.496 66.76 14.4 66.856C14.304 66.984 14.064 67.416 13.68 68.152C13.328 68.856 12.912 69.688 12.432 70.648C11.984 71.608 11.552 72.536 11.136 73.432C10.72 74.328 10.416 75.016 10.224 75.496L9.984 76.216C9.92 76.344 9.888 76.44 9.888 76.504C9.792 76.728 9.696 76.952 9.6 77.176C9.504 77.4 9.408 77.592 9.312 77.752L8.496 80.536L8.256 81.544L7.824 82.6L7.536 83.512C7.472 83.704 7.424 83.88 7.392 84.04C7.36 84.2 7.296 84.328 7.2 84.424C7.2 84.456 7.184 84.504 7.152 84.568C7.152 84.6 7.152 84.632 7.152 84.664C7.024 85.176 6.88 85.896 6.72 86.824C6.56 87.752 6.448 88.728 6.384 89.752C6.384 89.784 6.368 89.816 6.336 89.848C6.336 89.88 6.336 89.912 6.336 89.944C6.24 90.616 6.08 91.064 5.856 91.288C5.632 91.512 5.296 91.56 4.848 91.432ZM16.9894 89.608C16.7334 89.672 16.3974 89.704 15.9814 89.704C15.5654 89.672 15.1974 89.624 14.8774 89.56C14.5894 89.464 14.4454 89.368 14.4454 89.272C14.4454 89.112 14.3654 89.032 14.2054 89.032C14.2054 89.032 14.1254 88.968 13.9654 88.84C13.8374 88.712 13.6294 88.584 13.3414 88.456C13.0534 88.008 12.9094 87.528 12.9094 87.016C12.9094 86.472 13.0534 85.624 13.3414 84.472C13.4374 83.672 13.7414 82.744 14.2534 81.688C14.7974 80.6 15.4534 79.496 16.2214 78.376C16.9894 77.256 17.7894 76.248 18.6214 75.352C19.4854 74.456 20.2694 73.8 20.9734 73.384C21.4214 72.936 21.9654 72.696 22.6054 72.664C23.2454 72.632 23.8534 72.776 24.4294 73.096C24.7494 73.256 25.0694 73.512 25.3894 73.864C25.7094 74.216 26.0134 74.6 26.3014 75.016C26.5894 75.432 26.8294 75.848 27.0214 76.264C27.1174 76.616 27.1654 76.936 27.1654 77.224C27.1974 77.48 27.1974 77.8 27.1654 78.184C27.1654 78.568 27.1174 79.144 27.0214 79.912C26.8614 80.488 26.7174 81.192 26.5894 82.024C26.4934 82.856 26.4454 83.576 26.4454 84.184C26.3814 84.792 26.4454 85.224 26.6374 85.48C26.8614 85.736 27.1814 85.752 27.5974 85.528C27.9814 85.336 28.3494 85.256 28.7014 85.288C29.0534 85.288 29.3254 85.384 29.5174 85.576C29.7414 85.768 29.8534 86.056 29.8534 86.44C29.8534 86.824 29.6614 87.224 29.2774 87.64C28.9254 88.024 28.4774 88.36 27.9334 88.648C27.4214 88.904 26.9254 89.032 26.4454 89.032C26.0934 89.032 25.7574 88.824 25.4374 88.408C25.1174 87.96 24.8294 87.432 24.5734 86.824C24.3494 86.184 24.1414 85.576 23.9494 85L23.6614 83.896L21.5974 85.864C21.1814 86.312 20.7654 86.728 20.3494 87.112C19.9654 87.464 19.7254 87.72 19.6294 87.88C19.4694 88.168 19.1654 88.456 18.7174 88.744C18.3014 89.032 17.7254 89.32 16.9894 89.608ZM17.1334 86.776C17.6774 86.456 18.3014 85.992 19.0054 85.384C19.7094 84.744 20.3974 84.056 21.0694 83.32C21.7414 82.552 22.3014 81.848 22.7494 81.208C23.2934 80.472 23.7094 79.784 23.9974 79.144C24.2854 78.504 24.4934 77.896 24.6214 77.32C24.4934 76.968 24.2854 76.6 23.9974 76.216C23.7094 75.8 23.4534 75.576 23.2294 75.544C22.5254 75.544 21.7734 75.992 20.9734 76.888C20.2054 77.752 19.4534 78.696 18.7174 79.72C18.5894 79.88 18.4134 80.136 18.1894 80.488C17.9654 80.84 17.7414 81.176 17.5174 81.496C17.3254 81.784 17.1974 81.976 17.1334 82.072C17.0374 82.2 16.8454 82.568 16.5574 83.176C16.3014 83.752 16.0454 84.344 15.7894 84.952C15.5334 85.528 15.4054 85.912 15.4054 86.104C15.4054 86.296 15.4214 86.504 15.4534 86.728C15.5174 86.952 15.6774 87.096 15.9334 87.16C16.1894 87.224 16.5894 87.096 17.1334 86.776ZM35.967 90.664C35.615 90.6 35.247 90.424 34.863 90.136C34.511 89.816 34.191 89.464 33.903 89.08C33.647 88.664 33.471 88.296 33.375 87.976C33.375 87.912 33.327 87.832 33.231 87.736C33.167 87.64 33.135 87.592 33.135 87.592C33.007 87.496 32.927 87.08 32.895 86.344C32.895 85.576 32.943 84.728 33.039 83.8C33.135 82.872 33.247 82.136 33.375 81.592C33.535 81.08 33.775 80.392 34.095 79.528C34.415 78.632 34.687 77.832 34.911 77.128L36.207 74.344L34.287 73.816C34.063 73.752 33.871 73.624 33.711 73.432C33.583 73.24 33.519 73.08 33.519 72.952C33.519 72.696 33.663 72.392 33.951 72.04C34.239 71.656 34.447 71.464 34.575 71.464C34.735 71.496 35.023 71.512 35.439 71.512C35.887 71.512 36.319 71.496 36.735 71.464C37.151 71.432 37.407 71.4 37.503 71.368C37.631 71.304 37.759 71.224 37.887 71.128C38.015 71 38.111 70.824 38.175 70.6C38.335 70.248 38.479 69.928 38.607 69.64C38.735 69.32 38.911 68.968 39.135 68.584C39.359 68.168 39.535 67.816 39.663 67.528C39.823 67.24 40.063 66.84 40.383 66.328C40.543 66.104 40.719 65.832 40.911 65.512C41.103 65.192 41.343 64.92 41.631 64.696C41.919 64.44 42.207 64.328 42.495 64.36C42.815 64.36 43.215 64.568 43.695 64.984C43.951 65.304 44.095 65.544 44.127 65.704C44.159 65.864 44.031 66.168 43.743 66.616C43.487 67.16 43.183 67.704 42.831 68.248C42.511 68.792 42.207 69.336 41.919 69.88C41.407 70.584 41.311 70.984 41.631 71.08C41.951 71.176 42.847 71.112 44.319 70.888C45.247 70.728 45.919 70.776 46.335 71.032C46.751 71.256 46.991 71.64 47.055 72.184C47.151 72.952 47.071 73.416 46.815 73.576C46.559 73.736 45.823 73.816 44.607 73.816C43.839 73.944 43.183 74.024 42.639 74.056C42.095 74.056 41.695 74.056 41.439 74.056C41.023 74.088 40.751 74.104 40.623 74.104C40.495 74.104 40.303 74.136 40.047 74.2C39.791 74.264 39.599 74.376 39.471 74.536C39.375 74.664 39.263 74.856 39.135 75.112C39.007 75.24 38.815 75.576 38.559 76.12C38.303 76.664 37.983 77.256 37.599 77.896C37.151 79.24 36.767 80.584 36.447 81.928C36.127 83.24 35.871 84.52 35.679 85.768C35.551 86.568 35.567 87.128 35.727 87.448C35.887 87.736 36.303 87.912 36.975 87.976C37.327 88.008 37.887 88.008 38.655 87.976C39.455 87.912 40.079 87.816 40.527 87.688C40.879 87.528 41.247 87.368 41.631 87.208C42.015 87.016 42.367 86.824 42.687 86.632C42.975 86.472 43.263 86.312 43.551 86.152C43.839 85.96 43.983 85.864 43.983 85.864C44.143 85.608 44.319 85.528 44.511 85.624C44.703 85.72 44.863 85.96 44.991 86.344C44.991 86.728 44.911 87.128 44.751 87.544C44.591 87.96 43.999 88.456 42.975 89.032C41.535 89.928 40.207 90.472 38.991 90.664C37.807 90.824 36.799 90.824 35.967 90.664ZM51.4256 89.848C50.1776 89.336 49.3616 88.632 48.9776 87.736C48.6256 86.808 48.5616 85.384 48.7856 83.464C48.8496 82.472 48.8816 81.816 48.8816 81.496C48.8816 81.176 48.7056 80.856 48.3536 80.536C48.2576 80.408 48.0816 80.232 47.8256 80.008C47.6016 79.784 47.5056 79.592 47.5376 79.432C47.5056 79.208 47.5216 78.968 47.5856 78.712C47.6496 78.424 47.7456 78.28 47.8736 78.28C48.0016 78.28 48.1296 78.248 48.2576 78.184C48.4176 78.12 48.5616 78.12 48.6896 78.184C48.8176 78.184 48.9616 78.2 49.1216 78.232C49.2816 78.264 49.3616 78.344 49.3616 78.472C49.4896 78.696 49.6976 78.728 49.9856 78.568C50.2736 78.376 50.5776 77.96 50.8976 77.32C51.2176 76.808 51.6336 76.296 52.1456 75.784C52.6896 75.272 53.2176 74.808 53.7296 74.392C54.2736 73.944 54.7216 73.624 55.0736 73.432C55.2336 73.368 55.4736 73.288 55.7936 73.192C56.1136 73.096 56.4496 73.016 56.8016 72.952C57.1856 72.888 57.5056 72.872 57.7616 72.904C58.3376 72.936 58.8176 73.096 59.2016 73.384C59.6176 73.672 60.0016 74.008 60.3536 74.392C60.7696 74.68 61.0256 75.064 61.1216 75.544C61.2496 76.024 61.2816 76.536 61.2176 77.08C61.1536 77.624 61.0096 78.12 60.7856 78.568C60.6896 78.888 60.4176 79.272 59.9696 79.72C59.5216 80.168 59.0096 80.6 58.4336 81.016C57.8576 81.432 57.3296 81.736 56.8496 81.928C56.4336 82.024 55.8896 82.104 55.2176 82.168C54.5776 82.232 53.9696 82.264 53.3936 82.264C52.8496 82.232 52.4816 82.168 52.2896 82.072C52.0656 81.944 51.8896 82.12 51.7616 82.6C51.6336 83.08 51.5376 83.768 51.4736 84.664C51.4096 85.368 51.4096 85.88 51.4736 86.2C51.5376 86.52 51.6016 86.744 51.6656 86.872C51.8896 87.096 52.1936 87.384 52.5776 87.736C52.9936 88.056 53.5696 88.104 54.3056 87.88C54.9136 87.72 55.5056 87.304 56.0816 86.632C56.6896 85.96 57.2496 85.416 57.7616 85C57.8896 84.776 58.0976 84.648 58.3856 84.616C58.7056 84.552 59.0416 84.568 59.3936 84.664C59.7456 84.888 59.8896 85.16 59.8256 85.48C59.7936 85.768 59.6336 86.216 59.3456 86.824C59.2496 87.048 59.0256 87.336 58.6736 87.688C58.3536 88.008 57.9856 88.344 57.5696 88.696C57.1856 89.016 56.8336 89.272 56.5136 89.464C55.5536 89.976 54.6576 90.248 53.8256 90.28C52.9936 90.28 52.1936 90.136 51.4256 89.848ZM54.2576 80.104C54.9616 79.944 55.5216 79.832 55.9376 79.768C56.3536 79.704 56.7536 79.528 57.1376 79.24C57.5216 78.92 58.0016 78.328 58.5776 77.464C58.7056 77.112 58.7376 76.76 58.6736 76.408C58.6416 76.056 58.5616 75.816 58.4336 75.688C58.1456 75.368 57.7936 75.272 57.3776 75.4C56.9936 75.496 56.6256 75.672 56.2736 75.928C56.0496 76.024 55.7136 76.264 55.2656 76.648C54.8496 77 54.4336 77.416 54.0176 77.896C53.6016 78.344 53.2656 78.76 53.0096 79.144C52.7536 79.528 52.6896 79.752 52.8176 79.816C52.7536 79.944 52.9296 80.024 53.3456 80.056C53.7936 80.088 54.0976 80.104 54.2576 80.104ZM68.235 90.568C67.435 90.632 66.667 90.584 65.931 90.424C65.227 90.264 64.619 89.992 64.107 89.608C63.627 89.192 63.291 88.696 63.099 88.12C62.875 87.672 62.763 87.368 62.763 87.208C62.763 87.016 62.875 86.856 63.099 86.728C63.355 86.728 63.579 86.808 63.771 86.968C63.995 87.096 64.283 87.24 64.635 87.4C65.115 87.816 65.691 88.04 66.363 88.072C67.067 88.104 67.707 87.992 68.283 87.736C68.859 87.48 69.179 87.16 69.243 86.776C69.243 86.648 69.195 86.424 69.099 86.104C69.003 85.784 68.891 85.448 68.763 85.096C67.899 83.88 67.259 82.68 66.843 81.496C66.459 80.28 66.267 79.288 66.267 78.52C66.267 77.944 66.443 77.336 66.795 76.696C67.147 76.024 67.627 75.464 68.235 75.016C68.811 74.408 69.451 73.864 70.155 73.384C70.859 72.904 71.563 72.488 72.267 72.136C73.003 71.784 73.659 71.528 74.235 71.368C74.587 71.368 75.051 71.416 75.627 71.512C76.203 71.608 76.603 71.72 76.827 71.848C77.179 71.976 77.515 72.328 77.835 72.904C78.155 73.448 78.315 73.992 78.315 74.536C78.315 74.76 78.251 75.048 78.123 75.4C77.995 75.752 77.787 76.168 77.499 76.648C77.371 77 77.227 77.336 77.067 77.656C76.907 77.944 76.827 78.152 76.827 78.28C76.667 78.632 76.443 78.808 76.155 78.808C75.899 78.776 75.627 78.632 75.339 78.376C75.083 78.088 74.875 77.752 74.715 77.368C74.587 76.888 74.539 76.504 74.571 76.216C74.603 75.896 74.731 75.56 74.955 75.208C75.307 74.856 75.483 74.616 75.483 74.488C75.483 74.36 75.307 74.296 74.955 74.296C74.731 74.296 74.315 74.44 73.707 74.728C73.131 74.984 72.507 75.336 71.835 75.784C71.195 76.2 70.635 76.648 70.155 77.128C69.547 77.704 69.179 78.12 69.051 78.376C68.955 78.632 68.907 79.032 68.907 79.576C68.907 80.024 69.003 80.584 69.195 81.256C69.419 81.928 69.643 82.376 69.867 82.6C69.867 82.6 69.979 82.824 70.203 83.272C70.427 83.688 70.699 84.136 71.019 84.616C71.947 86.664 72.187 88.136 71.739 89.032C71.291 89.928 70.123 90.44 68.235 90.568ZM84.3544 93.4C83.2984 93.24 82.5784 92.84 82.1944 92.2C81.8424 91.592 81.7624 90.648 81.9544 89.368C82.1464 88.76 82.2584 88.216 82.2904 87.736C82.3544 87.224 82.4984 86.904 82.7224 86.776C82.7224 86.776 82.7384 86.728 82.7704 86.632C82.8344 86.536 82.8184 86.44 82.7224 86.344C82.7224 85.928 82.8664 85.352 83.1544 84.616C83.2184 84.424 83.2984 84.2 83.3944 83.944C83.5224 83.656 83.5864 83.512 83.5864 83.512C83.4264 83.256 83.4264 83.048 83.5864 82.888C83.7464 82.728 83.9064 82.584 84.0664 82.456C84.2584 82.296 84.2744 82.12 84.1144 81.928C84.0504 81.8 84.1304 81.512 84.3544 81.064C84.5784 80.584 84.8344 80.088 85.1224 79.576C85.4104 79.064 85.6024 78.664 85.6984 78.376C85.6984 78.312 85.7784 78.088 85.9384 77.704C86.0984 77.32 86.2904 76.872 86.5144 76.36C86.7384 75.848 86.9464 75.384 87.1384 74.968C87.3624 74.552 87.5064 74.28 87.5704 74.152C87.8904 73.992 87.7624 73.88 87.1864 73.816C86.6104 73.752 86.0024 73.736 85.3624 73.768C84.3704 73.736 83.5704 73.688 82.9624 73.624C82.3864 73.56 81.9064 73.416 81.5224 73.192C81.1384 72.744 80.9944 72.424 81.0904 72.232C81.2184 72.008 81.6024 71.88 82.2424 71.848C82.6584 71.816 82.9784 71.8 83.2024 71.8C83.4584 71.8 83.7784 71.784 84.1624 71.752C84.5784 71.688 85.2184 71.608 86.0824 71.512L88.5304 71.32L88.6744 70.504C88.9304 70.088 89.1384 69.72 89.2984 69.4C89.4904 69.048 89.6504 68.696 89.7784 68.344C89.9064 67.992 90.0024 67.624 90.0664 67.24C90.0664 67.24 90.2104 66.984 90.4984 66.472C90.7864 65.928 90.9624 65.368 91.0264 64.792C91.4104 64.152 91.7464 63.576 92.0344 63.064C92.3224 62.52 92.4984 62.184 92.5624 62.056C92.9144 61.768 93.1544 61.624 93.2824 61.624C93.4424 61.624 93.7624 61.784 94.2424 62.104C94.5304 62.264 94.7864 62.456 95.0104 62.68C95.2344 62.904 95.3784 63.144 95.4424 63.4C95.5064 63.624 95.4104 63.848 95.1544 64.072C95.0904 64.2 94.9944 64.44 94.8664 64.792C94.7384 65.112 94.6424 65.384 94.5784 65.608C94.3864 65.832 94.1464 66.2 93.8584 66.712C93.6024 67.192 93.4264 67.688 93.3304 68.2C93.0744 68.744 92.8344 69.24 92.6104 69.688C92.3864 70.104 92.2104 70.312 92.0824 70.312C92.1464 70.632 92.3384 70.792 92.6584 70.792C92.9784 70.76 93.5064 70.728 94.2424 70.696C94.8504 70.632 95.2664 70.568 95.4904 70.504C95.7464 70.408 96.0344 70.44 96.3544 70.6C96.5144 70.824 96.6424 71.08 96.7384 71.368C96.8344 71.656 96.8504 71.928 96.7864 72.184C96.7544 72.408 96.6264 72.568 96.4024 72.664C96.2424 72.664 95.9064 72.76 95.3944 72.952C94.9144 73.112 94.3064 73.208 93.5704 73.24L91.0264 73.48L90.2104 75.112C89.9864 75.528 89.7944 75.912 89.6344 76.264C89.4744 76.584 89.3624 76.776 89.2984 76.84C89.2984 77.032 89.1864 77.32 88.9624 77.704C88.7704 78.088 88.5624 78.504 88.3384 78.952C88.1464 79.496 87.9224 79.992 87.6664 80.44C87.4424 80.888 87.3304 81.112 87.3304 81.112C87.2024 81.112 87.1384 81.208 87.1384 81.4C87.2984 81.784 87.2504 82.072 86.9944 82.264C86.8344 82.36 86.6904 82.504 86.5624 82.696C86.4664 82.856 86.4184 82.936 86.4184 82.936C86.5464 83.064 86.5624 83.224 86.4664 83.416C86.4024 83.608 86.3064 83.816 86.1784 84.04C86.1784 84.296 86.0984 84.664 85.9384 85.144C85.8104 85.624 85.6664 86.072 85.5064 86.488C85.5384 87.064 85.5704 87.432 85.6024 87.592C85.6344 87.752 85.7144 87.816 85.8424 87.784C86.0024 87.816 86.1464 87.816 86.2744 87.784C86.4024 87.752 86.5304 87.736 86.6584 87.736C87.1064 87.544 86.8664 88.664 85.9384 91.096C85.4264 91.896 85.0744 92.472 84.8824 92.824C84.6904 93.208 84.5144 93.4 84.3544 93.4ZM115.998 89.32C115.326 89.896 114.542 90.232 113.646 90.328C112.782 90.424 111.934 90.296 111.102 89.944C110.27 89.56 109.582 88.984 109.038 88.216C108.494 87.512 108.142 86.712 107.982 85.816C107.822 84.888 107.806 83.688 107.934 82.216C108.03 80.968 108.43 79.72 109.134 78.472C109.838 77.192 110.686 76.056 111.678 75.064C112.702 74.072 113.71 73.384 114.702 73C115.182 72.68 115.582 72.536 115.902 72.568C116.254 72.568 116.782 72.6 117.486 72.664C118.222 72.76 118.766 72.904 119.118 73.096C119.502 73.288 119.806 73.544 120.03 73.864C120.51 74.344 120.83 74.824 120.99 75.304C121.15 75.752 121.23 76.2 121.23 76.648C121.102 77.352 120.622 78.216 119.79 79.24C118.99 80.232 117.934 81.048 116.622 81.688C115.918 81.912 115.15 82.008 114.318 81.976C113.486 81.944 112.798 81.736 112.254 81.352C111.646 81.096 111.246 81.144 111.054 81.496C110.862 81.816 110.686 82.616 110.526 83.896C110.398 85.112 110.494 86.008 110.814 86.584C111.134 87.128 111.566 87.448 112.11 87.544C112.75 87.672 113.246 87.768 113.598 87.832C113.982 87.864 114.446 87.72 114.99 87.4C115.502 87.08 115.822 86.904 115.95 86.872C116.078 86.808 116.174 86.744 116.238 86.68C116.334 86.584 116.542 86.376 116.862 86.056C117.086 85.832 117.262 85.672 117.39 85.576C117.518 85.448 117.662 85.384 117.822 85.384C117.982 85.384 118.126 85.464 118.254 85.624C118.382 85.752 118.51 85.848 118.638 85.912C118.958 85.912 119.022 86.104 118.83 86.488C118.67 86.872 118.334 87.336 117.822 87.88C117.31 88.392 116.702 88.872 115.998 89.32ZM115.95 79.144C116.302 78.984 116.67 78.76 117.054 78.472C117.438 78.152 117.758 77.816 118.014 77.464C118.302 77.08 118.446 76.76 118.446 76.504C118.446 76.056 118.238 75.688 117.822 75.4C117.406 75.08 116.782 75.032 115.95 75.256C115.598 75.352 115.198 75.592 114.75 75.976C114.302 76.328 113.87 76.728 113.454 77.176C113.07 77.624 112.75 78.024 112.494 78.376C112.27 78.728 112.19 78.936 112.254 79C112.35 79.16 112.622 79.288 113.07 79.384C113.518 79.448 114.014 79.464 114.558 79.432C115.134 79.4 115.598 79.304 115.95 79.144ZM121.287 101.752C121.159 101.752 120.999 101.752 120.807 101.752C120.615 101.784 120.439 101.656 120.279 101.368C120.151 101.208 120.071 100.968 120.039 100.648C120.039 100.328 120.119 99.752 120.279 98.92C120.439 98.376 120.567 97.832 120.663 97.288C120.759 96.776 120.807 96.392 120.807 96.136C120.807 96.008 120.839 95.752 120.903 95.368C120.999 95.016 121.047 94.76 121.047 94.6C121.207 94.344 121.335 93.992 121.431 93.544C121.527 93.096 121.575 92.696 121.575 92.344C121.575 91.96 121.767 91.608 122.151 91.288C122.151 91.032 122.199 90.712 122.295 90.328C122.423 89.944 122.487 89.688 122.487 89.56C122.583 89.112 122.791 88.328 123.111 87.208C123.463 86.056 123.879 84.76 124.359 83.32C124.871 81.88 125.367 80.472 125.847 79.096C126.327 77.72 126.759 76.552 127.143 75.592C127.527 74.696 127.783 73.928 127.911 73.288C128.071 72.616 128.151 72.12 128.151 71.8C128.151 71.672 128.183 71.576 128.247 71.512C128.311 71.416 128.455 71.24 128.679 70.984C128.999 70.664 129.271 70.568 129.495 70.696C129.751 70.824 130.055 71.016 130.407 71.272C130.663 71.688 130.839 72.04 130.935 72.328C131.063 72.616 131.063 73.112 130.935 73.816C130.935 74.296 130.855 74.712 130.695 75.064C130.535 75.416 130.391 75.688 130.263 75.88C130.135 76.04 130.103 76.104 130.167 76.072C131.479 75.464 132.631 75.144 133.623 75.112C134.647 75.048 135.495 75.224 136.167 75.64C136.871 76.024 137.399 76.568 137.751 77.272C138.103 77.976 138.279 78.792 138.279 79.72C138.279 80.104 138.199 80.568 138.039 81.112C137.879 81.624 137.671 82.104 137.415 82.552C137.191 82.968 136.983 83.272 136.791 83.464C136.663 83.464 136.535 83.576 136.407 83.8C136.279 83.992 136.151 84.216 136.023 84.472C135.767 84.792 135.351 85.16 134.775 85.576C134.231 85.96 133.687 86.28 133.143 86.536C132.599 86.76 132.199 86.824 131.943 86.728C131.943 86.728 131.895 86.744 131.799 86.776C131.735 86.776 131.703 86.856 131.703 87.016C131.703 87.08 131.447 87.224 130.935 87.448C130.423 87.64 129.831 87.832 129.159 88.024C128.487 88.184 127.895 88.264 127.383 88.264C126.711 88.264 126.231 88.136 125.943 87.88C125.879 87.944 125.799 88.04 125.703 88.168C125.639 88.296 125.607 88.408 125.607 88.504C125.607 88.696 125.527 89.064 125.367 89.608C125.239 90.12 125.079 90.616 124.887 91.096C124.695 91.576 124.519 91.816 124.359 91.816C124.359 91.816 124.327 91.864 124.263 91.96C124.199 92.056 124.231 92.184 124.359 92.344C124.359 92.344 124.343 92.52 124.311 92.872C124.311 93.256 124.231 93.576 124.071 93.832C124.071 94.088 124.023 94.472 123.927 94.984C123.831 95.496 123.719 95.88 123.591 96.136C123.591 96.52 123.527 96.888 123.399 97.24C123.303 97.624 123.191 97.816 123.063 97.816C122.935 97.848 122.855 98.04 122.823 98.392C122.791 98.776 122.775 99.048 122.775 99.208C122.743 100.008 122.583 100.632 122.295 101.08C122.007 101.528 121.671 101.752 121.287 101.752ZM127.095 85.72C127.351 85.72 127.879 85.608 128.679 85.384C129.479 85.16 130.295 84.888 131.127 84.568C131.991 84.216 132.631 83.864 133.047 83.512C133.879 82.776 134.519 81.944 134.967 81.016C135.447 80.056 135.415 79.144 134.871 78.28C134.615 77.832 134.151 77.656 133.479 77.752C132.807 77.816 132.071 78.072 131.271 78.52C130.471 78.968 129.719 79.528 129.015 80.2C128.631 80.616 128.279 81.128 127.959 81.736C127.639 82.344 127.367 82.952 127.143 83.56C126.951 84.168 126.839 84.68 126.807 85.096C126.775 85.512 126.871 85.72 127.095 85.72ZM143.7 89.512C143.22 89.448 142.804 89.112 142.452 88.504C142.132 87.864 141.94 87.288 141.876 86.776C141.908 86.52 141.94 86.152 141.972 85.672C142.036 85.192 142.1 84.696 142.164 84.184C142.292 83.576 142.468 82.84 142.692 81.976C142.916 81.08 143.14 80.184 143.364 79.288C143.62 78.392 143.844 77.624 144.036 76.984C144.228 76.344 144.356 75.96 144.42 75.832C144.58 75.576 144.836 75.512 145.188 75.64C145.54 75.768 145.828 75.96 146.052 76.216C146.244 76.472 146.356 76.776 146.388 77.128C146.452 77.48 146.404 77.992 146.244 78.664C146.116 79.336 145.86 80.328 145.476 81.64C145.124 82.92 144.852 83.96 144.66 84.76C144.5 85.528 144.436 86.344 144.468 87.208C144.34 88.296 144.244 88.968 144.18 89.224C144.116 89.448 143.956 89.544 143.7 89.512ZM149.22 70.36C149.092 70.456 148.964 70.504 148.836 70.504C148.74 70.472 148.564 70.376 148.308 70.216C148.084 70.184 147.796 70.04 147.444 69.784C147.124 69.496 146.836 69.208 146.58 68.92C146.356 68.6 146.244 68.408 146.244 68.344C146.212 68.024 146.228 67.624 146.292 67.144C146.388 66.632 146.564 66.184 146.82 65.8C147.076 65.384 147.444 65.16 147.924 65.128C148.052 65.128 148.164 65.144 148.26 65.176C148.356 65.208 148.644 65.32 149.124 65.512C149.38 65.992 149.636 66.536 149.892 67.144C150.148 67.72 150.26 68.296 150.228 68.872C150.196 69.416 149.86 69.912 149.22 70.36ZM154.813 90.568C154.013 90.632 153.245 90.584 152.509 90.424C151.805 90.264 151.197 89.992 150.685 89.608C150.205 89.192 149.869 88.696 149.677 88.12C149.453 87.672 149.341 87.368 149.341 87.208C149.341 87.016 149.453 86.856 149.677 86.728C149.933 86.728 150.157 86.808 150.349 86.968C150.573 87.096 150.861 87.24 151.213 87.4C151.693 87.816 152.269 88.04 152.941 88.072C153.645 88.104 154.285 87.992 154.861 87.736C155.437 87.48 155.757 87.16 155.821 86.776C155.821 86.648 155.773 86.424 155.677 86.104C155.581 85.784 155.469 85.448 155.341 85.096C154.477 83.88 153.837 82.68 153.421 81.496C153.037 80.28 152.845 79.288 152.845 78.52C152.845 77.944 153.021 77.336 153.373 76.696C153.725 76.024 154.205 75.464 154.813 75.016C155.389 74.408 156.029 73.864 156.733 73.384C157.437 72.904 158.141 72.488 158.845 72.136C159.581 71.784 160.237 71.528 160.813 71.368C161.165 71.368 161.629 71.416 162.205 71.512C162.781 71.608 163.181 71.72 163.405 71.848C163.757 71.976 164.093 72.328 164.413 72.904C164.733 73.448 164.893 73.992 164.893 74.536C164.893 74.76 164.829 75.048 164.701 75.4C164.573 75.752 164.365 76.168 164.077 76.648C163.949 77 163.805 77.336 163.645 77.656C163.485 77.944 163.405 78.152 163.405 78.28C163.245 78.632 163.021 78.808 162.733 78.808C162.477 78.776 162.205 78.632 161.917 78.376C161.661 78.088 161.453 77.752 161.293 77.368C161.165 76.888 161.117 76.504 161.149 76.216C161.181 75.896 161.309 75.56 161.533 75.208C161.885 74.856 162.061 74.616 162.061 74.488C162.061 74.36 161.885 74.296 161.533 74.296C161.309 74.296 160.893 74.44 160.285 74.728C159.709 74.984 159.085 75.336 158.413 75.784C157.773 76.2 157.213 76.648 156.733 77.128C156.125 77.704 155.757 78.12 155.629 78.376C155.533 78.632 155.485 79.032 155.485 79.576C155.485 80.024 155.581 80.584 155.773 81.256C155.997 81.928 156.221 82.376 156.445 82.6C156.445 82.6 156.557 82.824 156.781 83.272C157.005 83.688 157.277 84.136 157.597 84.616C158.525 86.664 158.765 88.136 158.317 89.032C157.869 89.928 156.701 90.44 154.813 90.568ZM171.461 90.712C171.045 90.744 170.709 90.712 170.453 90.616C170.197 90.488 169.877 90.312 169.493 90.088C168.789 89.544 168.261 89 167.909 88.456C167.589 87.88 167.445 87.32 167.477 86.776C167.541 86.488 167.541 86.232 167.477 86.008C167.445 85.784 167.429 85.672 167.429 85.672C167.237 85.512 167.173 85.416 167.237 85.384C167.301 85.32 167.349 85.224 167.381 85.096C167.637 85.032 167.669 84.856 167.477 84.568C167.381 84.312 167.429 83.736 167.621 82.84C167.845 81.912 168.133 81.048 168.485 80.248C168.645 79.896 168.869 79.432 169.157 78.856C169.477 78.28 169.829 77.704 170.213 77.128C170.597 76.52 170.949 76.04 171.269 75.688C171.973 74.888 172.597 74.296 173.141 73.912C173.717 73.496 174.357 73.16 175.061 72.904C175.701 72.648 176.165 72.504 176.453 72.472C176.741 72.44 177.141 72.632 177.653 73.048C178.421 73.272 178.997 73.592 179.381 74.008C179.797 74.392 180.117 75 180.341 75.832C180.597 76.76 180.677 77.864 180.581 79.144C180.517 80.392 179.973 82.008 178.949 83.992C178.341 85.24 177.733 86.184 177.125 86.824C176.549 87.464 175.845 88.136 175.013 88.84C174.405 89.352 173.845 89.752 173.333 90.04C172.821 90.328 172.197 90.552 171.461 90.712ZM175.301 85C175.941 84.04 176.437 83.16 176.789 82.36C177.173 81.528 177.477 80.488 177.701 79.24C177.765 78.888 177.781 78.456 177.749 77.944C177.717 77.4 177.637 76.904 177.509 76.456C177.413 76.008 177.269 75.768 177.077 75.736C176.661 75.576 176.197 75.576 175.685 75.736C175.173 75.864 174.613 76.248 174.005 76.888C173.461 77.528 172.965 78.248 172.517 79.048C172.101 79.848 171.717 80.728 171.365 81.688C171.013 82.648 170.677 83.672 170.357 84.76C170.037 85.976 170.053 86.904 170.405 87.544C170.789 88.184 171.413 88.344 172.277 88.024C173.141 87.672 174.149 86.664 175.301 85ZM194.238 90.856C193.886 90.984 193.63 91.032 193.47 91C193.342 90.936 193.006 90.696 192.462 90.28C192.238 89.896 192.094 89.56 192.03 89.272C191.998 88.952 191.982 88.392 191.982 87.592C192.046 87.112 192.174 86.424 192.366 85.528C192.59 84.632 192.846 83.688 193.134 82.696C193.422 81.704 193.678 80.808 193.902 80.008C194.158 79.208 194.35 78.664 194.478 78.376C194.702 77.608 194.75 77.144 194.622 76.984C194.494 76.792 194.11 76.664 193.47 76.6C192.19 76.44 191.038 76.856 190.014 77.848C188.99 78.84 187.966 80.136 186.942 81.736C186.174 82.92 185.71 83.944 185.55 84.808C185.422 85.64 185.406 86.216 185.502 86.536C185.598 86.792 185.822 86.936 186.174 86.968C186.526 86.968 186.91 86.888 187.326 86.728C187.774 86.568 188.158 86.408 188.478 86.248C188.702 86.12 188.974 85.992 189.294 85.864C189.646 85.704 189.982 85.56 190.302 85.432C190.494 85.432 190.622 85.496 190.686 85.624C190.782 85.72 190.83 85.928 190.83 86.248C190.83 86.376 190.878 86.488 190.974 86.584C191.07 86.68 191.182 86.76 191.31 86.824C191.438 86.952 191.246 87.24 190.734 87.688C190.254 88.136 189.502 88.648 188.478 89.224C187.518 89.448 186.734 89.56 186.126 89.56C185.55 89.56 184.99 89.352 184.446 88.936C183.55 88.392 183.038 87.512 182.91 86.296C182.814 85.048 183.07 83.528 183.678 81.736C184.286 80.296 184.958 79.128 185.694 78.232C186.43 77.304 187.214 76.408 188.046 75.544C188.174 75.416 188.462 75.224 188.91 74.968C189.39 74.68 189.982 74.424 190.686 74.2C191.486 73.944 192.238 73.784 192.942 73.72C193.646 73.656 194.254 73.8 194.766 74.152C195.342 74.28 195.71 74.264 195.87 74.104C196.03 73.912 196.302 73.336 196.686 72.376C197.326 70.776 197.95 69.16 198.558 67.528C199.166 65.864 199.822 64.184 200.526 62.488C200.846 61.88 201.038 61.416 201.102 61.096C201.198 60.744 201.31 60.504 201.438 60.376H202.35C202.478 60.376 202.702 60.488 203.022 60.712C203.342 60.936 203.566 61.24 203.694 61.624C203.694 61.912 203.566 62.552 203.31 63.544C203.054 64.504 202.638 65.656 202.062 67C201.55 68.184 201.038 69.384 200.526 70.6C200.046 71.784 199.582 73.048 199.134 74.392C198.782 75.384 198.462 76.184 198.174 76.792C197.886 77.4 197.694 77.928 197.598 78.376C197.406 79.208 197.166 79.96 196.878 80.632C196.622 81.272 196.446 81.72 196.35 81.976C195.934 83.192 195.598 84.184 195.342 84.952C195.086 85.688 194.894 86.312 194.766 86.824C194.638 87.304 194.558 87.8 194.526 88.312C194.526 88.792 194.574 89.368 194.67 90.04C194.67 90.168 194.654 90.296 194.622 90.424C194.59 90.552 194.462 90.696 194.238 90.856ZM210.826 89.32C210.154 89.896 209.37 90.232 208.474 90.328C207.61 90.424 206.762 90.296 205.93 89.944C205.098 89.56 204.41 88.984 203.866 88.216C203.322 87.512 202.97 86.712 202.81 85.816C202.65 84.888 202.634 83.688 202.762 82.216C202.858 80.968 203.258 79.72 203.962 78.472C204.666 77.192 205.514 76.056 206.506 75.064C207.53 74.072 208.538 73.384 209.53 73C210.01 72.68 210.41 72.536 210.73 72.568C211.082 72.568 211.61 72.6 212.314 72.664C213.05 72.76 213.594 72.904 213.946 73.096C214.33 73.288 214.634 73.544 214.858 73.864C215.338 74.344 215.658 74.824 215.818 75.304C215.978 75.752 216.058 76.2 216.058 76.648C215.93 77.352 215.45 78.216 214.618 79.24C213.818 80.232 212.762 81.048 211.45 81.688C210.746 81.912 209.978 82.008 209.146 81.976C208.314 81.944 207.626 81.736 207.082 81.352C206.474 81.096 206.074 81.144 205.882 81.496C205.69 81.816 205.514 82.616 205.354 83.896C205.226 85.112 205.322 86.008 205.642 86.584C205.962 87.128 206.394 87.448 206.938 87.544C207.578 87.672 208.074 87.768 208.426 87.832C208.81 87.864 209.274 87.72 209.818 87.4C210.33 87.08 210.65 86.904 210.778 86.872C210.906 86.808 211.002 86.744 211.066 86.68C211.162 86.584 211.37 86.376 211.69 86.056C211.914 85.832 212.09 85.672 212.218 85.576C212.346 85.448 212.49 85.384 212.65 85.384C212.81 85.384 212.954 85.464 213.082 85.624C213.21 85.752 213.338 85.848 213.466 85.912C213.786 85.912 213.85 86.104 213.658 86.488C213.498 86.872 213.162 87.336 212.65 87.88C212.138 88.392 211.53 88.872 210.826 89.32ZM210.778 79.144C211.13 78.984 211.498 78.76 211.882 78.472C212.266 78.152 212.586 77.816 212.842 77.464C213.13 77.08 213.274 76.76 213.274 76.504C213.274 76.056 213.066 75.688 212.65 75.4C212.234 75.08 211.61 75.032 210.778 75.256C210.426 75.352 210.026 75.592 209.578 75.976C209.13 76.328 208.698 76.728 208.282 77.176C207.898 77.624 207.578 78.024 207.322 78.376C207.098 78.728 207.018 78.936 207.082 79C207.178 79.16 207.45 79.288 207.898 79.384C208.346 79.448 208.842 79.464 209.386 79.432C209.962 79.4 210.426 79.304 210.778 79.144ZM222.644 82.84C221.748 83 221.156 82.568 220.868 81.544C220.58 80.52 220.66 79.112 221.108 77.32C221.3 76.936 221.46 76.568 221.588 76.216C221.716 75.832 221.78 75.528 221.78 75.304C221.908 74.888 222.068 74.408 222.26 73.864C222.484 73.288 222.708 72.76 222.932 72.28C223.156 71.768 223.316 71.432 223.412 71.272C223.54 71.272 223.668 71.16 223.796 70.936C223.956 70.712 224.036 70.488 224.036 70.264C224.036 70.008 224.084 69.72 224.18 69.4C224.308 69.08 224.436 68.856 224.564 68.728C224.564 68.568 224.628 68.392 224.756 68.2C224.884 68.008 224.948 67.848 224.948 67.72C224.948 67.592 224.98 67.48 225.044 67.384C225.14 67.288 225.188 67.176 225.188 67.048C225.476 66.536 225.844 65.784 226.292 64.792C226.772 63.768 227.236 62.696 227.684 61.576C228.164 60.456 228.564 59.464 228.884 58.6C229.204 57.736 229.364 57.208 229.364 57.016C229.428 56.76 229.524 56.568 229.652 56.44C229.78 56.312 229.972 56.28 230.228 56.344C230.356 56.248 230.484 56.2 230.612 56.2C230.74 56.168 230.868 56.152 230.996 56.152C230.996 56.152 231.044 56.216 231.14 56.344C231.268 56.472 231.444 56.664 231.668 56.92C231.924 57.144 232.068 57.4 232.1 57.688C232.132 57.976 232.148 58.312 232.148 58.696C232.116 59.304 231.892 59.992 231.476 60.76C231.06 61.528 230.596 62.376 230.084 63.304C229.764 63.912 229.444 64.488 229.124 65.032C228.836 65.576 228.692 65.912 228.692 66.04C228.692 66.168 228.628 66.36 228.5 66.616C228.372 66.872 228.228 67.192 228.068 67.576C227.876 67.896 227.668 68.28 227.444 68.728C227.22 69.176 227.012 69.592 226.82 69.976C226.66 70.328 226.58 70.552 226.58 70.648C226.548 70.776 226.5 70.904 226.436 71.032C226.404 71.16 226.324 71.288 226.196 71.416C226.068 71.416 225.988 71.512 225.956 71.704C225.956 71.864 225.956 71.944 225.956 71.944C225.956 72.072 225.876 72.376 225.716 72.856C225.588 73.304 225.364 73.848 225.044 74.488C224.436 76.184 224.004 77.544 223.748 78.568C223.492 79.56 223.332 80.408 223.268 81.112C223.204 81.88 223.14 82.328 223.076 82.456C223.044 82.584 222.9 82.712 222.644 82.84ZM220.052 90.52C219.444 90.744 218.932 90.856 218.516 90.856C218.132 90.824 217.7 90.632 217.22 90.28C216.612 89.704 216.404 89.128 216.596 88.552C216.82 87.944 217.348 87.352 218.18 86.776C218.756 86.424 219.172 86.232 219.428 86.2C219.716 86.168 220.148 86.28 220.724 86.536C221.684 87.144 222.1 87.816 221.972 88.552C221.876 89.288 221.236 89.944 220.052 90.52Z" fill="black"/>
<path d="M243.856 78.732C260.729 91.6904 312.24 138.928 279.864 165.366C270.694 172.855 247.459 173.971 244.348 158.814C240.2 138.603 270.533 139.789 280.399 148.198C306.39 170.35 297.064 215.357 279.069 239.535C263.958 259.839 239.29 271.435 215.731 278.51C204.679 281.83 193.905 279.843 183.087 282.442C166.352 286.463 190.338 289.532 198.484 294.029C215.129 303.217 188.576 287.457 182.818 284.322C173.318 279.151 192.256 259.445 198.148 250.89" stroke="#1C1C1C" stroke-linecap="round"/>
</svg>
