<svg width="61" height="61" viewBox="0 0 61 61" fill="none" xmlns="http://www.w3.org/2000/svg">
<g clip-path="url(#clip0_2364_2760)">
<path d="M54.9251 0.205078H5.78003C2.78254 0.205078 0.352539 2.63508 0.352539 5.63256V54.7774C0.352539 57.7751 2.78254 60.2051 5.78003 60.2051H54.9249C57.9225 60.2051 60.3525 57.7751 60.3525 54.7774V5.63256C60.3525 2.63508 57.9225 0.205078 54.9251 0.205078ZM18.9191 52.013C18.9191 52.8854 18.212 53.5925 17.3396 53.5925H10.6162C9.7438 53.5925 9.03668 52.8854 9.03668 52.013V23.8286C9.03668 22.9562 9.7438 22.2491 10.6162 22.2491H17.3396C18.212 22.2491 18.9191 22.9562 18.9191 23.8286V52.013ZM13.9779 19.5923C10.4503 19.5923 7.59055 16.7326 7.59055 13.205C7.59055 9.67738 10.4503 6.81764 13.9779 6.81764C17.5055 6.81764 20.3652 9.67738 20.3652 13.205C20.3652 16.7326 17.5056 19.5923 13.9779 19.5923ZM54.0557 52.1403C54.0557 52.9422 53.4054 53.5925 52.6034 53.5925H45.3887C44.5867 53.5925 43.9364 52.9422 43.9364 52.1403V38.9202C43.9364 36.948 44.5149 30.2781 38.7825 30.2781C34.3361 30.2781 33.4342 34.8435 33.2531 36.8922V52.1403C33.2531 52.9422 32.603 53.5925 31.8009 53.5925H24.823C24.021 53.5925 23.3707 52.9422 23.3707 52.1403V23.7014C23.3707 22.8994 24.021 22.2491 24.823 22.2491H31.8009C32.6029 22.2491 33.2531 22.8994 33.2531 23.7014V26.1603C34.9019 23.686 37.3521 21.7762 42.5691 21.7762C54.1218 21.7762 54.0557 32.5693 54.0557 38.4995V52.1403Z" fill="#0077B7"/>
</g>
<defs>
<clipPath id="clip0_2364_2760">
<rect width="60" height="60" fill="white" transform="translate(0.352539 0.205078)"/>
</clipPath>
</defs>
</svg>
