<svg width="84" height="84" viewBox="0 0 84 84" fill="none" xmlns="http://www.w3.org/2000/svg">
<path d="M34.0214 33.0438V29.7751C32.8868 29.5955 31.7408 29.497 30.5921 29.4805C19.4715 29.4568 9.62617 36.6633 6.28666 47.2706C2.94713 57.8778 6.88904 69.4246 16.017 75.7758C12.6698 72.1934 10.4309 67.7189 9.57068 62.8922C8.71047 58.0654 9.26564 53.093 11.1692 48.5748C13.0728 44.0567 16.2434 40.186 20.2983 37.4302C24.3532 34.6743 29.1191 33.1511 34.0207 33.0442L34.0214 33.0438Z" fill="#25F4EE"/>
<path d="M34.6389 70.0708C40.8565 70.0623 45.9673 65.1641 46.2395 58.9524V3.5215H56.366C56.1594 2.36322 56.0608 1.18824 56.0715 0.0117188H42.2205V55.3893C41.99 61.6325 36.8671 66.5777 30.6198 66.5878C28.7529 66.5719 26.9164 66.1129 25.2617 65.2484C26.3342 66.7341 27.7426 67.9455 29.3722 68.7836C31.0019 69.6217 32.8064 70.0627 34.6389 70.0708ZM75.2807 22.3286V19.2476C71.5538 19.249 67.9095 18.1494 64.8055 16.0865C67.5264 19.2498 71.2036 21.4409 75.2807 22.3286Z" fill="#25F4EE"/>
<path d="M64.804 16.0882C61.7461 12.6063 60.0605 8.13016 60.0619 3.49609H56.3645C56.8421 6.05821 57.8367 8.49614 59.2877 10.6611C60.7388 12.8261 62.6157 14.6726 64.804 16.0882ZM30.5916 43.3349C27.9984 43.348 25.4841 44.2277 23.4482 45.8341C21.4124 47.4404 19.9721 49.6812 19.3562 52.2003C18.7402 54.7193 18.9841 57.372 20.049 59.7364C21.1138 62.101 22.9386 64.0416 25.2331 65.25C23.9785 63.5178 23.2273 61.4726 23.0623 59.3401C22.8974 57.2079 23.325 55.0714 24.298 53.1669C25.2712 51.2623 26.7518 49.6638 28.5765 48.5481C30.4011 47.4322 32.4987 46.8426 34.6374 46.8442C35.8001 46.8594 36.9547 47.0404 38.0663 47.3817V33.2881C36.9311 33.1178 35.7853 33.0283 34.6374 33.0203H34.0209V43.7365C32.9034 43.4368 31.7482 43.3015 30.5916 43.3349Z" fill="#FE2C55"/>
<path d="M75.2803 22.3281V33.0448C68.3808 33.0314 61.6604 30.8474 56.0711 26.8024V54.9599C56.0414 69.0102 44.643 80.3848 30.5927 80.3848C25.3745 80.3942 20.282 78.7842 16.0176 75.7768C19.4949 79.517 24.0181 82.1233 28.9978 83.2563C33.9774 84.3891 39.183 83.9962 43.9361 82.1286C48.6893 80.2609 52.7699 77.0052 55.6464 72.7855C58.5229 68.5656 60.062 63.5773 60.0631 58.4705V30.3925C65.6712 34.411 72.3998 36.5665 79.2989 36.5545V22.7558C77.9482 22.7517 76.6015 22.6084 75.2803 22.3281Z" fill="#FE2C55"/>
<path d="M56.0711 54.9621V26.8046C61.6774 30.8265 68.4072 32.9824 75.307 32.9664V22.2502C71.2308 21.3893 67.545 19.2266 64.8051 16.0882C62.6168 14.6726 60.7399 12.8261 59.2888 10.6611C57.8378 8.49614 56.8432 6.05821 56.3656 3.49609H46.2391V58.9548C46.1405 61.3689 45.2923 63.6922 43.8126 65.602C42.3328 67.5119 40.2948 68.9132 37.9818 69.6115C35.6689 70.3097 33.1959 70.2701 30.9065 69.4981C28.6172 68.7263 26.625 67.2603 25.2071 65.3041C22.9123 64.096 21.0871 62.1553 20.022 59.7907C18.9568 57.426 18.7128 54.7731 19.3288 52.2539C19.9448 49.7345 21.3853 47.4935 23.4214 45.8872C25.4575 44.2807 27.9723 43.401 30.5657 43.3882C31.7288 43.3986 32.8842 43.5792 33.9949 43.9242V33.2076C29.0671 33.2912 24.2698 34.8067 20.1884 37.5695C16.1068 40.3323 12.9174 44.223 11.0089 48.7671C9.10034 53.3113 8.55518 58.3126 9.43987 63.1611C10.3246 68.0097 12.6009 72.4961 15.9913 76.0734C20.2976 78.9818 25.3973 80.4883 30.5927 80.387C44.643 80.387 56.0414 69.0123 56.0711 54.9621Z" fill="black"/>
</svg>
