<svg width="60" height="60" viewBox="0 0 60 60" fill="none" xmlns="http://www.w3.org/2000/svg">
<g clip-path="url(#clip0_2364_2758)">
<path d="M60 11.391C57.7935 12.3687 55.4231 13.0293 52.9313 13.3279C55.4734 11.8058 57.4236 9.39054 58.3431 6.51553C55.9649 7.92668 53.3303 8.9519 50.5268 9.50153C48.2806 7.11283 45.0832 5.61719 41.5423 5.61719C34.7459 5.61719 29.2337 11.1293 29.2337 17.9311C29.234 18.8737 29.3404 19.8133 29.5508 20.7322C19.3165 20.2168 10.2501 15.315 4.17776 7.86854C3.12088 9.69184 2.51298 11.8059 2.51298 14.0572C2.51298 18.3273 4.68785 22.0982 7.98819 24.3048C6.0335 24.2425 4.12195 23.7143 2.4126 22.7641V22.9227C2.4126 28.8867 6.65379 33.8625 12.2875 34.9935C11.2304 35.2787 10.1401 35.4227 9.04519 35.4216C8.26765 35.4222 7.49177 35.3497 6.72782 35.2049C8.29479 40.0934 12.8399 43.6555 18.2279 43.7506C14.013 47.0537 8.70436 49.0223 2.93845 49.0223C1.94488 49.0223 0.964495 48.9642 0 48.8505C5.44885 52.3467 11.9176 54.3812 18.8673 54.3812C41.5132 54.3812 53.8933 35.6249 53.8933 19.358C53.8933 18.8295 53.8799 18.2957 53.8562 17.7672C56.2609 16.0284 58.3484 13.8643 59.9946 11.3989L60 11.391Z" fill="#1DA1F2"/>
</g>
<defs>
<clipPath id="clip0_2364_2758">
<rect width="60" height="60" fill="white"/>
</clipPath>
</defs>
</svg>
