<svg width="65" height="65" viewBox="0 0 65 65" fill="none" xmlns="http://www.w3.org/2000/svg">
<g clip-path="url(#clip0_2317_2482)">
<path d="M63.2011 16.9655C62.833 15.6081 62.116 14.3706 61.1215 13.3761C60.127 12.3816 58.8895 11.6646 57.5321 11.2965C52.5621 9.93945 32.5581 9.93945 32.5581 9.93945C32.5581 9.93945 12.5531 9.97945 7.58214 11.3365C6.22474 11.7046 4.98731 12.4216 3.9928 13.4161C2.99829 14.4106 2.28132 15.648 1.91314 17.0055C0.598145 21.9765 0.598145 32.3695 0.598145 32.3695C0.598145 32.3695 0.598145 42.7625 1.95414 47.7735C2.32232 49.1309 3.03929 50.3683 4.0338 51.3628C5.02831 52.3573 6.26574 53.0743 7.62314 53.4425C12.5931 54.7995 32.5981 54.7995 32.5981 54.7995C32.5981 54.7995 52.6031 54.7995 57.5741 53.4435C58.9316 53.0753 60.169 52.3583 61.1635 51.3638C62.158 50.3693 62.875 49.1319 63.2431 47.7745C64.5981 42.8035 64.5981 32.3695 64.5981 32.3695C64.5981 32.3695 64.5581 21.9765 63.2011 16.9655Z" fill="#FF0000"/>
<path d="M26.19 41.9818L42.785 32.3698L26.189 22.7578L26.19 41.9818Z" fill="white"/>
</g>
<defs>
<clipPath id="clip0_2317_2482">
<rect width="64" height="64" fill="white" transform="translate(0.598145 0.369141)"/>
</clipPath>
</defs>
</svg>
